# Blender 4.4.3
# www.blender.org
mtllib SawArm1_1.mtl
o SawArm1_1
v 0.000000 0.351733 -0.544464
v 0.000000 0.351735 13.027832
v 0.068620 0.344975 -0.544464
v 0.068620 0.344977 13.027832
v 0.134603 0.324959 -0.544464
v 0.134603 0.324961 13.027832
v 0.195413 0.292455 -0.544464
v 0.195413 0.292457 13.027832
v 0.248713 0.248713 -0.544464
v 0.248713 0.248715 13.027832
v 0.292456 0.195412 -0.544464
v 0.292456 0.195414 13.027832
v 0.324960 0.134602 -0.544464
v 0.324960 0.134604 13.027832
v 0.344975 0.068619 -0.544464
v 0.344975 0.068621 13.027832
v 0.351734 -0.000001 -0.544464
v 0.351734 0.000002 13.027832
v 0.344975 -0.068620 -0.544464
v 0.344975 -0.068618 13.027832
v 0.324960 -0.134603 -0.544464
v 0.324960 -0.134601 13.027832
v 0.292456 -0.195413 -0.544464
v 0.292456 -0.195411 13.027832
v 0.248713 -0.248714 -0.544464
v 0.248713 -0.248712 13.027832
v 0.195413 -0.292456 -0.544464
v 0.195413 -0.292454 13.027832
v 0.134603 -0.324960 -0.544464
v 0.134603 -0.324958 13.027832
v 0.068620 -0.344976 -0.544464
v 0.068620 -0.344974 13.027832
v 0.000000 -0.351734 -0.544464
v 0.000000 -0.351732 13.027832
v -0.068620 -0.344976 -0.544464
v -0.068620 -0.344974 13.027832
v -0.134603 -0.324960 -0.544464
v -0.134603 -0.324958 13.027832
v -0.195413 -0.292456 -0.544464
v -0.195413 -0.292454 13.027832
v -0.248713 -0.248714 -0.544464
v -0.248713 -0.248712 13.027832
v -0.292456 -0.195413 -0.544464
v -0.292456 -0.195411 13.027832
v -0.324960 -0.134603 -0.544464
v -0.324960 -0.134601 13.027832
v -0.344975 -0.068620 -0.544464
v -0.344975 -0.068618 13.027832
v -0.351734 -0.000001 -0.544464
v -0.351734 0.000002 13.027832
v -0.344975 0.068619 -0.544464
v -0.344975 0.068621 13.027832
v -0.324960 0.134602 -0.544464
v -0.324960 0.134604 13.027832
v -0.292456 0.195412 -0.544464
v -0.292456 0.195414 13.027832
v -0.248713 0.248713 -0.544464
v -0.248713 0.248715 13.027832
v -0.195413 0.292455 -0.544464
v -0.195413 0.292457 13.027832
v -0.134603 0.324959 -0.544464
v -0.134603 0.324961 13.027832
v -0.068620 0.344975 -0.544464
v -0.068620 0.344977 13.027832
v 0.361936 -0.000076 0.818935
v 0.361936 -0.000076 0.818935
v 0.361936 -0.000076 0.818935
v -0.361936 -0.000076 0.818935
v -0.361936 -0.000076 0.818935
v -0.361936 -0.000076 0.818935
v 0.361936 -0.159841 0.803185
v 0.361936 -0.159841 0.803185
v 0.361936 -0.159841 0.803185
v -0.361936 -0.159840 0.803185
v -0.361936 -0.159840 0.803185
v -0.361936 -0.159840 0.803185
v 0.361936 -0.313462 0.756569
v 0.361936 -0.313462 0.756569
v 0.361936 -0.313462 0.756569
v -0.361936 -0.313462 0.756569
v -0.361936 -0.313462 0.756569
v -0.361936 -0.313462 0.756569
v 0.361936 -0.455038 0.680879
v 0.361936 -0.455038 0.680879
v 0.361936 -0.455038 0.680879
v -0.361936 -0.455037 0.680879
v -0.361936 -0.455037 0.680879
v -0.361936 -0.455037 0.680879
v 0.361936 -0.579126 0.579022
v 0.361936 -0.579126 0.579022
v 0.361936 -0.579126 0.579022
v -0.361936 -0.579126 0.579022
v -0.361936 -0.579126 0.579022
v -0.361936 -0.579126 0.579022
v 0.361936 -0.680959 0.454915
v 0.361936 -0.680959 0.454915
v 0.361936 -0.680959 0.454915
v -0.361936 -0.680959 0.454915
v -0.361936 -0.680959 0.454915
v -0.361936 -0.680959 0.454915
v 0.361936 -0.756623 0.313325
v 0.361936 -0.756623 0.313325
v 0.361936 -0.756623 0.313325
v -0.361936 -0.756623 0.313325
v -0.361936 -0.756623 0.313325
v -0.361936 -0.756623 0.313325
v 0.361936 -0.803211 0.159695
v 0.361936 -0.803211 0.159695
v 0.361936 -0.803211 0.159695
v -0.361936 -0.803211 0.159695
v -0.361936 -0.803211 0.159695
v -0.361936 -0.803211 0.159695
v 0.361936 -0.818932 -0.000073
v 0.361936 -0.818932 -0.000073
v 0.361936 -0.818932 -0.000073
v -0.361936 -0.818932 -0.000073
v -0.361936 -0.818932 -0.000073
v -0.361936 -0.818932 -0.000073
v 0.361936 -0.803182 -0.159836
v 0.361936 -0.803182 -0.159836
v 0.361936 -0.803182 -0.159836
v -0.361936 -0.803181 -0.159836
v -0.361936 -0.803181 -0.159836
v -0.361936 -0.803181 -0.159836
v 0.361936 -0.756565 -0.313458
v 0.361936 -0.756565 -0.313458
v 0.361936 -0.756565 -0.313458
v -0.361936 -0.756565 -0.313458
v -0.361936 -0.756565 -0.313458
v -0.361936 -0.756565 -0.313458
v 0.361936 -0.680875 -0.455034
v 0.361936 -0.680875 -0.455034
v 0.361936 -0.680875 -0.455034
v -0.361936 -0.680875 -0.455034
v -0.361936 -0.680875 -0.455034
v -0.361936 -0.680875 -0.455034
v 0.361936 -0.579018 -0.579123
v 0.361936 -0.579018 -0.579123
v 0.361936 -0.579018 -0.579123
v -0.361936 -0.579018 -0.579123
v -0.361936 -0.579018 -0.579123
v -0.361936 -0.579018 -0.579123
v 0.361936 -0.454911 -0.680956
v 0.361936 -0.454911 -0.680956
v 0.361936 -0.454911 -0.680956
v -0.361936 -0.454911 -0.680956
v -0.361936 -0.454911 -0.680956
v -0.361936 -0.454911 -0.680956
v 0.361936 -0.313322 -0.756620
v 0.361936 -0.313322 -0.756620
v 0.361936 -0.313322 -0.756620
v -0.361936 -0.313321 -0.756620
v -0.361936 -0.313321 -0.756620
v -0.361936 -0.313321 -0.756620
v 0.361936 -0.159691 -0.803208
v 0.361936 -0.159691 -0.803208
v 0.361936 -0.159691 -0.803208
v -0.361936 -0.159691 -0.803208
v -0.361936 -0.159691 -0.803208
v -0.361936 -0.159691 -0.803208
v 0.361936 0.000076 -0.818929
v 0.361936 0.000076 -0.818929
v 0.361936 0.000076 -0.818929
v -0.361936 0.000076 -0.818928
v -0.361936 0.000076 -0.818928
v -0.361936 0.000076 -0.818928
v 0.361936 0.159840 -0.803179
v 0.361936 0.159840 -0.803179
v 0.361936 0.159840 -0.803179
v -0.361936 0.159841 -0.803178
v -0.361936 0.159841 -0.803178
v -0.361936 0.159841 -0.803178
v 0.361936 0.313462 -0.756562
v 0.361936 0.313462 -0.756562
v 0.361936 0.313462 -0.756562
v -0.361936 0.313462 -0.756562
v -0.361936 0.313462 -0.756562
v -0.361936 0.313462 -0.756562
v 0.361936 0.455037 -0.680872
v 0.361936 0.455037 -0.680872
v 0.361936 0.455037 -0.680872
v -0.361936 0.455037 -0.680872
v -0.361936 0.455037 -0.680872
v -0.361936 0.455037 -0.680872
v 0.361936 0.579126 -0.579016
v 0.361936 0.579126 -0.579016
v 0.361936 0.579126 -0.579016
v -0.361936 0.579126 -0.579016
v -0.361936 0.579126 -0.579016
v -0.361936 0.579126 -0.579016
v 0.361936 0.680959 -0.454908
v 0.361936 0.680959 -0.454908
v 0.361936 0.680959 -0.454908
v -0.361936 0.680959 -0.454908
v -0.361936 0.680959 -0.454908
v -0.361936 0.680959 -0.454908
v 0.361936 0.756623 -0.313318
v 0.361936 0.756623 -0.313318
v 0.361936 0.756623 -0.313318
v -0.361936 0.756623 -0.313318
v -0.361936 0.756623 -0.313318
v -0.361936 0.756623 -0.313318
v 0.361936 0.803211 -0.159688
v 0.361936 0.803211 -0.159688
v 0.361936 0.803211 -0.159688
v -0.361936 0.803211 -0.159688
v -0.361936 0.803211 -0.159688
v -0.361936 0.803211 -0.159688
v 0.361936 0.818932 0.000079
v 0.361936 0.818932 0.000079
v 0.361936 0.818932 0.000079
v -0.361936 0.818932 0.000079
v -0.361936 0.818932 0.000079
v -0.361936 0.818932 0.000079
v 0.361936 0.803181 0.159843
v 0.361936 0.803181 0.159843
v 0.361936 0.803181 0.159843
v -0.361936 0.803182 0.159843
v -0.361936 0.803182 0.159843
v -0.361936 0.803182 0.159843
v 0.361936 0.756565 0.313465
v 0.361936 0.756565 0.313465
v 0.361936 0.756565 0.313465
v -0.361936 0.756565 0.313465
v -0.361936 0.756565 0.313465
v -0.361936 0.756565 0.313465
v 0.361936 0.680875 0.455041
v 0.361936 0.680875 0.455041
v 0.361936 0.680875 0.455041
v -0.361936 0.680875 0.455041
v -0.361936 0.680875 0.455041
v -0.361936 0.680875 0.455041
v 0.361936 0.579018 0.579130
v 0.361936 0.579018 0.579130
v 0.361936 0.579018 0.579130
v -0.361936 0.579018 0.579130
v -0.361936 0.579018 0.579130
v -0.361936 0.579018 0.579130
v 0.361936 0.454911 0.680963
v 0.361936 0.454911 0.680963
v 0.361936 0.454911 0.680963
v -0.361936 0.454911 0.680963
v -0.361936 0.454911 0.680963
v -0.361936 0.454911 0.680963
v 0.361936 0.313321 0.756627
v 0.361936 0.313321 0.756627
v 0.361936 0.313321 0.756627
v -0.361936 0.313322 0.756626
v -0.361936 0.313322 0.756626
v -0.361936 0.313322 0.756626
v 0.361936 0.159691 0.803214
v 0.361936 0.159691 0.803214
v 0.361936 0.159691 0.803214
v -0.361936 0.159691 0.803214
v -0.361936 0.159691 0.803214
v -0.361936 0.159691 0.803214
v 0.366449 -0.000075 13.451767
v 0.366449 -0.000075 13.451767
v 0.366449 -0.000075 13.451767
v -0.357424 -0.000074 13.451767
v -0.357424 -0.000074 13.451767
v -0.357424 -0.000074 13.451767
v 0.366449 -0.159839 13.436016
v 0.366449 -0.159839 13.436016
v 0.366449 -0.159839 13.436016
v -0.357424 -0.159839 13.436017
v -0.357424 -0.159839 13.436017
v -0.357424 -0.159839 13.436017
v 0.366449 -0.313461 13.389401
v 0.366449 -0.313461 13.389401
v 0.366449 -0.313461 13.389401
v -0.357424 -0.313461 13.389401
v -0.357424 -0.313461 13.389401
v -0.357424 -0.313461 13.389401
v 0.366449 -0.455036 13.313710
v 0.366449 -0.455036 13.313710
v 0.366449 -0.455036 13.313710
v -0.357424 -0.455036 13.313710
v -0.357424 -0.455036 13.313710
v -0.357424 -0.455036 13.313710
v 0.366449 -0.579124 13.211853
v 0.366449 -0.579124 13.211853
v 0.366449 -0.579124 13.211853
v -0.357424 -0.579124 13.211853
v -0.357424 -0.579124 13.211853
v -0.357424 -0.579124 13.211853
v 0.366449 -0.680958 13.087746
v 0.366449 -0.680958 13.087746
v 0.366449 -0.680958 13.087746
v -0.357424 -0.680957 13.087747
v -0.357424 -0.680957 13.087747
v -0.357424 -0.680957 13.087747
v 0.366448 -0.756622 12.946157
v 0.366448 -0.756622 12.946157
v 0.366448 -0.756622 12.946157
v -0.357424 -0.756622 12.946157
v -0.357424 -0.756622 12.946157
v -0.357424 -0.756622 12.946157
v 0.366449 -0.803210 12.792526
v 0.366449 -0.803210 12.792526
v 0.366449 -0.803210 12.792526
v -0.357424 -0.803209 12.792526
v -0.357424 -0.803209 12.792526
v -0.357424 -0.803209 12.792526
v 0.366449 -0.818930 12.632758
v 0.366449 -0.818930 12.632758
v 0.366449 -0.818930 12.632758
v -0.357424 -0.818930 12.632758
v -0.357424 -0.818930 12.632758
v -0.357424 -0.818930 12.632758
v 0.366448 -0.803180 12.472995
v 0.366448 -0.803180 12.472995
v 0.366448 -0.803180 12.472995
v -0.357424 -0.803180 12.472995
v -0.357424 -0.803180 12.472995
v -0.357424 -0.803180 12.472995
v 0.366448 -0.756564 12.319373
v 0.366448 -0.756564 12.319373
v 0.366448 -0.756564 12.319373
v -0.357424 -0.756564 12.319373
v -0.357424 -0.756564 12.319373
v -0.357424 -0.756564 12.319373
v 0.366449 -0.680873 12.177797
v 0.366449 -0.680873 12.177797
v 0.366449 -0.680873 12.177797
v -0.357424 -0.680873 12.177797
v -0.357424 -0.680873 12.177797
v -0.357424 -0.680873 12.177797
v 0.366449 -0.579017 12.053709
v 0.366449 -0.579017 12.053709
v 0.366449 -0.579017 12.053709
v -0.357424 -0.579017 12.053709
v -0.357424 -0.579017 12.053709
v -0.357424 -0.579017 12.053709
v 0.366449 -0.454909 11.951875
v 0.366449 -0.454909 11.951875
v 0.366449 -0.454909 11.951875
v -0.357424 -0.454909 11.951875
v -0.357424 -0.454909 11.951875
v -0.357424 -0.454909 11.951875
v 0.366449 -0.313320 11.876211
v 0.366449 -0.313320 11.876211
v 0.366449 -0.313320 11.876211
v -0.357424 -0.313319 11.876211
v -0.357424 -0.313319 11.876211
v -0.357424 -0.313319 11.876211
v 0.366449 -0.159690 11.829624
v 0.366449 -0.159690 11.829624
v 0.366449 -0.159690 11.829624
v -0.357424 -0.159689 11.829624
v -0.357424 -0.159689 11.829624
v -0.357424 -0.159689 11.829624
v 0.366449 0.000077 11.813903
v 0.366449 0.000077 11.813903
v 0.366449 0.000077 11.813903
v -0.357424 0.000078 11.813903
v -0.357424 0.000078 11.813903
v -0.357424 0.000078 11.813903
v 0.366449 0.159842 11.829653
v 0.366449 0.159842 11.829653
v 0.366449 0.159842 11.829653
v -0.357424 0.159842 11.829653
v -0.357424 0.159842 11.829653
v -0.357424 0.159842 11.829653
v 0.366449 0.313463 11.876269
v 0.366449 0.313463 11.876269
v 0.366449 0.313463 11.876269
v -0.357424 0.313464 11.876269
v -0.357424 0.313464 11.876269
v -0.357424 0.313464 11.876269
v 0.366449 0.455039 11.951961
v 0.366449 0.455039 11.951961
v 0.366449 0.455039 11.951961
v -0.357424 0.455039 11.951961
v -0.357424 0.455039 11.951961
v -0.357424 0.455039 11.951961
v 0.366449 0.579127 12.053816
v 0.366449 0.579127 12.053816
v 0.366449 0.579127 12.053816
v -0.357424 0.579127 12.053816
v -0.357424 0.579127 12.053816
v -0.357424 0.579127 12.053816
v 0.366449 0.680960 12.177923
v 0.366449 0.680960 12.177923
v 0.366449 0.680960 12.177923
v -0.357424 0.680961 12.177923
v -0.357424 0.680961 12.177923
v -0.357424 0.680961 12.177923
v 0.366449 0.756625 12.319513
v 0.366449 0.756625 12.319513
v 0.366449 0.756625 12.319513
v -0.357424 0.756625 12.319513
v -0.357424 0.756625 12.319513
v -0.357424 0.756625 12.319513
v 0.366449 0.803212 12.473144
v 0.366449 0.803212 12.473144
v 0.366449 0.803212 12.473144
v -0.357424 0.803212 12.473144
v -0.357424 0.803212 12.473144
v -0.357424 0.803212 12.473144
v 0.366449 0.818933 12.632911
v 0.366449 0.818933 12.632911
v 0.366449 0.818933 12.632911
v -0.357424 0.818933 12.632911
v -0.357424 0.818933 12.632911
v -0.357424 0.818933 12.632911
v 0.366449 0.803183 12.792675
v 0.366449 0.803183 12.792675
v 0.366449 0.803183 12.792675
v -0.357424 0.803183 12.792675
v -0.357424 0.803183 12.792675
v -0.357424 0.803183 12.792675
v 0.366449 0.756567 12.946297
v 0.366449 0.756567 12.946297
v 0.366449 0.756567 12.946297
v -0.357424 0.756567 12.946297
v -0.357424 0.756567 12.946297
v -0.357424 0.756567 12.946297
v 0.366449 0.680876 13.087872
v 0.366449 0.680876 13.087872
v 0.366449 0.680876 13.087872
v -0.357424 0.680876 13.087872
v -0.357424 0.680876 13.087872
v -0.357424 0.680876 13.087872
v 0.366449 0.579020 13.211962
v 0.366449 0.579020 13.211962
v 0.366449 0.579020 13.211962
v -0.357424 0.579020 13.211962
v -0.357424 0.579020 13.211962
v -0.357424 0.579020 13.211962
v 0.366449 0.454912 13.313794
v 0.366449 0.454912 13.313794
v 0.366449 0.454912 13.313794
v -0.357424 0.454912 13.313794
v -0.357424 0.454912 13.313794
v -0.357424 0.454912 13.313794
v 0.366449 0.313322 13.389459
v 0.366449 0.313322 13.389459
v 0.366449 0.313322 13.389459
v -0.357424 0.313323 13.389458
v -0.357424 0.313323 13.389458
v -0.357424 0.313323 13.389458
v 0.366449 0.159692 13.436047
v 0.366449 0.159692 13.436047
v 0.366449 0.159692 13.436047
v -0.357424 0.159693 13.436047
v -0.357424 0.159693 13.436047
v -0.357424 0.159693 13.436047
vn 0.0980 0.9952 -0.0000
vn 0.2903 0.9569 -0.0000
vn 0.4714 0.8819 -0.0000
vn 0.6344 0.7730 -0.0000
vn 0.7730 0.6344 -0.0000
vn 0.8819 0.4714 -0.0000
vn 0.9569 0.2903 -0.0000
vn 0.9952 0.0980 -0.0000
vn 0.9952 -0.0980 -0.0000
vn 0.9569 -0.2903 -0.0000
vn 0.8819 -0.4714 -0.0000
vn 0.7730 -0.6344 -0.0000
vn 0.6344 -0.7730 -0.0000
vn 0.4714 -0.8819 -0.0000
vn 0.2903 -0.9569 -0.0000
vn 0.0980 -0.9952 -0.0000
vn -0.0980 -0.9952 -0.0000
vn -0.2903 -0.9569 -0.0000
vn -0.4714 -0.8819 -0.0000
vn -0.6344 -0.7730 -0.0000
vn -0.7730 -0.6344 -0.0000
vn -0.8819 -0.4714 -0.0000
vn -0.9569 -0.2903 -0.0000
vn -0.9952 -0.0980 -0.0000
vn -0.9952 0.0980 -0.0000
vn -0.9569 0.2903 -0.0000
vn -0.8819 0.4714 -0.0000
vn -0.7730 0.6344 -0.0000
vn -0.6344 0.7730 -0.0000
vn -0.4714 0.8819 -0.0000
vn -0.0000 -0.0000 1.0000
vn -0.2903 0.9569 -0.0000
vn -0.0980 0.9952 -0.0000
vn -0.0000 -0.0000 -1.0000
vn 0.0002 -0.0000 1.0000
vn 0.0001 -0.0000 1.0000
vn -0.0001 -0.0000 1.0000
vn -0.0002 -0.0000 1.0000
vn -0.0000 -0.0981 0.9952
vn -0.0000 -0.2904 0.9569
vn -0.0000 -0.4715 0.8819
vn -0.0000 -0.6345 0.7729
vn -0.0000 -0.7731 0.6343
vn -0.0000 -0.8820 0.4713
vn -0.0000 -0.9570 0.2902
vn -0.0000 -0.9952 0.0979
vn -0.0000 -0.9952 -0.0981
vn -0.0000 -0.9569 -0.2904
vn -0.0000 -0.8819 -0.4715
vn -0.0000 -0.7730 -0.6345
vn -0.0000 -0.7729 -0.6345
vn -0.0000 -0.6343 -0.7731
vn -0.0000 -0.4713 -0.8820
vn -0.0000 -0.2902 -0.9570
vn -0.0000 -0.0979 -0.9952
vn -0.0000 0.0981 -0.9952
vn -0.0000 0.2904 -0.9569
vn -0.0000 0.4715 -0.8819
vn -0.0000 0.6345 -0.7730
vn -0.0000 0.7731 -0.6343
vn -0.0000 0.8820 -0.4713
vn -0.0000 0.9570 -0.2902
vn -0.0000 0.9952 -0.0979
vn -0.0000 0.9952 0.0981
vn -0.0000 0.9569 0.2904
vn -0.0000 0.8819 0.4715
vn -0.0000 0.7730 0.6345
vn -0.0000 0.7729 0.6345
vn -0.0000 0.6343 0.7731
vn -0.0000 0.4713 0.8820
vn -1.0000 -0.0000 -0.0000
vn -0.0000 0.2902 0.9570
vn -0.0000 0.0979 0.9952
vn 1.0000 -0.0000 -0.0000
vn 1.0000 -0.0001 -0.0000
vt 1.000000 1.000000
vt 0.968750 0.500000
vt 1.000000 0.500000
vt 0.968750 1.000000
vt 0.937500 0.500000
vt 0.937500 1.000000
vt 0.906250 0.500000
vt 0.906250 1.000000
vt 0.875000 0.500000
vt 0.875000 1.000000
vt 0.843750 0.500000
vt 0.843750 1.000000
vt 0.812500 0.500000
vt 0.812500 1.000000
vt 0.781250 0.500000
vt 0.781250 1.000000
vt 0.750000 0.500000
vt 0.750000 1.000000
vt 0.718750 0.500000
vt 0.718750 1.000000
vt 0.687500 0.500000
vt 0.687500 1.000000
vt 0.656250 0.500000
vt 0.656250 1.000000
vt 0.625000 0.500000
vt 0.625000 1.000000
vt 0.593750 0.500000
vt 0.593750 1.000000
vt 0.562500 0.500000
vt 0.562500 1.000000
vt 0.531250 0.500000
vt 0.531250 1.000000
vt 0.500000 0.500000
vt 0.500000 1.000000
vt 0.468750 0.500000
vt 0.468750 1.000000
vt 0.437500 0.500000
vt 0.437500 1.000000
vt 0.406250 0.500000
vt 0.406250 1.000000
vt 0.375000 0.500000
vt 0.375000 1.000000
vt 0.343750 0.500000
vt 0.343750 1.000000
vt 0.312500 0.500000
vt 0.312500 1.000000
vt 0.281250 0.500000
vt 0.281250 1.000000
vt 0.250000 0.500000
vt 0.250000 1.000000
vt 0.218750 0.500000
vt 0.218750 1.000000
vt 0.187500 0.500000
vt 0.187500 1.000000
vt 0.156250 0.500000
vt 0.156250 1.000000
vt 0.125000 0.500000
vt 0.125000 1.000000
vt 0.093750 0.500000
vt 0.093750 1.000000
vt 0.062500 0.500000
vt 0.158156 0.028269
vt 0.471731 0.158156
vt 0.341844 0.471731
vt 0.062500 1.000000
vt 0.031250 0.500000
vt 0.031250 1.000000
vt 0.000000 0.500000
vt 0.796822 0.014612
vt 0.514612 0.203178
vt 0.703178 0.485388
vt 0.296822 0.485388
vt 0.250000 0.490000
vt 0.203178 0.485388
vt 0.158156 0.471731
vt 0.116663 0.449553
vt 0.080294 0.419706
vt 0.050447 0.383337
vt 0.028269 0.341844
vt 0.014612 0.296822
vt 0.010000 0.250000
vt 0.014612 0.203178
vt 0.028269 0.158156
vt 0.050447 0.116663
vt 0.080294 0.080294
vt 0.116663 0.050447
vt 0.203178 0.014612
vt 0.250000 0.010000
vt 0.296822 0.014612
vt 0.341844 0.028269
vt 0.383337 0.050447
vt 0.419706 0.080294
vt 0.449553 0.116663
vt 0.485388 0.203178
vt 0.490000 0.250000
vt 0.485388 0.296822
vt 0.471731 0.341844
vt 0.449553 0.383337
vt 0.419706 0.419706
vt 0.383337 0.449553
vt 0.000000 1.000000
vt 0.750000 0.490000
vt 0.796822 0.485388
vt 0.841844 0.471731
vt 0.883337 0.449553
vt 0.919706 0.419706
vt 0.949553 0.383337
vt 0.971731 0.341844
vt 0.985388 0.296822
vt 0.990000 0.250000
vt 0.985388 0.203178
vt 0.971731 0.158156
vt 0.949553 0.116663
vt 0.919706 0.080294
vt 0.883337 0.050447
vt 0.841844 0.028269
vt 0.750000 0.010000
vt 0.703178 0.014612
vt 0.658156 0.028269
vt 0.616663 0.050447
vt 0.580294 0.080294
vt 0.550447 0.116663
vt 0.528269 0.158156
vt 0.510000 0.250000
vt 0.514612 0.296822
vt 0.528269 0.341844
vt 0.550447 0.383337
vt 0.580294 0.419706
vt 0.616663 0.449553
vt 0.658156 0.471731
s 1
usemtl Material.003
f 2/1/1 3/2/1 1/3/1
f 4/4/2 5/5/2 3/2/2
f 6/6/3 7/7/3 5/5/3
f 8/8/4 9/9/4 7/7/4
f 10/10/5 11/11/5 9/9/5
f 12/12/6 13/13/6 11/11/6
f 14/14/7 15/15/7 13/13/7
f 16/16/8 17/17/8 15/15/8
f 18/18/9 19/19/9 17/17/9
f 20/20/10 21/21/10 19/19/10
f 22/22/11 23/23/11 21/21/11
f 24/24/12 25/25/12 23/23/12
f 26/26/13 27/27/13 25/25/13
f 28/28/14 29/29/14 27/27/14
f 30/30/15 31/31/15 29/29/15
f 32/32/16 33/33/16 31/31/16
f 34/34/17 35/35/17 33/33/17
f 36/36/18 37/37/18 35/35/18
f 38/38/19 39/39/19 37/37/19
f 40/40/20 41/41/20 39/39/20
f 42/42/21 43/43/21 41/41/21
f 44/44/22 45/45/22 43/43/22
f 46/46/23 47/47/23 45/45/23
f 48/48/24 49/49/24 47/47/24
f 50/50/25 51/51/25 49/49/25
f 52/52/26 53/53/26 51/51/26
f 54/54/27 55/55/27 53/53/27
f 56/56/28 57/57/28 55/55/28
f 58/58/29 59/59/29 57/57/29
f 60/60/30 61/61/30 59/59/30
f 38/62/31 22/63/31 6/64/31
f 62/65/32 63/66/32 61/61/32
f 64/67/33 1/68/33 63/66/33
f 31/69/34 47/70/34 63/71/34
f 2/1/1 4/4/1 3/2/1
f 4/4/2 6/6/2 5/5/2
f 6/6/3 8/8/3 7/7/3
f 8/8/4 10/10/4 9/9/4
f 10/10/5 12/12/5 11/11/5
f 12/12/6 14/14/6 13/13/6
f 14/14/7 16/16/7 15/15/7
f 16/16/8 18/18/8 17/17/8
f 18/18/9 20/20/9 19/19/9
f 20/20/10 22/22/10 21/21/10
f 22/22/11 24/24/11 23/23/11
f 24/24/12 26/26/12 25/25/12
f 26/26/13 28/28/13 27/27/13
f 28/28/14 30/30/14 29/29/14
f 30/30/15 32/32/15 31/31/15
f 32/32/16 34/34/16 33/33/16
f 34/34/17 36/36/17 35/35/17
f 36/36/18 38/38/18 37/37/18
f 38/38/19 40/40/19 39/39/19
f 40/40/20 42/42/20 41/41/20
f 42/42/21 44/44/21 43/43/21
f 44/44/22 46/46/22 45/45/22
f 46/46/23 48/48/23 47/47/23
f 48/48/24 50/50/24 49/49/24
f 50/50/25 52/52/25 51/51/25
f 52/52/26 54/54/26 53/53/26
f 54/54/27 56/56/27 55/55/27
f 56/56/28 58/58/28 57/57/28
f 58/58/29 60/60/29 59/59/29
f 60/60/30 62/65/30 61/61/30
f 6/64/31 4/72/31 2/73/31
f 2/73/31 64/74/31 62/75/31
f 62/75/31 60/76/31 58/77/31
f 58/77/31 56/78/31 54/79/31
f 54/79/31 52/80/35 50/81/36
f 50/81/36 48/82/37 46/83/31
f 46/83/31 44/84/31 42/85/31
f 42/85/31 40/86/36 38/62/31
f 38/62/31 36/87/31 34/88/31
f 34/88/31 32/89/31 30/90/31
f 30/90/31 28/91/37 26/92/31
f 26/92/31 24/93/31 22/63/31
f 22/63/31 20/94/36 18/95/37
f 18/95/37 16/96/38 14/97/31
f 14/97/31 12/98/31 10/99/31
f 10/99/31 8/100/31 6/64/31
f 6/64/31 2/73/31 62/75/31
f 62/75/31 58/77/31 54/79/31
f 54/79/31 50/81/36 46/83/31
f 46/83/31 42/85/31 38/62/31
f 38/62/31 34/88/31 30/90/31
f 30/90/31 26/92/31 22/63/31
f 22/63/31 18/95/37 14/97/31
f 14/97/31 10/99/31 6/64/31
f 6/64/31 62/75/31 54/79/31
f 54/79/31 46/83/31 38/62/31
f 38/62/31 30/90/31 22/63/31
f 22/63/31 14/97/31 6/64/31
f 6/64/31 54/79/31 38/62/31
f 62/65/32 64/67/32 63/66/32
f 64/67/33 2/101/33 1/68/33
f 63/71/34 1/102/34 3/103/34
f 3/103/34 5/104/34 7/105/34
f 7/105/34 9/106/34 11/107/34
f 11/107/34 13/108/34 15/109/34
f 15/109/34 17/110/34 19/111/34
f 19/111/34 21/112/34 23/113/34
f 23/113/34 25/114/34 27/115/34
f 27/115/34 29/116/34 31/69/34
f 31/69/34 33/117/34 35/118/34
f 35/118/34 37/119/34 39/120/34
f 39/120/34 41/121/34 43/122/34
f 43/122/34 45/123/34 47/70/34
f 47/70/34 49/124/34 51/125/34
f 51/125/34 53/126/34 55/127/34
f 55/127/34 57/128/34 59/129/34
f 59/129/34 61/130/34 63/71/34
f 63/71/34 3/103/34 7/105/34
f 7/105/34 11/107/34 15/109/34
f 15/109/34 19/111/34 23/113/34
f 23/113/34 27/115/34 31/69/34
f 31/69/34 35/118/34 39/120/34
f 39/120/34 43/122/34 47/70/34
f 47/70/34 51/125/34 55/127/34
f 55/127/34 59/129/34 63/71/34
f 63/71/34 7/105/34 15/109/34
f 15/109/34 23/113/34 31/69/34
f 31/69/34 39/120/34 47/70/34
f 47/70/34 55/127/34 63/71/34
f 63/71/34 15/109/34 31/69/34
usemtl Material.004
f 66/3/39 69/1/39 75/4/39
f 66/3/39 75/4/39 72/2/39
f 73/2/40 76/4/40 81/6/40
f 73/2/40 81/6/40 78/5/40
f 79/5/41 82/6/41 87/8/41
f 79/5/41 87/8/41 84/7/41
f 85/7/42 88/8/42 93/10/42
f 85/7/42 93/10/42 90/9/42
f 91/9/43 94/10/43 99/12/43
f 91/9/43 99/12/43 96/11/43
f 97/11/44 100/12/44 105/14/44
f 97/11/44 105/14/44 102/13/44
f 103/13/45 106/14/45 111/16/45
f 103/13/45 111/16/45 108/15/45
f 109/15/46 112/16/46 118/18/46
f 109/15/46 118/18/46 115/17/46
f 114/17/47 117/18/47 124/20/47
f 114/17/47 124/20/47 121/19/47
f 120/19/48 123/20/48 130/22/48
f 120/19/48 130/22/48 127/21/48
f 126/21/49 129/22/49 136/24/49
f 126/21/49 136/24/49 133/23/49
f 132/23/50 135/24/51 142/26/51
f 132/23/50 142/26/51 139/25/50
f 138/25/52 141/26/52 148/28/52
f 138/25/52 148/28/52 145/27/52
f 144/27/53 147/28/53 154/30/53
f 144/27/53 154/30/53 151/29/53
f 150/29/54 153/30/54 160/32/54
f 150/29/54 160/32/54 157/31/54
f 156/31/55 159/32/55 165/34/55
f 156/31/55 165/34/55 162/33/55
f 163/33/56 166/34/56 171/36/56
f 163/33/56 171/36/56 168/35/56
f 169/35/57 172/36/57 177/38/57
f 169/35/57 177/38/57 174/37/57
f 175/37/58 178/38/58 183/40/58
f 175/37/58 183/40/58 180/39/58
f 181/39/59 184/40/59 189/42/59
f 181/39/59 189/42/59 186/41/59
f 187/41/60 190/42/60 195/44/60
f 187/41/60 195/44/60 192/43/60
f 193/43/61 196/44/61 201/46/61
f 193/43/61 201/46/61 198/45/61
f 199/45/62 202/46/62 207/48/62
f 199/45/62 207/48/62 204/47/62
f 205/47/63 208/48/63 213/50/63
f 205/47/63 213/50/63 210/49/63
f 211/49/64 214/50/64 220/52/64
f 211/49/64 220/52/64 217/51/64
f 216/51/65 219/52/65 226/54/65
f 216/51/65 226/54/65 223/53/65
f 222/53/66 225/54/66 232/56/66
f 222/53/66 232/56/66 229/55/66
f 228/55/67 231/56/68 238/58/68
f 228/55/67 238/58/68 235/57/67
f 234/57/69 237/58/69 244/60/69
f 234/57/69 244/60/69 241/59/69
f 240/59/70 243/60/70 250/65/70
f 240/59/70 250/65/70 247/61/70
f 80/64/71 74/72/71 68/73/71
f 68/73/71 254/74/71 248/75/71
f 248/75/71 242/76/71 236/77/71
f 236/77/71 230/78/71 224/79/71
f 224/79/71 218/80/71 212/81/71
f 212/81/71 206/82/71 200/83/71
f 200/83/71 194/84/71 188/85/71
f 188/85/71 182/86/71 176/62/71
f 176/62/71 170/87/71 164/88/71
f 164/88/71 158/89/71 152/90/71
f 152/90/71 146/91/71 140/92/71
f 140/92/71 134/93/71 128/63/71
f 128/63/71 122/94/71 116/95/71
f 116/95/71 110/96/71 104/97/71
f 104/97/71 98/98/71 92/99/71
f 92/99/71 86/100/71 80/64/71
f 80/64/71 68/73/71 248/75/71
f 248/75/71 236/77/71 224/79/71
f 224/79/71 212/81/71 200/83/71
f 200/83/71 188/85/71 176/62/71
f 176/62/71 164/88/71 152/90/71
f 152/90/71 140/92/71 128/63/71
f 128/63/71 116/95/71 104/97/71
f 104/97/71 92/99/71 80/64/71
f 80/64/71 248/75/71 224/79/71
f 224/79/71 200/83/71 176/62/71
f 176/62/71 152/90/71 128/63/71
f 128/63/71 104/97/71 80/64/71
f 80/64/71 224/79/71 176/62/71
f 176/62/71 128/63/71 80/64/71
f 246/61/72 249/65/72 256/67/72
f 246/61/72 256/67/72 253/66/72
f 252/66/73 255/67/73 70/101/73
f 252/66/73 70/101/73 67/68/73
f 251/71/74 65/102/74 71/103/74
f 71/103/74 77/104/74 83/105/74
f 83/105/74 89/106/74 95/107/74
f 95/107/74 101/108/74 107/109/74
f 107/109/74 113/110/74 119/111/74
f 119/111/74 125/112/74 131/113/74
f 131/113/74 137/114/74 143/115/74
f 143/115/74 149/116/74 155/69/74
f 155/69/74 161/117/74 167/118/74
f 167/118/74 173/119/74 179/120/74
f 179/120/74 185/121/74 191/122/74
f 191/122/74 197/123/74 203/70/74
f 203/70/74 209/124/74 215/125/74
f 215/125/74 221/126/74 227/127/74
f 227/127/74 233/128/74 239/129/74
f 239/129/74 245/130/74 251/71/74
f 251/71/74 71/103/74 83/105/74
f 83/105/74 95/107/74 107/109/74
f 107/109/74 119/111/74 131/113/74
f 131/113/74 143/115/74 155/69/74
f 155/69/74 167/118/74 179/120/74
f 179/120/74 191/122/74 203/70/74
f 203/70/74 215/125/74 227/127/74
f 227/127/74 239/129/74 251/71/74
f 251/71/74 83/105/74 107/109/74
f 107/109/74 131/113/74 155/69/74
f 155/69/74 179/120/74 203/70/74
f 203/70/74 227/127/74 251/71/74
f 251/71/74 107/109/74 155/69/74
f 155/69/74 203/70/74 251/71/74
f 258/3/39 261/1/39 267/4/39
f 258/3/39 267/4/39 264/2/39
f 265/2/40 268/4/40 273/6/40
f 265/2/40 273/6/40 270/5/40
f 271/5/41 274/6/41 279/8/41
f 271/5/41 279/8/41 276/7/41
f 277/7/42 280/8/42 285/10/42
f 277/7/42 285/10/42 282/9/42
f 283/9/43 286/10/43 291/12/43
f 283/9/43 291/12/43 288/11/43
f 289/11/44 292/12/44 297/14/44
f 289/11/44 297/14/44 294/13/44
f 295/13/45 298/14/45 303/16/45
f 295/13/45 303/16/45 300/15/45
f 301/15/46 304/16/46 310/18/46
f 301/15/46 310/18/46 307/17/46
f 306/17/47 309/18/47 316/20/47
f 306/17/47 316/20/47 313/19/47
f 312/19/48 315/20/48 322/22/48
f 312/19/48 322/22/48 319/21/48
f 318/21/49 321/22/49 328/24/49
f 318/21/49 328/24/49 325/23/49
f 324/23/50 327/24/50 334/26/50
f 324/23/50 334/26/50 331/25/50
f 330/25/52 333/26/52 340/28/52
f 330/25/52 340/28/52 337/27/52
f 336/27/53 339/28/53 346/30/53
f 336/27/53 346/30/53 343/29/53
f 342/29/54 345/30/54 352/32/54
f 342/29/54 352/32/54 349/31/54
f 348/31/55 351/32/55 357/34/55
f 348/31/55 357/34/55 354/33/55
f 355/33/56 358/34/56 363/36/56
f 355/33/56 363/36/56 360/35/56
f 361/35/57 364/36/57 369/38/57
f 361/35/57 369/38/57 366/37/57
f 367/37/58 370/38/58 375/40/58
f 367/37/58 375/40/58 372/39/58
f 373/39/59 376/40/59 381/42/59
f 373/39/59 381/42/59 378/41/59
f 379/41/60 382/42/60 387/44/60
f 379/41/60 387/44/60 384/43/60
f 385/43/61 388/44/61 393/46/61
f 385/43/61 393/46/61 390/45/61
f 391/45/62 394/46/62 399/48/62
f 391/45/62 399/48/62 396/47/62
f 397/47/63 400/48/63 405/50/63
f 397/47/63 405/50/63 402/49/63
f 403/49/64 406/50/64 412/52/64
f 403/49/64 412/52/64 409/51/64
f 408/51/65 411/52/65 418/54/65
f 408/51/65 418/54/65 415/53/65
f 414/53/66 417/54/66 424/56/66
f 414/53/66 424/56/66 421/55/66
f 420/55/67 423/56/67 430/58/67
f 420/55/67 430/58/67 427/57/67
f 426/57/69 429/58/69 436/60/69
f 426/57/69 436/60/69 433/59/69
f 432/59/70 435/60/70 442/65/70
f 432/59/70 442/65/70 439/61/70
f 272/64/71 266/72/71 260/73/71
f 260/73/71 446/74/71 440/75/71
f 440/75/71 434/76/71 428/77/71
f 428/77/71 422/78/71 416/79/71
f 416/79/71 410/80/71 404/81/71
f 404/81/71 398/82/71 392/83/71
f 392/83/71 386/84/71 380/85/71
f 380/85/71 374/86/71 368/62/71
f 368/62/71 362/87/71 356/88/71
f 356/88/71 350/89/71 344/90/71
f 344/90/71 338/91/71 332/92/71
f 332/92/71 326/93/71 320/63/71
f 320/63/71 314/94/71 308/95/71
f 308/95/71 302/96/71 296/97/71
f 296/97/71 290/98/71 284/99/71
f 284/99/71 278/100/71 272/64/71
f 272/64/71 260/73/71 440/75/71
f 440/75/71 428/77/71 416/79/71
f 416/79/71 404/81/71 392/83/71
f 392/83/71 380/85/71 368/62/71
f 368/62/71 356/88/71 344/90/71
f 344/90/71 332/92/71 320/63/71
f 320/63/71 308/95/71 296/97/71
f 296/97/71 284/99/71 272/64/71
f 272/64/71 440/75/71 416/79/71
f 416/79/71 392/83/71 368/62/71
f 368/62/71 344/90/71 320/63/71
f 320/63/71 296/97/71 272/64/71
f 272/64/71 416/79/71 368/62/71
f 368/62/71 320/63/71 272/64/71
f 438/61/72 441/65/72 448/67/72
f 438/61/72 448/67/72 445/66/72
f 444/66/73 447/67/73 262/101/73
f 444/66/73 262/101/73 259/68/73
f 443/71/74 257/102/74 263/103/74
f 263/103/74 269/104/74 275/105/74
f 275/105/74 281/106/74 287/107/74
f 287/107/74 293/108/75 299/109/74
f 299/109/74 305/110/74 311/111/74
f 311/111/74 317/112/74 323/113/74
f 323/113/74 329/114/74 335/115/74
f 335/115/74 341/116/74 347/69/74
f 347/69/74 353/117/74 359/118/74
f 359/118/74 365/119/74 371/120/74
f 371/120/74 377/121/74 383/122/74
f 383/122/74 389/123/74 395/70/74
f 395/70/74 401/124/74 407/125/74
f 407/125/74 413/126/74 419/127/74
f 419/127/74 425/128/74 431/129/74
f 431/129/74 437/130/74 443/71/74
f 443/71/74 263/103/74 275/105/74
f 275/105/74 287/107/74 299/109/74
f 299/109/74 311/111/74 323/113/74
f 323/113/74 335/115/74 347/69/74
f 347/69/74 359/118/74 371/120/74
f 371/120/74 383/122/74 395/70/74
f 395/70/74 407/125/74 419/127/74
f 419/127/74 431/129/74 443/71/74
f 443/71/74 275/105/74 299/109/74
f 299/109/74 323/113/74 347/69/74
f 347/69/74 371/120/74 395/70/74
f 395/70/74 419/127/74 443/71/74
f 443/71/74 299/109/74 347/69/74
f 347/69/74 395/70/74 443/71/74
