# Blender v3.0.0 OBJ File: 'capsule-shape-arena.blend'
# www.blender.org
mtllib capsule-shape-arena-walls.mtl
o arena-walls_Circle.002
v 7.500000 0.000000 -15.000000
v 22.500000 0.000000 0.000000
v 19.972046 0.000000 -8.333551
v 18.106602 0.000000 -10.606601
v 17.015898 0.000000 -11.595159
v 15.833555 0.000000 -12.472044
v 14.570949 0.000000 -13.228820
v 8.970259 0.000000 -14.927771
v 0.000000 0.000000 -15.000000
v 7.500000 1.000000 -15.000000
v 22.500000 1.000000 0.000000
v 22.427771 1.000000 -1.470254
v 21.854107 1.000000 -4.354269
v 21.358191 1.000000 -5.740254
v 20.728819 1.000000 -7.070951
v 19.095158 1.000000 -9.515900
v 18.106602 1.000000 -10.606601
v 15.833555 1.000000 -12.472044
v 14.570949 1.000000 -13.228820
v 11.854273 1.000000 -14.354104
v 10.426354 1.000000 -14.711780
v 0.000000 1.000000 -15.000000
v 0.000000 0.000000 -15.450003
v 7.500000 1.000000 -15.450003
v 0.000000 1.000000 -15.450003
v 22.427771 0.000000 -1.470254
v 22.211779 0.000000 -2.926356
v 21.854107 0.000000 -4.354269
v 21.358191 0.000000 -5.740254
v 20.728819 0.000000 -7.070951
v 19.095158 0.000000 -9.515900
v 13.240251 0.000000 -13.858193
v 11.854273 0.000000 -14.354104
v 10.426354 0.000000 -14.711780
v 22.211779 1.000000 -2.926356
v 19.972046 1.000000 -8.333551
v 17.015898 1.000000 -11.595159
v 13.240251 1.000000 -13.858193
v 8.970259 1.000000 -14.927771
v 22.875607 0.000000 -1.514362
v 22.950003 0.000000 0.000000
v 22.653135 0.000000 -3.014148
v 22.284733 0.000000 -4.484898
v 21.773941 0.000000 -5.912463
v 21.125687 0.000000 -7.283081
v 20.346210 0.000000 -8.583560
v 19.443014 0.000000 -9.801379
v 18.424801 0.000000 -10.924801
v 17.301378 0.000000 -11.943016
v 16.083565 0.000000 -12.846208
v 14.783079 0.000000 -13.625688
v 13.412459 0.000000 -14.273942
v 11.984902 0.000000 -14.784730
v 10.514146 0.000000 -15.153136
v 9.014366 0.000000 -15.375607
v 7.500000 0.000000 -15.450003
v 22.875607 1.000000 -1.514362
v 22.950003 1.000000 0.000000
v 22.653135 1.000000 -3.014148
v 22.284733 1.000000 -4.484898
v 21.773941 1.000000 -5.912463
v 21.125687 1.000000 -7.283081
v 20.346210 1.000000 -8.583560
v 19.443014 1.000000 -9.801379
v 18.424801 1.000000 -10.924801
v 17.301378 1.000000 -11.943016
v 16.083565 1.000000 -12.846208
v 14.783079 1.000000 -13.625688
v 13.412459 1.000000 -14.273942
v 11.984902 1.000000 -14.784730
v 10.514146 1.000000 -15.153136
v 9.014366 1.000000 -15.375607
v -7.500000 0.000000 -15.000000
v -22.500000 0.000000 0.000000
v -19.972046 0.000000 -8.333551
v -18.106602 0.000000 -10.606601
v -17.015898 0.000000 -11.595159
v -15.833555 0.000000 -12.472044
v -14.570949 0.000000 -13.228820
v -8.970259 0.000000 -14.927771
v -7.500000 1.000000 -15.000000
v -22.500000 1.000000 0.000000
v -22.427771 1.000000 -1.470254
v -21.854107 1.000000 -4.354269
v -21.358191 1.000000 -5.740254
v -20.728819 1.000000 -7.070951
v -19.095158 1.000000 -9.515900
v -18.106602 1.000000 -10.606601
v -15.833555 1.000000 -12.472044
v -14.570949 1.000000 -13.228820
v -11.854273 1.000000 -14.354104
v -10.426354 1.000000 -14.711780
v -7.500000 1.000000 -15.450003
v -22.427771 0.000000 -1.470254
v -22.211779 0.000000 -2.926356
v -21.854107 0.000000 -4.354269
v -21.358191 0.000000 -5.740254
v -20.728819 0.000000 -7.070951
v -19.095158 0.000000 -9.515900
v -13.240251 0.000000 -13.858193
v -11.854273 0.000000 -14.354104
v -10.426354 0.000000 -14.711780
v -22.211779 1.000000 -2.926356
v -19.972046 1.000000 -8.333551
v -17.015898 1.000000 -11.595159
v -13.240251 1.000000 -13.858193
v -8.970259 1.000000 -14.927771
v -22.875607 0.000000 -1.514362
v -22.950003 0.000000 0.000000
v -22.653135 0.000000 -3.014148
v -22.284733 0.000000 -4.484898
v -21.773941 0.000000 -5.912463
v -21.125687 0.000000 -7.283081
v -20.346210 0.000000 -8.583560
v -19.443014 0.000000 -9.801379
v -18.424801 0.000000 -10.924801
v -17.301378 0.000000 -11.943016
v -16.083565 0.000000 -12.846208
v -14.783079 0.000000 -13.625688
v -13.412459 0.000000 -14.273942
v -11.984902 0.000000 -14.784730
v -10.514146 0.000000 -15.153136
v -9.014366 0.000000 -15.375607
v -7.500000 0.000000 -15.450003
v -22.875607 1.000000 -1.514362
v -22.950003 1.000000 0.000000
v -22.653135 1.000000 -3.014148
v -22.284733 1.000000 -4.484898
v -21.773941 1.000000 -5.912463
v -21.125687 1.000000 -7.283081
v -20.346210 1.000000 -8.583560
v -19.443014 1.000000 -9.801379
v -18.424801 1.000000 -10.924801
v -17.301378 1.000000 -11.943016
v -16.083565 1.000000 -12.846208
v -14.783079 1.000000 -13.625688
v -13.412459 1.000000 -14.273942
v -11.984902 1.000000 -14.784730
v -10.514146 1.000000 -15.153136
v -9.014366 1.000000 -15.375607
v 7.500000 0.000000 15.000000
v 19.972046 0.000000 8.333551
v 18.106602 0.000000 10.606601
v 17.015898 0.000000 11.595159
v 15.833555 0.000000 12.472044
v 14.570949 0.000000 13.228820
v 8.970259 0.000000 14.927771
v 0.000000 0.000000 15.000000
v 7.500000 1.000000 15.000000
v 22.427771 1.000000 1.470254
v 21.854107 1.000000 4.354269
v 21.358191 1.000000 5.740254
v 20.728819 1.000000 7.070951
v 19.095158 1.000000 9.515900
v 18.106602 1.000000 10.606601
v 15.833555 1.000000 12.472044
v 14.570949 1.000000 13.228820
v 11.854273 1.000000 14.354104
v 10.426354 1.000000 14.711780
v 0.000000 1.000000 15.000000
v 0.000000 0.000000 15.450003
v 7.500000 1.000000 15.450003
v 0.000000 1.000000 15.450003
v 22.427771 0.000000 1.470254
v 22.211779 0.000000 2.926356
v 21.854107 0.000000 4.354269
v 21.358191 0.000000 5.740254
v 20.728819 0.000000 7.070951
v 19.095158 0.000000 9.515900
v 13.240251 0.000000 13.858193
v 11.854273 0.000000 14.354104
v 10.426354 0.000000 14.711780
v 22.211779 1.000000 2.926356
v 19.972046 1.000000 8.333551
v 17.015898 1.000000 11.595159
v 13.240251 1.000000 13.858193
v 8.970259 1.000000 14.927771
v 22.875607 0.000000 1.514362
v 22.653135 0.000000 3.014148
v 22.284733 0.000000 4.484898
v 21.773941 0.000000 5.912463
v 21.125687 0.000000 7.283081
v 20.346210 0.000000 8.583560
v 19.443014 0.000000 9.801379
v 18.424801 0.000000 10.924801
v 17.301378 0.000000 11.943016
v 16.083565 0.000000 12.846208
v 14.783079 0.000000 13.625688
v 13.412459 0.000000 14.273942
v 11.984902 0.000000 14.784730
v 10.514146 0.000000 15.153136
v 9.014366 0.000000 15.375607
v 7.500000 0.000000 15.450003
v 22.875607 1.000000 1.514362
v 22.653135 1.000000 3.014148
v 22.284733 1.000000 4.484898
v 21.773941 1.000000 5.912463
v 21.125687 1.000000 7.283081
v 20.346210 1.000000 8.583560
v 19.443014 1.000000 9.801379
v 18.424801 1.000000 10.924801
v 17.301378 1.000000 11.943016
v 16.083565 1.000000 12.846208
v 14.783079 1.000000 13.625688
v 13.412459 1.000000 14.273942
v 11.984902 1.000000 14.784730
v 10.514146 1.000000 15.153136
v 9.014366 1.000000 15.375607
v -7.500000 0.000000 15.000000
v -19.972046 0.000000 8.333551
v -18.106602 0.000000 10.606601
v -17.015898 0.000000 11.595159
v -15.833555 0.000000 12.472044
v -14.570949 0.000000 13.228820
v -8.970259 0.000000 14.927771
v -7.500000 1.000000 15.000000
v -22.427771 1.000000 1.470254
v -21.854107 1.000000 4.354269
v -21.358191 1.000000 5.740254
v -20.728819 1.000000 7.070951
v -19.095158 1.000000 9.515900
v -18.106602 1.000000 10.606601
v -15.833555 1.000000 12.472044
v -14.570949 1.000000 13.228820
v -11.854273 1.000000 14.354104
v -10.426354 1.000000 14.711780
v -7.500000 1.000000 15.450003
v -22.427771 0.000000 1.470254
v -22.211779 0.000000 2.926356
v -21.854107 0.000000 4.354269
v -21.358191 0.000000 5.740254
v -20.728819 0.000000 7.070951
v -19.095158 0.000000 9.515900
v -13.240251 0.000000 13.858193
v -11.854273 0.000000 14.354104
v -10.426354 0.000000 14.711780
v -22.211779 1.000000 2.926356
v -19.972046 1.000000 8.333551
v -17.015898 1.000000 11.595159
v -13.240251 1.000000 13.858193
v -8.970259 1.000000 14.927771
v -22.875607 0.000000 1.514362
v -22.653135 0.000000 3.014148
v -22.284733 0.000000 4.484898
v -21.773941 0.000000 5.912463
v -21.125687 0.000000 7.283081
v -20.346210 0.000000 8.583560
v -19.443014 0.000000 9.801379
v -18.424801 0.000000 10.924801
v -17.301378 0.000000 11.943016
v -16.083565 0.000000 12.846208
v -14.783079 0.000000 13.625688
v -13.412459 0.000000 14.273942
v -11.984902 0.000000 14.784730
v -10.514146 0.000000 15.153136
v -9.014366 0.000000 15.375607
v -7.500000 0.000000 15.450003
v -22.875607 1.000000 1.514362
v -22.653135 1.000000 3.014148
v -22.284733 1.000000 4.484898
v -21.773941 1.000000 5.912463
v -21.125687 1.000000 7.283081
v -20.346210 1.000000 8.583560
v -19.443014 1.000000 9.801379
v -18.424801 1.000000 10.924801
v -17.301378 1.000000 11.943016
v -16.083565 1.000000 12.846208
v -14.783079 1.000000 13.625688
v -13.412459 1.000000 14.273942
v -11.984902 1.000000 14.784730
v -10.514146 1.000000 15.153136
v -9.014366 1.000000 15.375607
vt 1.000000 0.905191
vt 0.844828 0.857786
vt 1.000000 0.857786
vt 1.000000 0.573359
vt 0.844828 0.525954
vt 1.000000 0.525954
vt 0.844828 0.810382
vt 1.000000 0.810382
vt 0.844828 0.478550
vt 1.000000 0.478550
vt 0.844828 0.762977
vt 1.000000 0.762977
vt 0.500000 0.241527
vt 0.844828 0.000000
vt 0.844828 0.241527
vt 0.844828 0.431145
vt 1.000000 0.431145
vt 0.844828 0.715572
vt 1.000000 0.715572
vt 0.844828 0.383740
vt 1.000000 0.383740
vt 0.844828 0.668168
vt 1.000000 0.668168
vt 0.844828 0.336336
vt 1.000000 0.336336
vt 1.000000 1.000000
vt 0.844828 0.952595
vt 1.000000 0.952595
vt 0.844828 0.620763
vt 1.000000 0.620763
vt 0.844828 0.288931
vt 1.000000 0.288931
vt 0.844828 0.905191
vt 0.844828 0.573359
vt 1.000000 0.241527
vt 0.500000 0.000000
vt 0.344828 0.241527
vt 0.344828 0.000000
vt 0.000000 0.241527
vt 0.000000 0.000000
vt 0.500000 0.857786
vt 0.344828 0.905191
vt 0.344828 0.857786
vt 0.500000 0.525954
vt 0.344828 0.573359
vt 0.344828 0.525954
vt 0.500000 0.810382
vt 0.344828 0.810382
vt 0.500000 0.478550
vt 0.344828 0.478550
vt 0.500000 0.762977
vt 0.344828 0.762977
vt 0.500000 0.431145
vt 0.344828 0.431145
vt 0.500000 0.715572
vt 0.344828 0.715572
vt 0.500000 0.383740
vt 0.344828 0.383740
vt 0.500000 0.668168
vt 0.344828 0.668168
vt 0.500000 0.336336
vt 0.344828 0.336336
vt 0.500000 0.952595
vt 0.344828 1.000000
vt 0.344828 0.952595
vt 0.500000 0.620763
vt 0.344828 0.620763
vt 0.500000 0.288931
vt 0.344828 0.288931
vt 0.500000 0.905191
vt 0.500000 0.573359
vt 0.844828 1.000000
vt 0.000000 0.857786
vt 0.000000 0.810382
vt 0.000000 0.762977
vt 0.000000 0.715572
vt 0.000000 0.668168
vt 0.000000 0.620763
vt 0.000000 0.573359
vt 0.000000 0.525954
vt 0.000000 0.478550
vt 0.000000 0.431145
vt 0.000000 0.383740
vt 0.000000 0.336336
vt 0.000000 1.000000
vt 0.000000 0.952595
vt 0.000000 0.288931
vt 0.000000 0.905191
vt 0.844828 0.857786
vt 1.000000 0.905191
vt 1.000000 0.857786
vt 0.844828 0.525954
vt 1.000000 0.573359
vt 1.000000 0.525954
vt 0.844828 0.810382
vt 1.000000 0.810382
vt 0.844828 0.478550
vt 1.000000 0.478550
vt 0.844828 0.762977
vt 1.000000 0.762977
vt 0.500000 0.241527
vt 0.844828 0.241527
vt 0.844828 0.431145
vt 1.000000 0.431145
vt 0.844828 0.715572
vt 1.000000 0.715572
vt 0.844828 0.383740
vt 1.000000 0.383740
vt 0.844828 0.668168
vt 1.000000 0.668168
vt 0.844828 0.336336
vt 1.000000 0.336336
vt 0.844828 0.952595
vt 1.000000 1.000000
vt 1.000000 0.952595
vt 0.844828 0.620763
vt 1.000000 0.620763
vt 0.844828 0.288931
vt 1.000000 0.288931
vt 0.844828 0.905191
vt 0.844828 0.573359
vt 1.000000 0.241527
vt 0.344828 0.241527
vt 0.000000 0.241527
vt 0.344828 0.905191
vt 0.500000 0.857786
vt 0.344828 0.857786
vt 0.344828 0.573359
vt 0.500000 0.525954
vt 0.344828 0.525954
vt 0.500000 0.810382
vt 0.344828 0.810382
vt 0.500000 0.478550
vt 0.344828 0.478550
vt 0.500000 0.762977
vt 0.344828 0.762977
vt 0.500000 0.431145
vt 0.344828 0.431145
vt 0.500000 0.715572
vt 0.344828 0.715572
vt 0.500000 0.383740
vt 0.344828 0.383740
vt 0.500000 0.668168
vt 0.344828 0.668168
vt 0.500000 0.336336
vt 0.344828 0.336336
vt 0.344828 1.000000
vt 0.500000 0.952595
vt 0.344828 0.952595
vt 0.500000 0.620763
vt 0.344828 0.620763
vt 0.500000 0.288931
vt 0.344828 0.288931
vt 0.500000 0.905191
vt 0.500000 0.573359
vt 0.844828 1.000000
vt 0.500000 1.000000
vt 0.000000 0.857786
vt 0.000000 0.810382
vt 0.000000 0.762977
vt 0.000000 0.715572
vt 0.000000 0.668168
vt 0.000000 0.620763
vt 0.000000 0.573359
vt 0.000000 0.525954
vt 0.000000 0.478550
vt 0.000000 0.431145
vt 0.000000 0.383740
vt 0.000000 0.336336
vt 0.000000 1.000000
vt 0.000000 0.952595
vt 0.000000 0.288931
vt 0.000000 0.905191
vt 0.844828 0.857786
vt 1.000000 0.905191
vt 1.000000 0.857786
vt 0.844828 0.525954
vt 1.000000 0.573359
vt 1.000000 0.525954
vt 0.844828 0.810382
vt 1.000000 0.810382
vt 0.844828 0.478550
vt 1.000000 0.478550
vt 0.844828 0.762977
vt 1.000000 0.762977
vt 0.844828 0.000000
vt 0.500000 0.241527
vt 0.844828 0.241527
vt 0.844828 0.431145
vt 1.000000 0.431145
vt 0.844828 0.715572
vt 1.000000 0.715572
vt 0.844828 0.383740
vt 1.000000 0.383740
vt 0.844828 0.668168
vt 1.000000 0.668168
vt 0.844828 0.336336
vt 1.000000 0.336336
vt 0.844828 0.952595
vt 1.000000 0.952595
vt 0.844828 0.620763
vt 1.000000 0.620763
vt 0.844828 0.288931
vt 1.000000 0.288931
vt 0.844828 0.905191
vt 0.844828 0.573359
vt 1.000000 0.241527
vt 0.344828 0.241527
vt 0.500000 0.000000
vt 0.344828 0.000000
vt 0.000000 0.241527
vt 0.000000 0.000000
vt 0.344828 0.905191
vt 0.500000 0.857786
vt 0.344828 0.857786
vt 0.344828 0.573359
vt 0.500000 0.525954
vt 0.344828 0.525954
vt 0.500000 0.810382
vt 0.344828 0.810382
vt 0.500000 0.478550
vt 0.344828 0.478550
vt 0.500000 0.762977
vt 0.344828 0.762977
vt 0.500000 0.431145
vt 0.344828 0.431145
vt 0.500000 0.715572
vt 0.344828 0.715572
vt 0.500000 0.383740
vt 0.344828 0.383740
vt 0.500000 0.668168
vt 0.344828 0.668168
vt 0.500000 0.336336
vt 0.344828 0.336336
vt 0.500000 0.952595
vt 0.344828 0.952595
vt 0.500000 0.620763
vt 0.344828 0.620763
vt 0.500000 0.288931
vt 0.344828 0.288931
vt 0.500000 0.905191
vt 0.500000 0.573359
vt 0.500000 1.000000
vt 0.000000 0.857786
vt 0.000000 0.810382
vt 0.000000 0.762977
vt 0.000000 0.715572
vt 0.000000 0.668168
vt 0.000000 0.620763
vt 0.000000 0.573359
vt 0.000000 0.525954
vt 0.000000 0.478550
vt 0.000000 0.431145
vt 0.000000 0.383740
vt 0.000000 0.336336
vt 0.000000 0.952595
vt 0.000000 0.288931
vt 0.000000 0.905191
vt 1.000000 0.905191
vt 0.844828 0.857786
vt 1.000000 0.857786
vt 1.000000 0.573359
vt 0.844828 0.525954
vt 1.000000 0.525954
vt 0.844828 0.810382
vt 1.000000 0.810382
vt 0.844828 0.478550
vt 1.000000 0.478550
vt 0.844828 0.762977
vt 1.000000 0.762977
vt 0.500000 0.241527
vt 0.844828 0.241527
vt 0.844828 0.431145
vt 1.000000 0.431145
vt 0.844828 0.715572
vt 1.000000 0.715572
vt 0.844828 0.383740
vt 1.000000 0.383740
vt 0.844828 0.668168
vt 1.000000 0.668168
vt 0.844828 0.336336
vt 1.000000 0.336336
vt 0.844828 0.952595
vt 1.000000 0.952595
vt 0.844828 0.620763
vt 1.000000 0.620763
vt 0.844828 0.288931
vt 1.000000 0.288931
vt 0.844828 0.905191
vt 0.844828 0.573359
vt 1.000000 0.241527
vt 0.344828 0.241527
vt 0.000000 0.241527
vt 0.500000 0.857786
vt 0.344828 0.905191
vt 0.344828 0.857786
vt 0.500000 0.525954
vt 0.344828 0.573359
vt 0.344828 0.525954
vt 0.500000 0.810382
vt 0.344828 0.810382
vt 0.500000 0.478550
vt 0.344828 0.478550
vt 0.500000 0.762977
vt 0.344828 0.762977
vt 0.500000 0.431145
vt 0.344828 0.431145
vt 0.500000 0.715572
vt 0.344828 0.715572
vt 0.500000 0.383740
vt 0.344828 0.383740
vt 0.500000 0.668168
vt 0.344828 0.668168
vt 0.500000 0.336336
vt 0.344828 0.336336
vt 0.500000 0.952595
vt 0.344828 0.952595
vt 0.500000 0.620763
vt 0.344828 0.620763
vt 0.500000 0.288931
vt 0.344828 0.288931
vt 0.500000 0.905191
vt 0.500000 0.573359
vt 0.000000 0.857786
vt 0.000000 0.810382
vt 0.000000 0.762977
vt 0.000000 0.715572
vt 0.000000 0.668168
vt 0.000000 0.620763
vt 0.000000 0.573359
vt 0.000000 0.525954
vt 0.000000 0.478550
vt 0.000000 0.431145
vt 0.000000 0.383740
vt 0.000000 0.336336
vt 0.000000 0.952595
vt 0.000000 0.288931
vt 0.000000 0.905191
vt 1.000000 0.000000
vt 1.000000 0.000000
vn -0.9808 0.0000 0.1951
vn -0.9569 0.0000 0.2903
vn -0.6344 0.0000 0.7730
vn -0.5556 0.0000 0.8315
vn -0.9239 0.0000 0.3827
vn -0.4714 0.0000 0.8819
vn -0.8819 0.0000 0.4714
vn 0.0000 1.0000 0.0000
vn -0.3827 0.0000 0.9239
vn -0.8315 0.0000 0.5556
vn -0.2903 0.0000 0.9569
vn -0.7730 0.0000 0.6344
vn -0.1951 0.0000 0.9808
vn -1.0000 0.0000 0.0000
vn -0.9952 0.0000 0.0980
vn -0.7071 0.0000 0.7071
vn -0.0980 0.0000 0.9952
vn -0.0245 0.0000 0.9997
vn 0.0000 0.0000 -1.0000
vn 0.0245 0.0000 -0.9997
vn 0.0000 -1.0000 0.0000
vn 0.0000 0.0000 1.0000
vn 0.9569 0.0000 -0.2903
vn 0.9808 0.0000 -0.1951
vn 0.5556 0.0000 -0.8315
vn 0.6344 0.0000 -0.7730
vn 0.9239 0.0000 -0.3827
vn 0.4714 0.0000 -0.8819
vn 0.8819 0.0000 -0.4714
vn 0.3827 0.0000 -0.9239
vn 0.8315 0.0000 -0.5556
vn 0.2903 0.0000 -0.9569
vn 0.7730 0.0000 -0.6344
vn 0.1951 0.0000 -0.9808
vn 0.9952 0.0000 -0.0980
vn 1.0000 0.0000 0.0000
vn 0.7071 0.0000 -0.7071
vn 0.0980 0.0000 -0.9952
vn 0.9569 0.0000 0.2903
vn 0.9808 0.0000 0.1951
vn 0.5556 0.0000 0.8315
vn 0.6344 0.0000 0.7730
vn 0.9239 0.0000 0.3827
vn 0.4714 0.0000 0.8819
vn 0.8819 0.0000 0.4714
vn 0.3827 0.0000 0.9239
vn 0.8315 0.0000 0.5556
vn 0.2903 0.0000 0.9569
vn 0.7730 0.0000 0.6344
vn 0.1951 0.0000 0.9808
vn 0.9952 0.0000 0.0980
vn 0.7071 0.0000 0.7071
vn 0.0980 0.0000 0.9952
vn 0.0245 0.0000 0.9997
vn -0.0245 0.0000 -0.9997
vn -0.9808 0.0000 -0.1951
vn -0.9569 0.0000 -0.2903
vn -0.6344 0.0000 -0.7730
vn -0.5556 0.0000 -0.8315
vn -0.9239 0.0000 -0.3827
vn -0.4714 0.0000 -0.8819
vn -0.8819 0.0000 -0.4714
vn -0.3827 0.0000 -0.9239
vn -0.8315 0.0000 -0.5556
vn -0.2903 0.0000 -0.9569
vn -0.7730 0.0000 -0.6344
vn -0.1951 0.0000 -0.9808
vn -0.9952 0.0000 -0.0980
vn -0.7071 0.0000 -0.7071
vn -0.0980 0.0000 -0.9952
usemtl None
s 1
f 27/1/1 13/2/2 28/3/2
f 5/4/3 18/5/4 6/6/4
f 28/3/2 14/7/5 29/8/5
f 6/6/4 19/9/6 7/10/6
f 29/8/5 15/11/7 30/12/7
f 24/13/8 22/14/8 10/15/8
f 7/10/6 38/16/9 32/17/9
f 30/12/7 36/18/10 3/19/10
f 32/17/9 20/20/11 33/21/11
f 3/19/10 16/22/12 31/23/12
f 33/21/11 21/24/13 34/25/13
f 2/26/14 12/27/15 26/28/15
f 31/23/12 17/29/16 4/30/16
f 34/25/13 39/31/17 8/32/17
f 26/28/15 35/33/1 27/1/1
f 4/30/16 37/34/3 5/4/3
f 8/32/17 10/15/18 1/35/18
f 25/36/19 56/37/20 23/38/19
f 23/38/21 1/39/21 9/40/21
f 22/14/22 1/35/18 10/15/18
f 60/41/23 42/42/24 43/43/23
f 67/44/25 49/45/26 50/46/25
f 61/47/27 43/43/23 44/48/27
f 68/49/28 50/46/25 51/50/28
f 62/51/29 44/48/27 45/52/29
f 69/53/30 51/50/28 52/54/30
f 63/55/31 45/52/29 46/56/31
f 70/57/32 52/54/30 53/58/32
f 64/59/33 46/56/31 47/60/33
f 71/61/34 53/58/32 54/62/34
f 57/63/35 41/64/36 40/65/35
f 65/66/37 47/60/33 48/67/37
f 72/68/38 54/62/34 55/69/38
f 59/70/24 40/65/35 42/42/24
f 66/71/26 48/67/37 49/45/26
f 24/13/20 55/69/38 56/37/20
f 11/72/8 57/63/8 12/27/8
f 44/48/21 28/73/21 29/74/21
f 71/61/8 39/31/8 21/24/8
f 57/63/8 35/33/8 12/27/8
f 30/75/21 44/48/21 29/74/21
f 72/68/8 10/15/8 39/31/8
f 59/70/8 13/2/8 35/33/8
f 3/76/21 45/52/21 30/75/21
f 13/2/8 61/47/8 14/7/8
f 47/60/21 3/76/21 31/77/21
f 61/47/8 15/11/8 14/7/8
f 48/67/21 31/77/21 4/78/21
f 62/51/8 36/18/8 15/11/8
f 5/79/21 48/67/21 4/78/21
f 36/18/8 64/59/8 16/22/8
f 50/46/21 5/79/21 6/80/21
f 16/22/8 65/66/8 17/29/8
f 51/50/21 6/80/21 7/81/21
f 65/66/8 37/34/8 17/29/8
f 52/54/21 7/81/21 32/82/21
f 37/34/8 67/44/8 18/5/8
f 33/83/21 52/54/21 32/82/21
f 18/5/8 68/49/8 19/9/8
f 34/84/21 53/58/21 33/83/21
f 40/65/21 2/85/21 26/86/21
f 19/9/8 69/53/8 38/16/8
f 55/69/21 34/84/21 8/87/21
f 27/88/21 40/65/21 26/86/21
f 38/16/8 70/57/8 20/20/8
f 56/37/21 8/87/21 1/39/21
f 28/73/21 42/42/21 27/88/21
f 70/57/8 21/24/8 20/20/8
f 84/89/39 95/90/40 96/91/39
f 89/92/41 77/93/42 78/94/41
f 85/95/43 96/91/39 97/96/43
f 90/97/44 78/94/41 79/98/44
f 86/99/45 97/96/43 98/100/45
f 22/14/8 93/101/8 81/102/8
f 106/103/46 79/98/44 100/104/46
f 104/105/47 98/100/45 75/106/47
f 91/107/48 100/104/46 101/108/48
f 87/109/49 75/106/47 99/110/49
f 92/111/50 101/108/48 102/112/50
f 83/113/51 74/114/36 94/115/51
f 88/116/52 99/110/49 76/117/52
f 107/118/53 102/112/50 80/119/53
f 103/120/40 94/115/51 95/90/40
f 105/121/42 76/117/52 77/93/42
f 81/102/54 80/119/53 73/122/54
f 124/123/55 25/36/19 23/38/19
f 73/124/21 23/38/21 9/40/21
f 73/122/54 22/14/22 81/102/54
f 110/125/56 128/126/57 111/127/57
f 117/128/58 135/129/59 118/130/59
f 111/127/57 129/131/60 112/132/60
f 118/130/59 136/133/61 119/134/61
f 112/132/60 130/135/62 113/136/62
f 119/134/61 137/137/63 120/138/63
f 113/136/62 131/139/64 114/140/64
f 120/138/63 138/141/65 121/142/65
f 114/140/64 132/143/66 115/144/66
f 121/142/65 139/145/67 122/146/67
f 109/147/14 125/148/68 108/149/68
f 115/144/66 133/150/69 116/151/69
f 122/146/67 140/152/70 123/153/70
f 108/149/68 127/154/56 110/125/56
f 116/151/69 134/155/58 117/128/58
f 123/153/70 93/101/55 124/123/55
f 82/156/8 125/148/8 126/157/8
f 96/158/21 112/132/21 97/159/21
f 107/118/8 139/145/8 92/111/8
f 103/120/8 125/148/8 83/113/8
f 98/160/21 112/132/21 113/136/21
f 107/118/8 93/101/8 140/152/8
f 84/89/8 127/154/8 103/120/8
f 75/161/21 113/136/21 114/140/21
f 84/89/8 129/131/8 128/126/8
f 75/161/21 115/144/21 99/162/21
f 86/99/8 129/131/8 85/95/8
f 99/162/21 116/151/21 76/163/21
f 104/105/8 130/135/8 86/99/8
f 77/164/21 116/151/21 117/128/21
f 87/109/8 131/139/8 104/105/8
f 77/164/21 118/130/21 78/165/21
f 87/109/8 133/150/8 132/143/8
f 78/165/21 119/134/21 79/166/21
f 105/121/8 133/150/8 88/116/8
f 79/166/21 120/138/21 100/167/21
f 105/121/8 135/129/8 134/155/8
f 100/167/21 121/142/21 101/168/21
f 89/92/8 136/133/8 135/129/8
f 102/169/21 121/142/21 122/146/21
f 74/170/21 108/149/21 94/171/21
f 90/97/8 137/137/8 136/133/8
f 102/169/21 123/153/21 80/172/21
f 95/173/21 108/149/21 110/125/21
f 91/107/8 137/137/8 106/103/8
f 80/172/21 124/123/21 73/124/21
f 96/158/21 110/125/21 111/127/21
f 92/111/8 138/141/8 91/107/8
f 151/174/57 165/175/56 166/176/57
f 156/177/59 144/178/58 145/179/59
f 152/180/60 166/176/57 167/181/60
f 157/182/61 145/179/59 146/183/61
f 153/184/62 167/181/60 168/185/62
f 160/186/8 162/187/8 149/188/8
f 176/189/63 146/183/61 170/190/63
f 174/191/64 168/185/62 142/192/64
f 158/193/65 170/190/63 171/194/65
f 154/195/66 142/192/64 169/196/66
f 159/197/67 171/194/65 172/198/67
f 150/199/68 2/26/14 164/200/68
f 155/201/69 169/196/66 143/202/69
f 177/203/70 172/198/67 147/204/70
f 173/205/56 164/200/68 165/175/56
f 175/206/58 143/202/69 144/178/58
f 149/188/55 147/204/70 141/207/55
f 193/208/54 163/209/22 161/210/22
f 141/211/21 161/210/21 148/212/21
f 141/207/55 160/186/19 149/188/55
f 179/213/40 196/214/39 180/215/39
f 186/216/42 203/217/41 187/218/41
f 180/215/39 197/219/43 181/220/43
f 187/218/41 204/221/44 188/222/44
f 181/220/43 198/223/45 182/224/45
f 188/222/44 205/225/46 189/226/46
f 182/224/45 199/227/47 183/228/47
f 189/226/46 206/229/48 190/230/48
f 183/228/47 200/231/49 184/232/49
f 190/230/48 207/233/50 191/234/50
f 41/64/36 194/235/51 178/236/51
f 184/232/49 201/237/52 185/238/52
f 191/234/50 208/239/53 192/240/53
f 178/236/51 195/241/40 179/213/40
f 185/238/52 202/242/42 186/216/42
f 192/240/53 162/187/54 193/208/54
f 11/72/8 194/235/8 58/243/8
f 166/244/21 181/220/21 167/245/21
f 177/203/8 207/233/8 159/197/8
f 173/205/8 194/235/8 150/199/8
f 168/246/21 181/220/21 182/224/21
f 177/203/8 162/187/8 208/239/8
f 151/174/8 195/241/8 173/205/8
f 142/247/21 182/224/21 183/228/21
f 151/174/8 197/219/8 196/214/8
f 142/247/21 184/232/21 169/248/21
f 153/184/8 197/219/8 152/180/8
f 169/248/21 185/238/21 143/249/21
f 174/191/8 198/223/8 153/184/8
f 144/250/21 185/238/21 186/216/21
f 154/195/8 199/227/8 174/191/8
f 144/250/21 187/218/21 145/251/21
f 154/195/8 201/237/8 200/231/8
f 145/251/21 188/222/21 146/252/21
f 175/206/8 201/237/8 155/201/8
f 146/252/21 189/226/21 170/253/21
f 175/206/8 203/217/8 202/242/8
f 170/253/21 190/230/21 171/254/21
f 156/177/8 204/221/8 203/217/8
f 172/255/21 190/230/21 191/234/21
f 2/85/21 178/236/21 164/256/21
f 157/182/8 205/225/8 204/221/8
f 172/255/21 192/240/21 147/257/21
f 165/258/21 178/236/21 179/213/21
f 158/193/8 205/225/8 176/189/8
f 147/257/21 193/208/21 141/211/21
f 166/244/21 179/213/21 180/215/21
f 159/197/8 206/229/8 158/193/8
f 229/259/24 218/260/23 230/261/23
f 212/262/26 223/263/25 213/264/25
f 230/261/23 219/265/27 231/266/27
f 213/264/25 224/267/28 214/268/28
f 231/266/27 220/269/29 232/270/29
f 227/271/8 160/186/8 216/272/8
f 214/268/28 240/273/30 234/274/30
f 232/270/29 238/275/31 210/276/31
f 234/274/30 225/277/32 235/278/32
f 210/276/31 221/279/33 233/280/33
f 235/278/32 226/281/34 236/282/34
f 74/114/36 217/283/35 228/284/35
f 233/280/33 222/285/37 211/286/37
f 236/282/34 241/287/38 215/288/38
f 228/284/35 237/289/24 229/259/24
f 211/286/37 239/290/26 212/262/26
f 215/288/38 216/272/20 209/291/20
f 163/209/22 257/292/18 161/210/22
f 161/210/21 209/293/21 148/212/21
f 160/186/19 209/291/20 216/272/20
f 260/294/2 243/295/1 244/296/2
f 267/297/4 250/298/3 251/299/4
f 261/300/5 244/296/2 245/301/5
f 268/302/6 251/299/4 252/303/6
f 262/304/7 245/301/5 246/305/7
f 269/306/9 252/303/6 253/307/9
f 263/308/10 246/305/7 247/309/10
f 270/310/11 253/307/9 254/311/11
f 264/312/12 247/309/10 248/313/12
f 271/314/13 254/311/11 255/315/13
f 258/316/15 109/147/14 242/317/15
f 265/318/16 248/313/12 249/319/16
f 272/320/17 255/315/13 256/321/17
f 259/322/1 242/317/15 243/295/1
f 266/323/3 249/319/16 250/298/3
f 227/271/18 256/321/17 257/292/18
f 82/156/8 258/316/8 217/283/8
f 245/301/21 230/324/21 231/325/21
f 271/314/8 241/287/8 226/281/8
f 258/316/8 237/289/8 217/283/8
f 232/326/21 245/301/21 231/325/21
f 272/320/8 216/272/8 241/287/8
f 259/322/8 218/260/8 237/289/8
f 210/327/21 246/305/21 232/326/21
f 218/260/8 261/300/8 219/265/8
f 248/313/21 210/327/21 233/328/21
f 261/300/8 220/269/8 219/265/8
f 249/319/21 233/328/21 211/329/21
f 262/304/8 238/275/8 220/269/8
f 212/330/21 249/319/21 211/329/21
f 238/275/8 264/312/8 221/279/8
f 251/299/21 212/330/21 213/331/21
f 221/279/8 265/318/8 222/285/8
f 252/303/21 213/331/21 214/332/21
f 265/318/8 239/290/8 222/285/8
f 253/307/21 214/332/21 234/333/21
f 239/290/8 267/297/8 223/263/8
f 235/334/21 253/307/21 234/333/21
f 223/263/8 268/302/8 224/267/8
f 236/335/21 254/311/21 235/334/21
f 242/317/21 74/170/21 228/336/21
f 224/267/8 269/306/8 240/273/8
f 256/321/21 236/335/21 215/337/21
f 229/338/21 242/317/21 228/336/21
f 240/273/8 270/310/8 225/277/8
f 257/292/21 215/337/21 209/293/21
f 230/324/21 243/295/21 229/338/21
f 270/310/8 226/281/8 225/277/8
f 27/1/1 35/33/1 13/2/2
f 5/4/3 37/34/3 18/5/4
f 28/3/2 13/2/2 14/7/5
f 6/6/4 18/5/4 19/9/6
f 29/8/5 14/7/5 15/11/7
f 24/13/8 25/36/8 22/14/8
f 7/10/6 19/9/6 38/16/9
f 30/12/7 15/11/7 36/18/10
f 32/17/9 38/16/9 20/20/11
f 3/19/10 36/18/10 16/22/12
f 33/21/11 20/20/11 21/24/13
f 2/26/14 11/72/14 12/27/15
f 31/23/12 16/22/12 17/29/16
f 34/25/13 21/24/13 39/31/17
f 26/28/15 12/27/15 35/33/1
f 4/30/16 17/29/16 37/34/3
f 8/32/17 39/31/17 10/15/18
f 25/36/19 24/13/20 56/37/20
f 23/38/21 56/37/21 1/39/21
f 22/14/22 9/339/22 1/35/18
f 60/41/23 59/70/24 42/42/24
f 67/44/25 66/71/26 49/45/26
f 61/47/27 60/41/23 43/43/23
f 68/49/28 67/44/25 50/46/25
f 62/51/29 61/47/27 44/48/27
f 69/53/30 68/49/28 51/50/28
f 63/55/31 62/51/29 45/52/29
f 70/57/32 69/53/30 52/54/30
f 64/59/33 63/55/31 46/56/31
f 71/61/34 70/57/32 53/58/32
f 57/63/35 58/243/36 41/64/36
f 65/66/37 64/59/33 47/60/33
f 72/68/38 71/61/34 54/62/34
f 59/70/24 57/63/35 40/65/35
f 66/71/26 65/66/37 48/67/37
f 24/13/20 72/68/38 55/69/38
f 11/72/8 58/243/8 57/63/8
f 44/48/21 43/43/21 28/73/21
f 71/61/8 72/68/8 39/31/8
f 57/63/8 59/70/8 35/33/8
f 30/75/21 45/52/21 44/48/21
f 72/68/8 24/13/8 10/15/8
f 59/70/8 60/41/8 13/2/8
f 3/76/21 46/56/21 45/52/21
f 13/2/8 60/41/8 61/47/8
f 47/60/21 46/56/21 3/76/21
f 61/47/8 62/51/8 15/11/8
f 48/67/21 47/60/21 31/77/21
f 62/51/8 63/55/8 36/18/8
f 5/79/21 49/45/21 48/67/21
f 36/18/8 63/55/8 64/59/8
f 50/46/21 49/45/21 5/79/21
f 16/22/8 64/59/8 65/66/8
f 51/50/21 50/46/21 6/80/21
f 65/66/8 66/71/8 37/34/8
f 52/54/21 51/50/21 7/81/21
f 37/34/8 66/71/8 67/44/8
f 33/83/21 53/58/21 52/54/21
f 18/5/8 67/44/8 68/49/8
f 34/84/21 54/62/21 53/58/21
f 40/65/21 41/64/21 2/85/21
f 19/9/8 68/49/8 69/53/8
f 55/69/21 54/62/21 34/84/21
f 27/88/21 42/42/21 40/65/21
f 38/16/8 69/53/8 70/57/8
f 56/37/21 55/69/21 8/87/21
f 28/73/21 43/43/21 42/42/21
f 70/57/8 71/61/8 21/24/8
f 84/89/39 103/120/40 95/90/40
f 89/92/41 105/121/42 77/93/42
f 85/95/43 84/89/39 96/91/39
f 90/97/44 89/92/41 78/94/41
f 86/99/45 85/95/43 97/96/43
f 22/14/8 25/36/8 93/101/8
f 106/103/46 90/97/44 79/98/44
f 104/105/47 86/99/45 98/100/45
f 91/107/48 106/103/46 100/104/46
f 87/109/49 104/105/47 75/106/47
f 92/111/50 91/107/48 101/108/48
f 83/113/51 82/156/36 74/114/36
f 88/116/52 87/109/49 99/110/49
f 107/118/53 92/111/50 102/112/50
f 103/120/40 83/113/51 94/115/51
f 105/121/42 88/116/52 76/117/52
f 81/102/54 107/118/53 80/119/53
f 124/123/55 93/101/55 25/36/19
f 73/124/21 124/123/21 23/38/21
f 73/122/54 9/339/22 22/14/22
f 110/125/56 127/154/56 128/126/57
f 117/128/58 134/155/58 135/129/59
f 111/127/57 128/126/57 129/131/60
f 118/130/59 135/129/59 136/133/61
f 112/132/60 129/131/60 130/135/62
f 119/134/61 136/133/61 137/137/63
f 113/136/62 130/135/62 131/139/64
f 120/138/63 137/137/63 138/141/65
f 114/140/64 131/139/64 132/143/66
f 121/142/65 138/141/65 139/145/67
f 109/147/14 126/157/14 125/148/68
f 115/144/66 132/143/66 133/150/69
f 122/146/67 139/145/67 140/152/70
f 108/149/68 125/148/68 127/154/56
f 116/151/69 133/150/69 134/155/58
f 123/153/70 140/152/70 93/101/55
f 82/156/8 83/113/8 125/148/8
f 96/158/21 111/127/21 112/132/21
f 107/118/8 140/152/8 139/145/8
f 103/120/8 127/154/8 125/148/8
f 98/160/21 97/159/21 112/132/21
f 107/118/8 81/102/8 93/101/8
f 84/89/8 128/126/8 127/154/8
f 75/161/21 98/160/21 113/136/21
f 84/89/8 85/95/8 129/131/8
f 75/161/21 114/140/21 115/144/21
f 86/99/8 130/135/8 129/131/8
f 99/162/21 115/144/21 116/151/21
f 104/105/8 131/139/8 130/135/8
f 77/164/21 76/163/21 116/151/21
f 87/109/8 132/143/8 131/139/8
f 77/164/21 117/128/21 118/130/21
f 87/109/8 88/116/8 133/150/8
f 78/165/21 118/130/21 119/134/21
f 105/121/8 134/155/8 133/150/8
f 79/166/21 119/134/21 120/138/21
f 105/121/8 89/92/8 135/129/8
f 100/167/21 120/138/21 121/142/21
f 89/92/8 90/97/8 136/133/8
f 102/169/21 101/168/21 121/142/21
f 74/170/21 109/147/21 108/149/21
f 90/97/8 106/103/8 137/137/8
f 102/169/21 122/146/21 123/153/21
f 95/173/21 94/171/21 108/149/21
f 91/107/8 138/141/8 137/137/8
f 80/172/21 123/153/21 124/123/21
f 96/158/21 95/173/21 110/125/21
f 92/111/8 139/145/8 138/141/8
f 151/174/57 173/205/56 165/175/56
f 156/177/59 175/206/58 144/178/58
f 152/180/60 151/174/57 166/176/57
f 157/182/61 156/177/59 145/179/59
f 153/184/62 152/180/60 167/181/60
f 160/186/8 163/209/8 162/187/8
f 176/189/63 157/182/61 146/183/61
f 174/191/64 153/184/62 168/185/62
f 158/193/65 176/189/63 170/190/63
f 154/195/66 174/191/64 142/192/64
f 159/197/67 158/193/65 171/194/65
f 150/199/68 11/72/14 2/26/14
f 155/201/69 154/195/66 169/196/66
f 177/203/70 159/197/67 172/198/67
f 173/205/56 150/199/68 164/200/68
f 175/206/58 155/201/69 143/202/69
f 149/188/55 177/203/70 147/204/70
f 193/208/54 162/187/54 163/209/22
f 141/211/21 193/208/21 161/210/21
f 141/207/55 148/340/19 160/186/19
f 179/213/40 195/241/40 196/214/39
f 186/216/42 202/242/42 203/217/41
f 180/215/39 196/214/39 197/219/43
f 187/218/41 203/217/41 204/221/44
f 181/220/43 197/219/43 198/223/45
f 188/222/44 204/221/44 205/225/46
f 182/224/45 198/223/45 199/227/47
f 189/226/46 205/225/46 206/229/48
f 183/228/47 199/227/47 200/231/49
f 190/230/48 206/229/48 207/233/50
f 41/64/36 58/243/36 194/235/51
f 184/232/49 200/231/49 201/237/52
f 191/234/50 207/233/50 208/239/53
f 178/236/51 194/235/51 195/241/40
f 185/238/52 201/237/52 202/242/42
f 192/240/53 208/239/53 162/187/54
f 11/72/8 150/199/8 194/235/8
f 166/244/21 180/215/21 181/220/21
f 177/203/8 208/239/8 207/233/8
f 173/205/8 195/241/8 194/235/8
f 168/246/21 167/245/21 181/220/21
f 177/203/8 149/188/8 162/187/8
f 151/174/8 196/214/8 195/241/8
f 142/247/21 168/246/21 182/224/21
f 151/174/8 152/180/8 197/219/8
f 142/247/21 183/228/21 184/232/21
f 153/184/8 198/223/8 197/219/8
f 169/248/21 184/232/21 185/238/21
f 174/191/8 199/227/8 198/223/8
f 144/250/21 143/249/21 185/238/21
f 154/195/8 200/231/8 199/227/8
f 144/250/21 186/216/21 187/218/21
f 154/195/8 155/201/8 201/237/8
f 145/251/21 187/218/21 188/222/21
f 175/206/8 202/242/8 201/237/8
f 146/252/21 188/222/21 189/226/21
f 175/206/8 156/177/8 203/217/8
f 170/253/21 189/226/21 190/230/21
f 156/177/8 157/182/8 204/221/8
f 172/255/21 171/254/21 190/230/21
f 2/85/21 41/64/21 178/236/21
f 157/182/8 176/189/8 205/225/8
f 172/255/21 191/234/21 192/240/21
f 165/258/21 164/256/21 178/236/21
f 158/193/8 206/229/8 205/225/8
f 147/257/21 192/240/21 193/208/21
f 166/244/21 165/258/21 179/213/21
f 159/197/8 207/233/8 206/229/8
f 229/259/24 237/289/24 218/260/23
f 212/262/26 239/290/26 223/263/25
f 230/261/23 218/260/23 219/265/27
f 213/264/25 223/263/25 224/267/28
f 231/266/27 219/265/27 220/269/29
f 227/271/8 163/209/8 160/186/8
f 214/268/28 224/267/28 240/273/30
f 232/270/29 220/269/29 238/275/31
f 234/274/30 240/273/30 225/277/32
f 210/276/31 238/275/31 221/279/33
f 235/278/32 225/277/32 226/281/34
f 74/114/36 82/156/36 217/283/35
f 233/280/33 221/279/33 222/285/37
f 236/282/34 226/281/34 241/287/38
f 228/284/35 217/283/35 237/289/24
f 211/286/37 222/285/37 239/290/26
f 215/288/38 241/287/38 216/272/20
f 163/209/22 227/271/18 257/292/18
f 161/210/21 257/292/21 209/293/21
f 160/186/19 148/340/19 209/291/20
f 260/294/2 259/322/1 243/295/1
f 267/297/4 266/323/3 250/298/3
f 261/300/5 260/294/2 244/296/2
f 268/302/6 267/297/4 251/299/4
f 262/304/7 261/300/5 245/301/5
f 269/306/9 268/302/6 252/303/6
f 263/308/10 262/304/7 246/305/7
f 270/310/11 269/306/9 253/307/9
f 264/312/12 263/308/10 247/309/10
f 271/314/13 270/310/11 254/311/11
f 258/316/15 126/157/14 109/147/14
f 265/318/16 264/312/12 248/313/12
f 272/320/17 271/314/13 255/315/13
f 259/322/1 258/316/15 242/317/15
f 266/323/3 265/318/16 249/319/16
f 227/271/18 272/320/17 256/321/17
f 82/156/8 126/157/8 258/316/8
f 245/301/21 244/296/21 230/324/21
f 271/314/8 272/320/8 241/287/8
f 258/316/8 259/322/8 237/289/8
f 232/326/21 246/305/21 245/301/21
f 272/320/8 227/271/8 216/272/8
f 259/322/8 260/294/8 218/260/8
f 210/327/21 247/309/21 246/305/21
f 218/260/8 260/294/8 261/300/8
f 248/313/21 247/309/21 210/327/21
f 261/300/8 262/304/8 220/269/8
f 249/319/21 248/313/21 233/328/21
f 262/304/8 263/308/8 238/275/8
f 212/330/21 250/298/21 249/319/21
f 238/275/8 263/308/8 264/312/8
f 251/299/21 250/298/21 212/330/21
f 221/279/8 264/312/8 265/318/8
f 252/303/21 251/299/21 213/331/21
f 265/318/8 266/323/8 239/290/8
f 253/307/21 252/303/21 214/332/21
f 239/290/8 266/323/8 267/297/8
f 235/334/21 254/311/21 253/307/21
f 223/263/8 267/297/8 268/302/8
f 236/335/21 255/315/21 254/311/21
f 242/317/21 109/147/21 74/170/21
f 224/267/8 268/302/8 269/306/8
f 256/321/21 255/315/21 236/335/21
f 229/338/21 243/295/21 242/317/21
f 240/273/8 269/306/8 270/310/8
f 257/292/21 256/321/21 215/337/21
f 230/324/21 244/296/21 243/295/21
f 270/310/8 271/314/8 226/281/8
