# Blender v3.0.0 OBJ File: 'capsule-shape-arena.blend'
# www.blender.org
mtllib capsule-shape-arena-floor.mtl
o arena-floor_Circle.001
v 7.500000 0.000000 0.000000
v 7.500000 0.000000 -15.000000
v 22.500000 0.000000 0.000000
v 19.972046 0.000000 -8.333551
v 18.106602 0.000000 -10.606601
v 17.015898 0.000000 -11.595159
v 15.833555 0.000000 -12.472044
v 14.570949 0.000000 -13.228820
v 8.970259 0.000000 -14.927771
v 0.000000 0.000000 0.000000
v 0.000000 0.000000 -15.000000
v 22.427771 0.000000 -1.470254
v 22.211779 0.000000 -2.926356
v 21.854107 0.000000 -4.354269
v 21.358191 0.000000 -5.740254
v 20.728819 0.000000 -7.070951
v 19.095158 0.000000 -9.515900
v 13.240251 0.000000 -13.858193
v 11.854273 0.000000 -14.354104
v 10.426354 0.000000 -14.711780
v -7.500000 0.000000 0.000000
v -7.500000 0.000000 -15.000000
v -22.500000 0.000000 0.000000
v -19.972046 0.000000 -8.333551
v -18.106602 0.000000 -10.606601
v -17.015898 0.000000 -11.595159
v -15.833555 0.000000 -12.472044
v -14.570949 0.000000 -13.228820
v -8.970259 0.000000 -14.927771
v -22.427771 0.000000 -1.470254
v -22.211779 0.000000 -2.926356
v -21.854107 0.000000 -4.354269
v -21.358191 0.000000 -5.740254
v -20.728819 0.000000 -7.070951
v -19.095158 0.000000 -9.515900
v -13.240251 0.000000 -13.858193
v -11.854273 0.000000 -14.354104
v -10.426354 0.000000 -14.711780
v 7.500000 0.000000 15.000000
v 19.972046 0.000000 8.333551
v 18.106602 0.000000 10.606601
v 17.015898 0.000000 11.595159
v 15.833555 0.000000 12.472044
v 14.570949 0.000000 13.228820
v 8.970259 0.000000 14.927771
v 0.000000 0.000000 15.000000
v 22.427771 0.000000 1.470254
v 22.211779 0.000000 2.926356
v 21.854107 0.000000 4.354269
v 21.358191 0.000000 5.740254
v 20.728819 0.000000 7.070951
v 19.095158 0.000000 9.515900
v 13.240251 0.000000 13.858193
v 11.854273 0.000000 14.354104
v 10.426354 0.000000 14.711780
v -7.500000 0.000000 15.000000
v -19.972046 0.000000 8.333551
v -18.106602 0.000000 10.606601
v -17.015898 0.000000 11.595159
v -15.833555 0.000000 12.472044
v -14.570949 0.000000 13.228820
v -8.970259 0.000000 14.927771
v -22.427771 0.000000 1.470254
v -22.211779 0.000000 2.926356
v -21.854107 0.000000 4.354269
v -21.358191 0.000000 5.740254
v -20.728819 0.000000 7.070951
v -19.095158 0.000000 9.515900
v -13.240251 0.000000 13.858193
v -11.854273 0.000000 14.354104
v -10.426354 0.000000 14.711780
vt 1.000000 0.500000
vt 0.999990 1.500000
vt 0.901973 1.495184
vt 0.804901 1.480784
vt 0.709709 1.456938
vt 0.617311 1.423877
vt 0.528599 1.381919
vt 0.444426 1.331467
vt 0.365604 1.273008
vt 0.292891 1.207105
vt 0.226988 1.134391
vt 0.168529 1.055569
vt 0.118078 0.971396
vt 0.076120 0.882683
vt 0.043060 0.790285
vt 0.019215 0.695090
vt 0.004815 0.598017
vt 0.000000 0.500000
vt 1.000000 0.000000
vt 1.000000 0.500000
vt 0.901973 -0.495184
vt 0.999990 -0.500000
vt 0.804901 -0.480784
vt 0.709709 -0.456938
vt 0.617311 -0.423877
vt 0.528599 -0.381919
vt 0.444426 -0.331467
vt 0.365604 -0.273008
vt 0.292891 -0.207105
vt 0.226988 -0.134391
vt 0.168529 -0.055569
vt 0.118078 0.028604
vt 0.076120 0.117317
vt 0.043060 0.209715
vt 0.019215 0.304910
vt 0.004815 0.401983
vt 0.000000 0.500000
vt 1.000000 1.000000
vt 0.000000 0.500000
vt 0.098027 1.495184
vt 0.000010 1.500000
vt 0.195099 1.480784
vt 0.290291 1.456938
vt 0.382689 1.423877
vt 0.471401 1.381919
vt 0.555574 1.331467
vt 0.634396 1.273008
vt 0.707109 1.207105
vt 0.773012 1.134391
vt 0.831471 1.055569
vt 0.881922 0.971396
vt 0.923880 0.882683
vt 0.956940 0.790285
vt 0.980785 0.695090
vt 0.995185 0.598017
vt 1.000000 0.500000
vt 0.000000 0.000000
vt 0.000000 0.500000
vt 0.000010 -0.500000
vt 0.098027 -0.495184
vt 0.195099 -0.480784
vt 0.290291 -0.456938
vt 0.382689 -0.423877
vt 0.471401 -0.381919
vt 0.555574 -0.331467
vt 0.634396 -0.273008
vt 0.707109 -0.207105
vt 0.773012 -0.134391
vt 0.831471 -0.055569
vt 0.881922 0.028604
vt 0.923880 0.117317
vt 0.956940 0.209715
vt 0.980785 0.304910
vt 0.995185 0.401983
vt 1.000000 0.500000
vt 0.000000 1.000000
vt 0.000000 0.000000
vt 0.000000 1.000000
vt 1.000000 0.000000
vt 1.000000 1.000000
vn 0.0000 1.0000 0.0000
usemtl asphalt
s 1
f 1/1/1 3/2/1 12/3/1
f 1/1/1 12/3/1 13/4/1
f 1/1/1 13/4/1 14/5/1
f 1/1/1 14/5/1 15/6/1
f 1/1/1 15/6/1 16/7/1
f 1/1/1 16/7/1 4/8/1
f 1/1/1 4/8/1 17/9/1
f 1/1/1 17/9/1 5/10/1
f 1/1/1 5/10/1 6/11/1
f 1/1/1 6/11/1 7/12/1
f 1/1/1 7/12/1 8/13/1
f 1/1/1 8/13/1 18/14/1
f 1/1/1 18/14/1 19/15/1
f 1/1/1 19/15/1 20/16/1
f 1/1/1 20/16/1 9/17/1
f 1/1/1 9/17/1 2/18/1
f 2/18/1 10/19/1 1/1/1
f 21/20/1 30/21/1 23/22/1
f 21/20/1 31/23/1 30/21/1
f 21/20/1 32/24/1 31/23/1
f 21/20/1 33/25/1 32/24/1
f 21/20/1 34/26/1 33/25/1
f 21/20/1 24/27/1 34/26/1
f 21/20/1 35/28/1 24/27/1
f 21/20/1 25/29/1 35/28/1
f 21/20/1 26/30/1 25/29/1
f 21/20/1 27/31/1 26/30/1
f 21/20/1 28/32/1 27/31/1
f 21/20/1 36/33/1 28/32/1
f 21/20/1 37/34/1 36/33/1
f 21/20/1 38/35/1 37/34/1
f 21/20/1 29/36/1 38/35/1
f 21/20/1 22/37/1 29/36/1
f 10/38/1 22/37/1 21/20/1
f 1/39/1 47/40/1 3/41/1
f 1/39/1 48/42/1 47/40/1
f 1/39/1 49/43/1 48/42/1
f 1/39/1 50/44/1 49/43/1
f 1/39/1 51/45/1 50/44/1
f 1/39/1 40/46/1 51/45/1
f 1/39/1 52/47/1 40/46/1
f 1/39/1 41/48/1 52/47/1
f 1/39/1 42/49/1 41/48/1
f 1/39/1 43/50/1 42/49/1
f 1/39/1 44/51/1 43/50/1
f 1/39/1 53/52/1 44/51/1
f 1/39/1 54/53/1 53/52/1
f 1/39/1 55/54/1 54/53/1
f 1/39/1 45/55/1 55/54/1
f 1/39/1 39/56/1 45/55/1
f 10/57/1 39/56/1 1/39/1
f 21/58/1 23/59/1 63/60/1
f 21/58/1 63/60/1 64/61/1
f 21/58/1 64/61/1 65/62/1
f 21/58/1 65/62/1 66/63/1
f 21/58/1 66/63/1 67/64/1
f 21/58/1 67/64/1 57/65/1
f 21/58/1 57/65/1 68/66/1
f 21/58/1 68/66/1 58/67/1
f 21/58/1 58/67/1 59/68/1
f 21/58/1 59/68/1 60/69/1
f 21/58/1 60/69/1 61/70/1
f 21/58/1 61/70/1 69/71/1
f 21/58/1 69/71/1 70/72/1
f 21/58/1 70/72/1 71/73/1
f 21/58/1 71/73/1 62/74/1
f 21/58/1 62/74/1 56/75/1
f 56/75/1 10/76/1 21/58/1
f 2/18/1 11/77/1 10/19/1
f 10/38/1 11/78/1 22/37/1
f 10/57/1 46/79/1 39/56/1
f 56/75/1 46/80/1 10/76/1
