# Blender v3.0.0 OBJ File: ''
# www.blender.org
mtllib crappy-tire.mtl
o Cylinder
v 0.000000 1.000000 -0.500000
v 0.000000 1.000000 0.500000
v 0.195090 0.980785 -0.500000
v 0.195090 0.980785 0.500000
v 0.382683 0.923880 -0.500000
v 0.382683 0.923880 0.500000
v 0.555570 0.831470 -0.500000
v 0.555570 0.831470 0.500000
v 0.707107 0.707107 -0.500000
v 0.707107 0.707107 0.500000
v 0.831470 0.555570 -0.500000
v 0.831470 0.555570 0.500000
v 0.923880 0.382683 -0.500000
v 0.923880 0.382683 0.500000
v 0.980785 0.195090 -0.500000
v 0.980785 0.195090 0.500000
v 1.000000 -0.000000 -0.500000
v 1.000000 -0.000000 0.500000
v 0.980785 -0.195090 -0.500000
v 0.980785 -0.195090 0.500000
v 0.923880 -0.382683 -0.500000
v 0.923880 -0.382683 0.500000
v 0.831470 -0.555570 -0.500000
v 0.831470 -0.555570 0.500000
v 0.707107 -0.707107 -0.500000
v 0.707107 -0.707107 0.500000
v 0.555570 -0.831470 -0.500000
v 0.555570 -0.831470 0.500000
v 0.382683 -0.923880 -0.500000
v 0.382683 -0.923880 0.500000
v 0.195090 -0.980785 -0.500000
v 0.195090 -0.980785 0.500000
v -0.000000 -1.000000 -0.500000
v -0.000000 -1.000000 0.500000
v -0.195090 -0.980785 -0.500000
v -0.195090 -0.980785 0.500000
v -0.382683 -0.923880 -0.500000
v -0.382683 -0.923880 0.500000
v -0.555570 -0.831470 -0.500000
v -0.555570 -0.831470 0.500000
v -0.707107 -0.707107 -0.500000
v -0.707107 -0.707107 0.500000
v -0.831469 -0.555570 -0.500000
v -0.831469 -0.555570 0.500000
v -0.923880 -0.382684 -0.500000
v -0.923880 -0.382684 0.500000
v -0.980785 -0.195090 -0.500000
v -0.980785 -0.195090 0.500000
v -1.000000 0.000000 -0.500000
v -1.000000 0.000000 0.500000
v -0.980785 0.195090 -0.500000
v -0.980785 0.195090 0.500000
v -0.923879 0.382684 -0.500000
v -0.923879 0.382684 0.500000
v -0.831470 0.555570 -0.500000
v -0.831470 0.555570 0.500000
v -0.707107 0.707107 -0.500000
v -0.707107 0.707107 0.500000
v -0.555570 0.831470 -0.500000
v -0.555570 0.831470 0.500000
v -0.382683 0.923880 -0.500000
v -0.382683 0.923880 0.500000
v -0.195090 0.980785 -0.500000
v -0.195090 0.980785 0.500000
v 0.000000 0.700000 -0.040312
v 0.000000 0.700000 0.357223
v 0.136563 0.686550 -0.040312
v 0.136563 0.686550 0.357223
v 0.267878 0.646716 -0.040312
v 0.267878 0.646716 0.357223
v 0.388899 0.582029 -0.040312
v 0.388899 0.582029 0.357223
v 0.494975 0.494975 -0.040312
v 0.494975 0.494975 0.357223
v 0.582029 0.388899 -0.040312
v 0.582029 0.388899 0.357223
v 0.646716 0.267878 -0.040312
v 0.646716 0.267878 0.357223
v 0.686550 0.136563 -0.040312
v 0.686550 0.136563 0.357223
v 0.700000 -0.000000 -0.040312
v 0.700000 -0.000000 0.357223
v 0.686550 -0.136563 -0.040312
v 0.686550 -0.136563 0.357223
v 0.646716 -0.267878 -0.040312
v 0.646716 -0.267878 0.357223
v 0.582029 -0.388899 -0.040312
v 0.582029 -0.388899 0.357223
v 0.494975 -0.494975 -0.040312
v 0.494975 -0.494975 0.357223
v 0.388899 -0.582029 -0.040312
v 0.388899 -0.582029 0.357223
v 0.267878 -0.646716 -0.040312
v 0.267878 -0.646716 0.357223
v 0.136563 -0.686550 -0.040312
v 0.136563 -0.686550 0.357223
v -0.000000 -0.700000 -0.040312
v -0.000000 -0.700000 0.357223
v -0.136563 -0.686550 -0.040312
v -0.136563 -0.686550 0.357223
v -0.267878 -0.646716 -0.040312
v -0.267878 -0.646716 0.357223
v -0.388899 -0.582029 -0.040312
v -0.388899 -0.582029 0.357223
v -0.494975 -0.494975 -0.040312
v -0.494975 -0.494975 0.357223
v -0.582029 -0.388899 -0.040312
v -0.582029 -0.388899 0.357223
v -0.646716 -0.267879 -0.040312
v -0.646716 -0.267879 0.357223
v -0.686550 -0.136563 -0.040312
v -0.686550 -0.136563 0.357223
v -0.700000 0.000000 -0.040312
v -0.700000 0.000000 0.357223
v -0.686550 0.136563 -0.040312
v -0.686550 0.136563 0.357223
v -0.646716 0.267879 -0.040312
v -0.646716 0.267879 0.357223
v -0.582029 0.388899 -0.040312
v -0.582029 0.388899 0.357223
v -0.494975 0.494975 -0.040312
v -0.494975 0.494975 0.357223
v -0.388899 0.582029 -0.040312
v -0.388899 0.582029 0.357223
v -0.267878 0.646716 -0.040312
v -0.267878 0.646716 0.357223
v -0.136563 0.686550 -0.040312
v -0.136563 0.686550 0.357223
v 0.000000 0.700000 -0.500000
v 0.136563 0.686550 -0.500000
v 0.136563 0.686550 0.500000
v 0.000000 0.700000 0.500000
v 0.267878 0.646716 -0.500000
v 0.267878 0.646716 0.500000
v 0.388899 0.582029 -0.500000
v 0.388899 0.582029 0.500000
v 0.494975 0.494975 -0.500000
v 0.494975 0.494975 0.500000
v 0.582029 0.388899 -0.500000
v 0.582029 0.388899 0.500000
v 0.646716 0.267878 -0.500000
v 0.646716 0.267878 0.500000
v 0.686550 0.136563 -0.500000
v 0.686550 0.136563 0.500000
v 0.700000 -0.000000 -0.500000
v 0.700000 -0.000000 0.500000
v 0.686550 -0.136563 -0.500000
v 0.686550 -0.136563 0.500000
v 0.646716 -0.267878 -0.500000
v 0.646716 -0.267878 0.500000
v 0.582029 -0.388899 -0.500000
v 0.582029 -0.388899 0.500000
v 0.494975 -0.494975 -0.500000
v 0.494975 -0.494975 0.500000
v 0.388899 -0.582029 -0.500000
v 0.388899 -0.582029 0.500000
v 0.267878 -0.646716 -0.500000
v 0.267878 -0.646716 0.500000
v 0.136563 -0.686550 -0.500000
v 0.136563 -0.686550 0.500000
v -0.000000 -0.700000 -0.500000
v -0.000000 -0.700000 0.500000
v -0.136563 -0.686550 -0.500000
v -0.136563 -0.686550 0.500000
v -0.267878 -0.646716 -0.500000
v -0.267878 -0.646716 0.500000
v -0.388899 -0.582029 -0.500000
v -0.388899 -0.582029 0.500000
v -0.494975 -0.494975 -0.500000
v -0.494975 -0.494975 0.500000
v -0.582029 -0.388899 -0.500000
v -0.582029 -0.388899 0.500000
v -0.646716 -0.267879 -0.500000
v -0.646716 -0.267879 0.500000
v -0.686550 -0.136563 -0.500000
v -0.686550 -0.136563 0.500000
v -0.700000 0.000000 -0.500000
v -0.700000 0.000000 0.500000
v -0.686550 0.136563 -0.500000
v -0.686550 0.136563 0.500000
v -0.646716 0.267879 -0.500000
v -0.646716 0.267879 0.500000
v -0.582029 0.388899 -0.500000
v -0.582029 0.388899 0.500000
v -0.494975 0.494975 -0.500000
v -0.494975 0.494975 0.500000
v -0.388899 0.582029 -0.500000
v -0.388899 0.582029 0.500000
v -0.267878 0.646716 -0.500000
v -0.267878 0.646716 0.500000
v -0.136563 0.686550 -0.500000
v -0.136563 0.686550 0.500000
v 0.000000 0.195161 -0.040312
v 0.000000 0.195161 0.357223
v 0.108425 0.162270 0.357223
v 0.108425 0.162270 -0.040312
v 0.137999 0.137999 0.357223
v 0.137999 0.137999 -0.040312
v 0.191411 0.038074 0.357223
v 0.191411 0.038074 -0.040312
v 0.195161 -0.000000 0.357223
v 0.195161 -0.000000 -0.040312
v 0.162270 -0.108425 0.357223
v 0.162270 -0.108425 -0.040312
v 0.137999 -0.137999 0.357223
v 0.137999 -0.137999 -0.040312
v 0.038074 -0.191411 0.357223
v 0.038074 -0.191411 -0.040312
v -0.000000 -0.195161 0.357223
v -0.000000 -0.195161 -0.040312
v -0.108425 -0.162270 0.357223
v -0.108425 -0.162270 -0.040312
v -0.137999 -0.137999 0.357223
v -0.137999 -0.137999 -0.040312
v -0.191411 -0.038074 0.357223
v -0.191411 -0.038074 -0.040312
v -0.195161 -0.000000 0.357223
v -0.195161 -0.000000 -0.040312
v -0.162270 0.108425 0.357223
v -0.162270 0.108425 -0.040312
v -0.137999 0.137999 0.357223
v -0.137999 0.137999 -0.040312
v -0.038074 0.191411 0.357223
v -0.038074 0.191411 -0.040312
v 0.000000 -0.000000 0.357223
v 0.000000 -0.000000 -0.040312
vt 1.000000 1.000000
vt 0.968750 0.500000
vt 1.000000 0.500000
vt 0.968750 1.000000
vt 0.937500 0.500000
vt 0.937500 1.000000
vt 0.906250 0.500000
vt 0.906250 1.000000
vt 0.875000 0.500000
vt 0.875000 1.000000
vt 0.843750 0.500000
vt 0.843750 1.000000
vt 0.812500 0.500000
vt 0.812500 1.000000
vt 0.781250 0.500000
vt 0.781250 1.000000
vt 0.750000 0.500000
vt 0.750000 1.000000
vt 0.718750 0.500000
vt 0.718750 1.000000
vt 0.687500 0.500000
vt 0.687500 1.000000
vt 0.656250 0.500000
vt 0.656250 1.000000
vt 0.625000 0.500000
vt 0.625000 1.000000
vt 0.593750 0.500000
vt 0.593750 1.000000
vt 0.562500 0.500000
vt 0.562500 1.000000
vt 0.531250 0.500000
vt 0.531250 1.000000
vt 0.500000 0.500000
vt 0.500000 1.000000
vt 0.468750 0.500000
vt 0.468750 1.000000
vt 0.437500 0.500000
vt 0.437500 1.000000
vt 0.406250 0.500000
vt 0.406250 1.000000
vt 0.375000 0.500000
vt 0.375000 1.000000
vt 0.343750 0.500000
vt 0.343750 1.000000
vt 0.312500 0.500000
vt 0.312500 1.000000
vt 0.281250 0.500000
vt 0.281250 1.000000
vt 0.250000 0.500000
vt 0.250000 1.000000
vt 0.218750 0.500000
vt 0.218750 1.000000
vt 0.187500 0.500000
vt 0.187500 1.000000
vt 0.156250 0.500000
vt 0.156250 1.000000
vt 0.125000 0.500000
vt 0.125000 1.000000
vt 0.093750 0.500000
vt 0.093750 1.000000
vt 0.062500 0.500000
vt 0.062500 1.000000
vt 0.031250 0.500000
vt 0.031250 1.000000
vt 0.000000 0.500000
vt 0.968750 0.650616
vt 1.000000 0.849384
vt 1.000000 0.650616
vt 0.937500 0.650616
vt 0.968750 0.849384
vt 0.906250 0.650616
vt 0.937500 0.849384
vt 1.000000 0.849384
vt 0.843750 0.650616
vt 0.875000 0.849384
vt 0.875000 0.650616
vt 0.812500 0.650616
vt 0.843750 0.849384
vt 0.781250 0.650616
vt 0.812500 0.849384
vt 0.781250 0.849384
vt 0.750000 0.849384
vt 0.781250 0.849384
vt 0.718750 0.650616
vt 0.750000 0.650616
vt 0.687500 0.650616
vt 0.718750 0.849384
vt 0.656250 0.650616
vt 0.687500 0.849384
vt 0.156250 0.650616
vt 0.156250 0.849384
vt 0.156250 0.650616
vt 0.593750 0.650616
vt 0.625000 0.849384
vt 0.625000 0.650616
vt 0.562500 0.650616
vt 0.593750 0.849384
vt 0.531250 0.650616
vt 0.562500 0.849384
vt 0.156250 0.849384
vt 0.125000 0.849384
vt 0.468750 0.650616
vt 0.500000 0.849384
vt 0.500000 0.650616
vt 0.437500 0.650616
vt 0.468750 0.849384
vt 0.406250 0.650616
vt 0.437500 0.849384
vt 0.750000 0.650616
vt 0.343750 0.650616
vt 0.375000 0.849384
vt 0.375000 0.650616
vt 0.312500 0.650616
vt 0.343750 0.849384
vt 0.281250 0.650616
vt 0.312500 0.849384
vt 0.125000 0.650616
vt 0.125000 0.650616
vt 0.218750 0.650616
vt 0.250000 0.849384
vt 0.250000 0.650616
vt 0.187500 0.650616
vt 0.218750 0.849384
vt 0.187500 0.849384
vt 0.031250 0.650616
vt 0.031250 0.849384
vt 0.031250 0.650616
vt 0.093750 0.650616
vt 0.062500 0.650616
vt 0.093750 0.849384
vt 0.062500 0.849384
vt 0.875000 0.849384
vt 0.250000 1.000000
vt 0.781250 0.500000
vt 0.500000 0.500000
vt 0.781250 1.000000
vt 0.250000 0.500000
vt 0.531250 1.000000
vt 0.750000 0.500000
vt 0.468750 0.500000
vt 0.750000 1.000000
vt 0.218750 0.500000
vt 0.500000 1.000000
vt 0.218750 1.000000
vt 1.000000 0.500000
vt 0.156250 0.500000
vt 0.468750 1.000000
vt 1.000000 1.000000
vt 0.187500 1.000000
vt 0.687500 0.500000
vt 0.406250 0.500000
vt 0.687500 1.000000
vt 0.125000 0.500000
vt 0.406250 1.000000
vt 0.968750 0.500000
vt 0.125000 1.000000
vt 0.968750 1.000000
vt 0.375000 0.500000
vt 0.093750 0.500000
vt 0.937500 0.500000
vt 0.625000 0.500000
vt 0.937500 1.000000
vt 0.343750 0.500000
vt 0.656250 1.000000
vt 0.062500 0.500000
vt 0.343750 1.000000
vt 0.906250 0.500000
vt 0.062500 1.000000
vt 0.593750 0.500000
vt 0.906250 1.000000
vt 0.312500 0.500000
vt 0.625000 1.000000
vt 0.312500 1.000000
vt 0.843750 0.500000
vt 0.562500 0.500000
vt 0.843750 1.000000
vt 0.562500 1.000000
vt 0.031250 0.500000
vt 0.031250 1.000000
vt 0.000000 1.000000
vt 0.531250 0.500000
vt 0.906250 0.849384
vt 0.875000 1.000000
vt 0.875000 0.500000
vt 0.812500 1.000000
vt 0.812500 0.500000
vt 0.718750 1.000000
vt 0.718750 0.500000
vt 0.656250 0.849384
vt 0.656250 0.500000
vt 0.593750 1.000000
vt 0.531250 0.849384
vt 0.437500 1.000000
vt 0.437500 0.500000
vt 0.406250 0.849384
vt 0.375000 1.000000
vt 0.281250 1.000000
vt 0.281250 0.849384
vt 0.281250 0.500000
vt 0.187500 0.500000
vt 0.156250 1.000000
vt 0.093750 1.000000
vt 0.000000 0.650616
vt 0.000000 1.000000
vt 0.000000 0.849384
vt 0.781250 0.650616
vt 0.875000 0.650616
vt 0.406250 0.849384
vt 0.500000 0.650616
vt 0.500000 0.849384
vt 0.531250 0.849384
vt 0.625000 0.650616
vt 0.625000 0.849384
vt 0.250000 0.849384
vt 0.250000 0.650616
vt 1.000000 0.650616
vt 0.906250 0.849384
vt 0.906250 0.650616
vt 0.656250 0.849384
vt 0.750000 0.849384
vt 0.281250 0.849384
vt 0.375000 0.650616
vt 0.375000 0.849384
vt 0.125000 0.849384
vt 0.656250 0.650616
vt 0.531250 0.650616
vt 0.406250 0.650616
vt 0.281250 0.650616
vt 0.031250 0.849384
vt 0.000000 0.650616
vt 0.000000 0.849384
vt 0.000000 0.000000
vt 0.000000 0.000000
vt 0.000000 0.000000
vt 0.000000 0.000000
vt 0.000000 0.000000
vt 0.000000 0.000000
vt 0.000000 0.000000
vt 0.000000 0.000000
vt 0.000000 0.000000
vt 0.000000 0.000000
vt 0.000000 0.000000
vt 0.000000 0.000000
vt 0.000000 0.000000
vt 0.000000 0.000000
vt 0.000000 0.000000
vt 0.000000 0.000000
vt 0.000000 0.000000
vt 0.000000 0.000000
vt 0.000000 0.000000
vt 0.000000 0.000000
vt 0.000000 0.000000
vt 0.000000 0.000000
vt 0.000000 0.000000
vt 0.000000 0.000000
vt 0.000000 0.000000
vt 0.000000 0.000000
vt 0.000000 0.000000
vt 0.000000 0.000000
vt 0.000000 0.000000
vt 0.000000 0.000000
vt 0.000000 0.000000
vt 0.000000 0.000000
vt 0.000000 0.000000
vt 0.000000 0.000000
vt 0.000000 0.500000
vn 0.0000 1.0000 0.0000
vn 0.1951 0.9808 0.0000
vn 0.3827 0.9239 0.0000
vn 0.5556 0.8315 0.0000
vn 0.7071 0.7071 0.0000
vn 0.8315 0.5556 0.0000
vn 0.9239 0.3827 0.0000
vn 0.9808 0.1951 0.0000
vn 1.0000 -0.0000 0.0000
vn 0.9808 -0.1951 0.0000
vn 0.9239 -0.3827 0.0000
vn 0.8315 -0.5556 0.0000
vn 0.7071 -0.7071 0.0000
vn 0.5556 -0.8315 0.0000
vn 0.3827 -0.9239 0.0000
vn 0.1951 -0.9808 0.0000
vn -0.0000 -1.0000 0.0000
vn -0.1951 -0.9808 0.0000
vn -0.3827 -0.9239 0.0000
vn -0.5556 -0.8315 0.0000
vn -0.7071 -0.7071 0.0000
vn -0.8315 -0.5556 0.0000
vn -0.9239 -0.3827 0.0000
vn -0.9808 -0.1951 0.0000
vn -1.0000 0.0000 0.0000
vn -0.9808 0.1951 0.0000
vn -0.9239 0.3827 0.0000
vn -0.8315 0.5556 0.0000
vn -0.7071 0.7071 0.0000
vn -0.5556 0.8315 0.0000
vn -0.3827 0.9239 0.0000
vn -0.1951 0.9808 0.0000
vn -0.0328 -0.9995 0.0000
vn -0.5280 -0.8493 0.0000
vn -0.7299 -0.6835 0.0000
vn -0.9739 -0.2272 0.0000
vn -0.0000 0.0000 1.0000
vn -0.9995 0.0328 0.0000
vn -0.8493 0.5280 0.0000
vn -0.6835 0.7299 0.0000
vn -0.2272 0.9739 0.0000
vn 0.0328 0.9995 0.0000
vn 0.5280 0.8493 0.0000
vn 0.0000 0.0000 -1.0000
vn 0.7299 0.6835 0.0000
vn 0.9739 0.2272 0.0000
vn 0.9995 -0.0328 0.0000
vn 0.8493 -0.5280 0.0000
vn 0.6835 -0.7299 0.0000
vn 0.2272 -0.9739 0.0000
vn 0.8819 0.4714 0.0000
vn -0.2903 -0.9569 0.0000
vn 0.4714 -0.8819 0.0000
vn -0.9569 0.2903 0.0000
vn 0.2903 0.9569 0.0000
vn 0.9569 -0.2903 0.0000
vn -0.8819 -0.4714 0.0000
vn -0.4714 0.8819 0.0000
vn 0.6344 0.7730 0.0000
vn 0.9952 0.0980 0.0000
vn 0.7730 -0.6344 0.0000
vn 0.0980 -0.9952 0.0000
vn -0.6344 -0.7730 0.0000
vn -0.9952 -0.0980 0.0000
vn -0.7730 0.6344 0.0000
vn -0.0980 0.9952 0.0000
usemtl None
s 1
f 2/1/1 3/2/2 1/3/1
f 4/4/2 5/5/3 3/2/2
f 6/6/3 7/7/4 5/5/3
f 8/8/4 9/9/5 7/7/4
f 10/10/5 11/11/6 9/9/5
f 12/12/6 13/13/7 11/11/6
f 14/14/7 15/15/8 13/13/7
f 16/16/8 17/17/9 15/15/8
f 18/18/9 19/19/10 17/17/9
f 20/20/10 21/21/11 19/19/10
f 22/22/11 23/23/12 21/21/11
f 24/24/12 25/25/13 23/23/12
f 26/26/13 27/27/14 25/25/13
f 28/28/14 29/29/15 27/27/14
f 30/30/15 31/31/16 29/29/15
f 32/32/16 33/33/17 31/31/16
f 34/34/17 35/35/18 33/33/17
f 36/36/18 37/37/19 35/35/18
f 38/38/19 39/39/20 37/37/19
f 40/40/20 41/41/21 39/39/20
f 42/42/21 43/43/22 41/41/21
f 44/44/22 45/45/23 43/43/22
f 46/46/23 47/47/24 45/45/23
f 48/48/24 49/49/25 47/47/24
f 50/50/25 51/51/26 49/49/25
f 52/52/26 53/53/27 51/51/26
f 54/54/27 55/55/28 53/53/27
f 56/56/28 57/57/29 55/55/28
f 58/58/29 59/59/30 57/57/29
f 60/60/30 61/61/31 59/59/30
f 62/62/31 63/63/32 61/61/31
f 64/64/32 1/65/1 63/63/32
f 67/66/18 66/67/33 65/68/33
f 69/69/19 68/70/18 67/66/18
f 71/71/34 70/72/19 69/69/19
f 194/73/9 65/68/9 66/67/9
f 75/74/22 74/75/35 73/76/35
f 77/77/23 76/78/22 75/74/22
f 79/79/36 78/80/23 77/77/23
f 199/81/37 82/82/37 80/83/37
f 83/84/26 82/82/38 81/85/38
f 85/86/27 84/87/26 83/84/26
f 87/88/39 86/89/27 85/86/27
f 220/90/20 120/91/20 119/92/20
f 91/93/30 90/94/40 89/95/40
f 93/96/31 92/97/30 91/93/30
f 95/98/41 94/99/31 93/96/31
f 219/100/37 122/101/37 120/91/37
f 99/102/2 98/103/42 97/104/42
f 101/105/3 100/106/2 99/102/2
f 103/107/43 102/108/3 101/105/3
f 202/109/44 79/79/44 81/85/44
f 107/110/6 106/111/45 105/112/45
f 109/113/7 108/114/6 107/110/6
f 111/115/46 110/116/7 109/113/7
f 222/117/44 119/92/44 121/118/44
f 115/119/10 114/120/47 113/121/47
f 117/122/11 116/123/10 115/119/10
f 119/92/48 118/124/11 117/122/11
f 224/125/24 128/126/24 127/127/24
f 123/128/14 122/101/49 121/118/49
f 125/129/15 124/130/14 123/128/14
f 127/127/50 126/131/15 125/129/15
f 197/132/13 73/76/13 74/75/13
f 48/48/37 178/133/37 50/50/37
f 143/134/44 13/13/44 15/15/44
f 161/135/44 31/31/44 33/33/44
f 14/14/37 144/136/37 16/16/37
f 51/51/44 177/137/44 49/49/44
f 160/138/37 34/34/37 32/32/37
f 178/133/37 52/52/37 50/50/37
f 145/139/44 15/15/44 17/17/44
f 163/140/44 33/33/44 35/35/44
f 16/16/37 146/141/37 18/18/37
f 53/53/44 179/142/44 51/51/44
f 162/143/37 36/36/37 34/34/37
f 180/144/37 54/54/37 52/52/37
f 19/19/44 145/139/44 17/17/44
f 37/37/44 163/140/44 35/35/44
f 146/141/37 20/20/37 18/18/37
f 3/2/44 129/145/44 1/3/44
f 183/146/44 53/53/44 55/55/44
f 164/147/37 38/38/37 36/36/37
f 132/148/37 4/4/37 2/1/37
f 182/149/37 56/56/37 54/54/37
f 149/150/44 19/19/44 21/21/44
f 167/151/44 37/37/44 39/39/44
f 20/20/37 150/152/37 22/22/37
f 185/153/44 55/55/44 57/57/44
f 38/38/37 168/154/37 40/40/37
f 5/5/44 130/155/44 3/2/44
f 56/56/37 186/156/37 58/58/37
f 23/23/44 149/150/44 21/21/44
f 131/157/37 6/6/37 4/4/37
f 169/158/44 39/39/44 41/41/44
f 150/152/37 24/24/37 22/22/37
f 187/159/44 57/57/44 59/59/44
f 168/154/37 42/42/37 40/40/37
f 7/7/44 133/160/44 5/5/44
f 186/156/37 60/60/37 58/58/37
f 153/161/44 23/23/44 25/25/44
f 134/162/37 8/8/37 6/6/37
f 171/163/44 41/41/44 43/43/44
f 152/164/37 26/26/37 24/24/37
f 189/165/44 59/59/44 61/61/44
f 42/42/37 172/166/37 44/44/37
f 9/9/44 135/167/44 7/7/44
f 60/60/37 190/168/37 62/62/37
f 155/169/44 25/25/44 27/27/44
f 136/170/37 10/10/37 8/8/37
f 173/171/44 43/43/44 45/45/44
f 154/172/37 28/28/37 26/26/37
f 63/63/44 189/165/44 61/61/44
f 44/44/37 174/173/37 46/46/37
f 139/174/44 9/9/44 11/11/44
f 190/168/37 64/64/37 62/62/37
f 157/175/44 27/27/44 29/29/44
f 10/10/37 140/176/37 12/12/37
f 47/47/44 173/171/44 45/45/44
f 28/28/37 158/177/37 30/30/37
f 1/65/44 191/178/44 63/63/44
f 174/173/37 48/48/37 46/46/37
f 13/13/44 139/174/44 11/11/44
f 192/179/37 2/180/37 64/64/37
f 159/181/44 29/29/44 31/31/44
f 140/176/37 14/14/37 12/12/37
f 177/137/44 47/47/44 49/49/44
f 30/30/37 160/138/37 32/32/37
f 129/145/17 67/66/18 65/68/33
f 131/157/18 66/67/33 68/70/18
f 130/155/18 69/69/19 67/66/18
f 134/162/19 68/70/18 70/72/19
f 133/160/19 71/71/34 69/69/19
f 136/170/20 70/72/19 72/182/34
f 135/167/20 73/76/35 71/71/34
f 138/183/21 72/182/34 74/75/35
f 137/184/21 75/74/22 73/76/35
f 140/176/22 74/75/35 76/78/22
f 139/174/22 77/77/23 75/74/22
f 142/185/23 76/78/22 78/80/23
f 141/186/23 79/79/36 77/77/23
f 144/136/24 78/80/23 80/83/36
f 143/134/24 81/85/38 79/79/36
f 146/141/25 80/83/36 82/82/38
f 145/139/25 83/84/26 81/85/38
f 148/187/26 82/82/38 84/87/26
f 147/188/26 85/86/27 83/84/26
f 150/152/27 84/87/26 86/89/27
f 149/150/27 87/88/39 85/86/27
f 152/164/28 86/89/27 88/189/39
f 151/190/28 89/95/40 87/88/39
f 154/172/29 88/189/39 90/94/40
f 153/161/29 91/93/30 89/95/40
f 156/191/30 90/94/40 92/97/30
f 155/169/30 93/96/31 91/93/30
f 158/177/31 92/97/30 94/99/31
f 157/175/31 95/98/41 93/96/31
f 160/138/32 94/99/31 96/192/41
f 159/181/32 97/104/42 95/98/41
f 162/143/1 96/192/41 98/103/42
f 161/135/1 99/102/2 97/104/42
f 164/147/2 98/103/42 100/106/2
f 163/140/2 101/105/3 99/102/2
f 166/193/3 100/106/2 102/108/3
f 165/194/3 103/107/43 101/105/3
f 168/154/4 102/108/3 104/195/43
f 167/151/4 105/112/45 103/107/43
f 170/196/5 104/195/43 106/111/45
f 169/158/5 107/110/6 105/112/45
f 172/166/6 106/111/45 108/114/6
f 171/163/6 109/113/7 107/110/6
f 174/173/7 108/114/6 110/116/7
f 173/171/7 111/115/46 109/113/7
f 176/197/8 110/116/7 112/198/46
f 175/199/8 113/121/47 111/115/46
f 178/133/9 112/198/46 114/120/47
f 177/137/9 115/119/10 113/121/47
f 180/144/10 114/120/47 116/123/10
f 179/142/10 117/122/11 115/119/10
f 182/149/11 116/123/10 118/124/11
f 181/200/11 119/92/48 117/122/11
f 184/201/12 118/124/11 120/91/48
f 183/146/12 121/118/49 119/92/48
f 186/156/13 120/91/48 122/101/49
f 185/153/13 123/128/14 121/118/49
f 188/202/14 122/101/49 124/130/14
f 187/159/14 125/129/15 123/128/14
f 190/168/15 124/130/14 126/131/15
f 189/165/15 127/127/50 125/129/15
f 192/179/16 126/131/15 128/126/50
f 191/178/16 65/203/33 127/127/50
f 132/204/17 128/126/50 66/205/33
f 197/132/51 200/206/51 198/207/51
f 211/208/52 210/209/52 209/210/52
f 207/211/53 206/212/53 205/213/53
f 217/214/54 220/90/54 218/215/54
f 193/216/55 195/217/55 196/218/55
f 203/219/56 202/109/56 201/220/56
f 215/221/57 214/222/57 213/223/57
f 221/224/58 224/125/58 222/117/58
f 195/217/59 198/207/59 196/218/59
f 202/109/60 200/206/60 199/81/60
f 206/212/61 204/225/61 203/219/61
f 210/209/62 208/226/62 207/211/62
f 211/208/63 214/222/63 212/227/63
f 218/215/64 216/228/64 215/221/64
f 219/100/65 222/117/65 220/90/65
f 223/229/66 193/230/66 224/125/66
f 216/228/16 112/198/16 111/115/16
f 210/209/44 95/98/44 97/104/44
f 207/211/37 98/103/37 96/192/37
f 212/227/12 104/195/12 103/107/12
f 221/224/5 121/118/5 122/101/5
f 208/226/8 96/192/8 95/98/8
f 218/215/44 111/115/44 113/121/44
f 217/214/1 113/121/1 114/120/1
f 198/207/44 71/71/44 73/76/44
f 215/221/37 114/120/37 112/198/37
f 72/182/37 197/132/37 74/75/37
f 204/225/4 88/189/4 87/88/4
f 213/223/29 105/112/29 106/111/29
f 193/230/44 127/127/44 65/203/44
f 200/206/32 80/83/32 79/79/32
f 206/212/44 87/88/44 89/95/44
f 209/210/25 97/104/25 98/103/25
f 128/126/37 194/231/37 66/205/37
f 88/189/37 205/213/37 90/94/37
f 196/218/28 72/182/28 71/71/28
f 205/213/21 89/95/21 90/94/21
f 214/222/44 103/107/44 105/112/44
f 201/220/17 81/85/17 82/82/17
f 104/195/37 213/223/37 106/111/37
f 222/232/44 226/233/44 220/234/44
f 207/235/37 225/236/37 209/237/37
f 209/237/37 225/236/37 211/238/37
f 211/238/37 225/236/37 213/239/37
f 213/239/37 225/236/37 215/240/37
f 215/240/37 225/236/37 217/241/37
f 217/241/37 225/236/37 219/242/37
f 219/242/37 225/236/37 221/243/37
f 221/243/37 225/236/37 223/244/37
f 223/244/37 225/236/37 194/245/37
f 194/245/37 225/236/37 195/246/37
f 195/246/37 225/236/37 197/247/37
f 197/247/37 225/236/37 199/248/37
f 199/248/37 225/236/37 201/249/37
f 201/249/37 225/236/37 203/250/37
f 203/250/37 225/236/37 205/251/37
f 205/251/37 225/236/37 207/235/37
f 220/234/44 226/233/44 218/252/44
f 218/252/44 226/233/44 216/253/44
f 216/253/44 226/233/44 214/254/44
f 214/254/44 226/233/44 212/255/44
f 212/255/44 226/233/44 210/256/44
f 210/256/44 226/233/44 208/257/44
f 208/257/44 226/233/44 206/258/44
f 206/258/44 226/233/44 204/259/44
f 204/259/44 226/233/44 202/260/44
f 202/260/44 226/233/44 200/261/44
f 200/261/44 226/233/44 198/262/44
f 198/262/44 226/233/44 196/263/44
f 196/263/44 226/233/44 193/264/44
f 193/264/44 226/233/44 224/265/44
f 224/265/44 226/233/44 222/232/44
f 2/1/1 4/4/2 3/2/2
f 4/4/2 6/6/3 5/5/3
f 6/6/3 8/8/4 7/7/4
f 8/8/4 10/10/5 9/9/5
f 10/10/5 12/12/6 11/11/6
f 12/12/6 14/14/7 13/13/7
f 14/14/7 16/16/8 15/15/8
f 16/16/8 18/18/9 17/17/9
f 18/18/9 20/20/10 19/19/10
f 20/20/10 22/22/11 21/21/11
f 22/22/11 24/24/12 23/23/12
f 24/24/12 26/26/13 25/25/13
f 26/26/13 28/28/14 27/27/14
f 28/28/14 30/30/15 29/29/15
f 30/30/15 32/32/16 31/31/16
f 32/32/16 34/34/17 33/33/17
f 34/34/17 36/36/18 35/35/18
f 36/36/18 38/38/19 37/37/19
f 38/38/19 40/40/20 39/39/20
f 40/40/20 42/42/21 41/41/21
f 42/42/21 44/44/22 43/43/22
f 44/44/22 46/46/23 45/45/23
f 46/46/23 48/48/24 47/47/24
f 48/48/24 50/50/25 49/49/25
f 50/50/25 52/52/26 51/51/26
f 52/52/26 54/54/27 53/53/27
f 54/54/27 56/56/28 55/55/28
f 56/56/28 58/58/29 57/57/29
f 58/58/29 60/60/30 59/59/30
f 60/60/30 62/62/31 61/61/31
f 62/62/31 64/64/32 63/63/32
f 64/64/32 2/180/1 1/65/1
f 67/66/18 68/70/18 66/67/33
f 69/69/19 70/72/19 68/70/18
f 71/71/34 72/182/34 70/72/19
f 194/73/9 193/216/9 65/68/9
f 75/74/22 76/78/22 74/75/35
f 77/77/23 78/80/23 76/78/22
f 79/79/36 80/83/36 78/80/23
f 199/81/37 201/220/37 82/82/37
f 83/84/26 84/87/26 82/82/38
f 85/86/27 86/89/27 84/87/26
f 87/88/39 88/189/39 86/89/27
f 220/90/20 219/100/20 120/91/20
f 91/93/30 92/97/30 90/94/40
f 93/96/31 94/99/31 92/97/30
f 95/98/41 96/192/41 94/99/31
f 219/100/37 221/224/37 122/101/37
f 99/102/2 100/106/2 98/103/42
f 101/105/3 102/108/3 100/106/2
f 103/107/43 104/195/43 102/108/3
f 202/109/44 200/206/44 79/79/44
f 107/110/6 108/114/6 106/111/45
f 109/113/7 110/116/7 108/114/6
f 111/115/46 112/198/46 110/116/7
f 222/117/44 220/90/44 119/92/44
f 115/119/10 116/123/10 114/120/47
f 117/122/11 118/124/11 116/123/10
f 119/92/48 120/91/48 118/124/11
f 224/125/24 223/229/24 128/126/24
f 123/128/14 124/130/14 122/101/49
f 125/129/15 126/131/15 124/130/14
f 127/127/50 128/126/50 126/131/15
f 197/132/13 198/207/13 73/76/13
f 48/48/37 176/197/37 178/133/37
f 143/134/44 141/186/44 13/13/44
f 161/135/44 159/181/44 31/31/44
f 14/14/37 142/185/37 144/136/37
f 51/51/44 179/142/44 177/137/44
f 160/138/37 162/143/37 34/34/37
f 178/133/37 180/144/37 52/52/37
f 145/139/44 143/134/44 15/15/44
f 163/140/44 161/135/44 33/33/44
f 16/16/37 144/136/37 146/141/37
f 53/53/44 181/200/44 179/142/44
f 162/143/37 164/147/37 36/36/37
f 180/144/37 182/149/37 54/54/37
f 19/19/44 147/188/44 145/139/44
f 37/37/44 165/194/44 163/140/44
f 146/141/37 148/187/37 20/20/37
f 3/2/44 130/155/44 129/145/44
f 183/146/44 181/200/44 53/53/44
f 164/147/37 166/193/37 38/38/37
f 132/148/37 131/157/37 4/4/37
f 182/149/37 184/201/37 56/56/37
f 149/150/44 147/188/44 19/19/44
f 167/151/44 165/194/44 37/37/44
f 20/20/37 148/187/37 150/152/37
f 185/153/44 183/146/44 55/55/44
f 38/38/37 166/193/37 168/154/37
f 5/5/44 133/160/44 130/155/44
f 56/56/37 184/201/37 186/156/37
f 23/23/44 151/190/44 149/150/44
f 131/157/37 134/162/37 6/6/37
f 169/158/44 167/151/44 39/39/44
f 150/152/37 152/164/37 24/24/37
f 187/159/44 185/153/44 57/57/44
f 168/154/37 170/196/37 42/42/37
f 7/7/44 135/167/44 133/160/44
f 186/156/37 188/202/37 60/60/37
f 153/161/44 151/190/44 23/23/44
f 134/162/37 136/170/37 8/8/37
f 171/163/44 169/158/44 41/41/44
f 152/164/37 154/172/37 26/26/37
f 189/165/44 187/159/44 59/59/44
f 42/42/37 170/196/37 172/166/37
f 9/9/44 137/184/44 135/167/44
f 60/60/37 188/202/37 190/168/37
f 155/169/44 153/161/44 25/25/44
f 136/170/37 138/183/37 10/10/37
f 173/171/44 171/163/44 43/43/44
f 154/172/37 156/191/37 28/28/37
f 63/63/44 191/178/44 189/165/44
f 44/44/37 172/166/37 174/173/37
f 139/174/44 137/184/44 9/9/44
f 190/168/37 192/179/37 64/64/37
f 157/175/44 155/169/44 27/27/44
f 10/10/37 138/183/37 140/176/37
f 47/47/44 175/199/44 173/171/44
f 28/28/37 156/191/37 158/177/37
f 1/65/44 129/266/44 191/178/44
f 174/173/37 176/197/37 48/48/37
f 13/13/44 141/186/44 139/174/44
f 192/179/37 132/204/37 2/180/37
f 159/181/44 157/175/44 29/29/44
f 140/176/37 142/185/37 14/14/37
f 177/137/44 175/199/44 47/47/44
f 30/30/37 158/177/37 160/138/37
f 129/145/17 130/155/18 67/66/18
f 131/157/18 132/148/17 66/67/33
f 130/155/18 133/160/19 69/69/19
f 134/162/19 131/157/18 68/70/18
f 133/160/19 135/167/20 71/71/34
f 136/170/20 134/162/19 70/72/19
f 135/167/20 137/184/21 73/76/35
f 138/183/21 136/170/20 72/182/34
f 137/184/21 139/174/22 75/74/22
f 140/176/22 138/183/21 74/75/35
f 139/174/22 141/186/23 77/77/23
f 142/185/23 140/176/22 76/78/22
f 141/186/23 143/134/24 79/79/36
f 144/136/24 142/185/23 78/80/23
f 143/134/24 145/139/25 81/85/38
f 146/141/25 144/136/24 80/83/36
f 145/139/25 147/188/26 83/84/26
f 148/187/26 146/141/25 82/82/38
f 147/188/26 149/150/27 85/86/27
f 150/152/27 148/187/26 84/87/26
f 149/150/27 151/190/28 87/88/39
f 152/164/28 150/152/27 86/89/27
f 151/190/28 153/161/29 89/95/40
f 154/172/29 152/164/28 88/189/39
f 153/161/29 155/169/30 91/93/30
f 156/191/30 154/172/29 90/94/40
f 155/169/30 157/175/31 93/96/31
f 158/177/31 156/191/30 92/97/30
f 157/175/31 159/181/32 95/98/41
f 160/138/32 158/177/31 94/99/31
f 159/181/32 161/135/1 97/104/42
f 162/143/1 160/138/32 96/192/41
f 161/135/1 163/140/2 99/102/2
f 164/147/2 162/143/1 98/103/42
f 163/140/2 165/194/3 101/105/3
f 166/193/3 164/147/2 100/106/2
f 165/194/3 167/151/4 103/107/43
f 168/154/4 166/193/3 102/108/3
f 167/151/4 169/158/5 105/112/45
f 170/196/5 168/154/4 104/195/43
f 169/158/5 171/163/6 107/110/6
f 172/166/6 170/196/5 106/111/45
f 171/163/6 173/171/7 109/113/7
f 174/173/7 172/166/6 108/114/6
f 173/171/7 175/199/8 111/115/46
f 176/197/8 174/173/7 110/116/7
f 175/199/8 177/137/9 113/121/47
f 178/133/9 176/197/8 112/198/46
f 177/137/9 179/142/10 115/119/10
f 180/144/10 178/133/9 114/120/47
f 179/142/10 181/200/11 117/122/11
f 182/149/11 180/144/10 116/123/10
f 181/200/11 183/146/12 119/92/48
f 184/201/12 182/149/11 118/124/11
f 183/146/12 185/153/13 121/118/49
f 186/156/13 184/201/12 120/91/48
f 185/153/13 187/159/14 123/128/14
f 188/202/14 186/156/13 122/101/49
f 187/159/14 189/165/15 125/129/15
f 190/168/15 188/202/14 124/130/14
f 189/165/15 191/178/16 127/127/50
f 192/179/16 190/168/15 126/131/15
f 191/178/16 129/266/17 65/203/33
f 132/204/17 192/179/16 128/126/50
f 197/132/51 199/81/51 200/206/51
f 211/208/52 212/227/52 210/209/52
f 207/211/53 208/226/53 206/212/53
f 217/214/54 219/100/54 220/90/54
f 193/216/55 194/73/55 195/217/55
f 203/219/56 204/225/56 202/109/56
f 215/221/57 216/228/57 214/222/57
f 221/224/58 223/229/58 224/125/58
f 195/217/59 197/132/59 198/207/59
f 202/109/60 199/81/60 201/220/60
f 206/212/61 203/219/61 205/213/61
f 210/209/62 207/211/62 209/210/62
f 211/208/63 213/223/63 214/222/63
f 218/215/64 215/221/64 217/214/64
f 219/100/65 221/224/65 222/117/65
f 223/229/66 194/231/66 193/230/66
f 216/228/16 215/221/16 112/198/16
f 210/209/44 208/226/44 95/98/44
f 207/211/37 209/210/37 98/103/37
f 212/227/12 211/208/12 104/195/12
f 221/224/5 222/117/5 121/118/5
f 208/226/8 207/211/8 96/192/8
f 218/215/44 216/228/44 111/115/44
f 217/214/1 218/215/1 113/121/1
f 198/207/44 196/218/44 71/71/44
f 215/221/37 217/214/37 114/120/37
f 72/182/37 195/217/37 197/132/37
f 204/225/4 203/219/4 88/189/4
f 213/223/29 214/222/29 105/112/29
f 193/230/44 224/125/44 127/127/44
f 200/206/32 199/81/32 80/83/32
f 206/212/44 204/225/44 87/88/44
f 209/210/25 210/209/25 97/104/25
f 128/126/37 223/229/37 194/231/37
f 88/189/37 203/219/37 205/213/37
f 196/218/28 195/217/28 72/182/28
f 205/213/21 206/212/21 89/95/21
f 214/222/44 212/227/44 103/107/44
f 201/220/17 202/109/17 81/85/17
f 104/195/37 211/208/37 213/223/37
