# Blender 4.4.3
# www.blender.org
mtllib SawArm1_1.mtl
g Cylinder.002_Mesh
v 0.361936 -0.000076 0.818935
v 0.361936 -0.000076 0.818935
v 0.361936 -0.000076 0.818935
v -0.361936 -0.000076 0.818935
v -0.361936 -0.000076 0.818935
v -0.361936 -0.000076 0.818935
v 0.361936 -0.159841 0.803185
v 0.361936 -0.159841 0.803185
v 0.361936 -0.159841 0.803185
v -0.361936 -0.159840 0.803185
v -0.361936 -0.159840 0.803185
v -0.361936 -0.159840 0.803185
v 0.361936 -0.313462 0.756569
v 0.361936 -0.313462 0.756569
v 0.361936 -0.313462 0.756569
v -0.361936 -0.313462 0.756569
v -0.361936 -0.313462 0.756569
v -0.361936 -0.313462 0.756569
v 0.361936 -0.455038 0.680879
v 0.361936 -0.455038 0.680879
v 0.361936 -0.455038 0.680879
v -0.361936 -0.455037 0.680879
v -0.361936 -0.455037 0.680879
v -0.361936 -0.455037 0.680879
v 0.361936 -0.579126 0.579022
v 0.361936 -0.579126 0.579022
v 0.361936 -0.579126 0.579022
v -0.361936 -0.579126 0.579022
v -0.361936 -0.579126 0.579022
v -0.361936 -0.579126 0.579022
v 0.361936 -0.680959 0.454915
v 0.361936 -0.680959 0.454915
v 0.361936 -0.680959 0.454915
v -0.361936 -0.680959 0.454915
v -0.361936 -0.680959 0.454915
v -0.361936 -0.680959 0.454915
v 0.361936 -0.756623 0.313325
v 0.361936 -0.756623 0.313325
v 0.361936 -0.756623 0.313325
v -0.361936 -0.756623 0.313325
v -0.361936 -0.756623 0.313325
v -0.361936 -0.756623 0.313325
v 0.361936 -0.803211 0.159695
v 0.361936 -0.803211 0.159695
v 0.361936 -0.803211 0.159695
v -0.361936 -0.803211 0.159695
v -0.361936 -0.803211 0.159695
v -0.361936 -0.803211 0.159695
v 0.361936 -0.818932 -0.000073
v 0.361936 -0.818932 -0.000073
v 0.361936 -0.818932 -0.000073
v -0.361936 -0.818932 -0.000073
v -0.361936 -0.818932 -0.000073
v -0.361936 -0.818932 -0.000073
v 0.361936 -0.803182 -0.159836
v 0.361936 -0.803182 -0.159836
v 0.361936 -0.803182 -0.159836
v -0.361936 -0.803181 -0.159836
v -0.361936 -0.803181 -0.159836
v -0.361936 -0.803181 -0.159836
v 0.361936 -0.756565 -0.313458
v 0.361936 -0.756565 -0.313458
v 0.361936 -0.756565 -0.313458
v -0.361936 -0.756565 -0.313458
v -0.361936 -0.756565 -0.313458
v -0.361936 -0.756565 -0.313458
v 0.361936 -0.680875 -0.455034
v 0.361936 -0.680875 -0.455034
v 0.361936 -0.680875 -0.455034
v -0.361936 -0.680875 -0.455034
v -0.361936 -0.680875 -0.455034
v -0.361936 -0.680875 -0.455034
v 0.361936 -0.579018 -0.579123
v 0.361936 -0.579018 -0.579123
v 0.361936 -0.579018 -0.579123
v -0.361936 -0.579018 -0.579123
v -0.361936 -0.579018 -0.579123
v -0.361936 -0.579018 -0.579123
v 0.361936 -0.454911 -0.680956
v 0.361936 -0.454911 -0.680956
v 0.361936 -0.454911 -0.680956
v -0.361936 -0.454911 -0.680956
v -0.361936 -0.454911 -0.680956
v -0.361936 -0.454911 -0.680956
v 0.361936 -0.313322 -0.756620
v 0.361936 -0.313322 -0.756620
v 0.361936 -0.313322 -0.756620
v -0.361936 -0.313321 -0.756620
v -0.361936 -0.313321 -0.756620
v -0.361936 -0.313321 -0.756620
v 0.361936 -0.159691 -0.803208
v 0.361936 -0.159691 -0.803208
v 0.361936 -0.159691 -0.803208
v -0.361936 -0.159691 -0.803208
v -0.361936 -0.159691 -0.803208
v -0.361936 -0.159691 -0.803208
v 0.361936 0.000076 -0.818929
v 0.361936 0.000076 -0.818929
v 0.361936 0.000076 -0.818929
v -0.361936 0.000076 -0.818928
v -0.361936 0.000076 -0.818928
v -0.361936 0.000076 -0.818928
v 0.361936 0.159840 -0.803179
v 0.361936 0.159840 -0.803179
v 0.361936 0.159840 -0.803179
v -0.361936 0.159841 -0.803178
v -0.361936 0.159841 -0.803178
v -0.361936 0.159841 -0.803178
v 0.361936 0.313462 -0.756562
v 0.361936 0.313462 -0.756562
v 0.361936 0.313462 -0.756562
v -0.361936 0.313462 -0.756562
v -0.361936 0.313462 -0.756562
v -0.361936 0.313462 -0.756562
v 0.361936 0.455037 -0.680872
v 0.361936 0.455037 -0.680872
v 0.361936 0.455037 -0.680872
v -0.361936 0.455037 -0.680872
v -0.361936 0.455037 -0.680872
v -0.361936 0.455037 -0.680872
v 0.361936 0.579126 -0.579016
v 0.361936 0.579126 -0.579016
v 0.361936 0.579126 -0.579016
v -0.361936 0.579126 -0.579016
v -0.361936 0.579126 -0.579016
v -0.361936 0.579126 -0.579016
v 0.361936 0.680959 -0.454908
v 0.361936 0.680959 -0.454908
v 0.361936 0.680959 -0.454908
v -0.361936 0.680959 -0.454908
v -0.361936 0.680959 -0.454908
v -0.361936 0.680959 -0.454908
v 0.361936 0.756623 -0.313318
v 0.361936 0.756623 -0.313318
v 0.361936 0.756623 -0.313318
v -0.361936 0.756623 -0.313318
v -0.361936 0.756623 -0.313318
v -0.361936 0.756623 -0.313318
v 0.361936 0.803211 -0.159688
v 0.361936 0.803211 -0.159688
v 0.361936 0.803211 -0.159688
v -0.361936 0.803211 -0.159688
v -0.361936 0.803211 -0.159688
v -0.361936 0.803211 -0.159688
v 0.361936 0.818932 0.000079
v 0.361936 0.818932 0.000079
v 0.361936 0.818932 0.000079
v -0.361936 0.818932 0.000079
v -0.361936 0.818932 0.000079
v -0.361936 0.818932 0.000079
v 0.361936 0.803181 0.159843
v 0.361936 0.803181 0.159843
v 0.361936 0.803181 0.159843
v -0.361936 0.803182 0.159843
v -0.361936 0.803182 0.159843
v -0.361936 0.803182 0.159843
v 0.361936 0.756565 0.313465
v 0.361936 0.756565 0.313465
v 0.361936 0.756565 0.313465
v -0.361936 0.756565 0.313465
v -0.361936 0.756565 0.313465
v -0.361936 0.756565 0.313465
v 0.361936 0.680875 0.455041
v 0.361936 0.680875 0.455041
v 0.361936 0.680875 0.455041
v -0.361936 0.680875 0.455041
v -0.361936 0.680875 0.455041
v -0.361936 0.680875 0.455041
v 0.361936 0.579018 0.579130
v 0.361936 0.579018 0.579130
v 0.361936 0.579018 0.579130
v -0.361936 0.579018 0.579130
v -0.361936 0.579018 0.579130
v -0.361936 0.579018 0.579130
v 0.361936 0.454911 0.680963
v 0.361936 0.454911 0.680963
v 0.361936 0.454911 0.680963
v -0.361936 0.454911 0.680963
v -0.361936 0.454911 0.680963
v -0.361936 0.454911 0.680963
v 0.361936 0.313321 0.756627
v 0.361936 0.313321 0.756627
v 0.361936 0.313321 0.756627
v -0.361936 0.313322 0.756626
v -0.361936 0.313322 0.756626
v -0.361936 0.313322 0.756626
v 0.361936 0.159691 0.803214
v 0.361936 0.159691 0.803214
v 0.361936 0.159691 0.803214
v -0.361936 0.159691 0.803214
v -0.361936 0.159691 0.803214
v -0.361936 0.159691 0.803214
vn -0.0000 -0.0981 0.9952
vn -0.0000 -0.2904 0.9569
vn -0.0000 -0.4715 0.8819
vn -0.0000 -0.6345 0.7729
vn -0.0000 -0.7731 0.6343
vn -0.0000 -0.8820 0.4713
vn -0.0000 -0.9570 0.2902
vn -0.0000 -0.9952 0.0979
vn -0.0000 -0.9952 -0.0981
vn -0.0000 -0.9569 -0.2904
vn -0.0000 -0.8819 -0.4715
vn -0.0000 -0.7730 -0.6345
vn -0.0000 -0.6343 -0.7731
vn -0.0000 -0.4713 -0.8820
vn -0.0000 -0.2902 -0.9570
vn -0.0000 -0.0979 -0.9952
vn -0.0000 0.0981 -0.9952
vn -0.0000 0.2904 -0.9569
vn -0.0000 0.4715 -0.8819
vn -0.0000 0.6345 -0.7730
vn -0.0000 0.7731 -0.6343
vn -0.0000 0.8820 -0.4713
vn -0.0000 0.9570 -0.2902
vn -0.0000 0.9952 -0.0979
vn -0.0000 0.9952 0.0981
vn -0.0000 0.9569 0.2904
vn -0.0000 0.8819 0.4715
vn -0.0000 0.7730 0.6345
vn -0.0000 0.6343 0.7731
vn -0.0000 0.4713 0.8820
vn -1.0000 -0.0000 -0.0000
vn -0.0000 0.2902 0.9570
vn -0.0000 0.0979 0.9952
vn 1.0000 -0.0000 -0.0000
vt 1.000000 0.500000
vt 1.000000 1.000000
vt 0.968750 1.000000
vt 0.968750 0.500000
vt 0.937500 1.000000
vt 0.937500 0.500000
vt 0.906250 1.000000
vt 0.906250 0.500000
vt 0.875000 1.000000
vt 0.875000 0.500000
vt 0.843750 1.000000
vt 0.843750 0.500000
vt 0.812500 1.000000
vt 0.812500 0.500000
vt 0.781250 1.000000
vt 0.781250 0.500000
vt 0.750000 1.000000
vt 0.750000 0.500000
vt 0.718750 1.000000
vt 0.718750 0.500000
vt 0.687500 1.000000
vt 0.687500 0.500000
vt 0.656250 1.000000
vt 0.656250 0.500000
vt 0.625000 1.000000
vt 0.625000 0.500000
vt 0.593750 1.000000
vt 0.593750 0.500000
vt 0.562500 1.000000
vt 0.562500 0.500000
vt 0.531250 1.000000
vt 0.531250 0.500000
vt 0.500000 1.000000
vt 0.500000 0.500000
vt 0.468750 1.000000
vt 0.468750 0.500000
vt 0.437500 1.000000
vt 0.437500 0.500000
vt 0.406250 1.000000
vt 0.406250 0.500000
vt 0.375000 1.000000
vt 0.375000 0.500000
vt 0.343750 1.000000
vt 0.343750 0.500000
vt 0.312500 1.000000
vt 0.312500 0.500000
vt 0.281250 1.000000
vt 0.281250 0.500000
vt 0.250000 1.000000
vt 0.250000 0.500000
vt 0.218750 1.000000
vt 0.218750 0.500000
vt 0.187500 1.000000
vt 0.187500 0.500000
vt 0.156250 1.000000
vt 0.156250 0.500000
vt 0.125000 1.000000
vt 0.125000 0.500000
vt 0.093750 1.000000
vt 0.093750 0.500000
vt 0.062500 1.000000
vt 0.062500 0.500000
vt 0.341844 0.471731
vt 0.296822 0.485388
vt 0.250000 0.490000
vt 0.203178 0.485388
vt 0.158156 0.471731
vt 0.116663 0.449553
vt 0.080294 0.419706
vt 0.050447 0.383337
vt 0.028269 0.341844
vt 0.014612 0.296822
vt 0.010000 0.250000
vt 0.014612 0.203178
vt 0.028269 0.158156
vt 0.050447 0.116663
vt 0.080294 0.080294
vt 0.116663 0.050447
vt 0.158156 0.028269
vt 0.203178 0.014612
vt 0.250000 0.010000
vt 0.296822 0.014612
vt 0.341844 0.028269
vt 0.383337 0.050447
vt 0.419706 0.080294
vt 0.449553 0.116663
vt 0.471731 0.158156
vt 0.485388 0.203178
vt 0.490000 0.250000
vt 0.485388 0.296822
vt 0.471731 0.341844
vt 0.449553 0.383337
vt 0.419706 0.419706
vt 0.383337 0.449553
vt 0.031250 1.000000
vt 0.031250 0.500000
vt 0.000000 1.000000
vt 0.000000 0.500000
vt 0.703178 0.485388
vt 0.750000 0.490000
vt 0.796822 0.485388
vt 0.841844 0.471731
vt 0.883337 0.449553
vt 0.919706 0.419706
vt 0.949553 0.383337
vt 0.971731 0.341844
vt 0.985388 0.296822
vt 0.990000 0.250000
vt 0.985388 0.203178
vt 0.971731 0.158156
vt 0.949553 0.116663
vt 0.919706 0.080294
vt 0.883337 0.050447
vt 0.841844 0.028269
vt 0.796822 0.014612
vt 0.750000 0.010000
vt 0.703178 0.014612
vt 0.658156 0.028269
vt 0.616663 0.050447
vt 0.580294 0.080294
vt 0.550447 0.116663
vt 0.528269 0.158156
vt 0.514612 0.203178
vt 0.510000 0.250000
vt 0.514612 0.296822
vt 0.528269 0.341844
vt 0.550447 0.383337
vt 0.580294 0.419706
vt 0.616663 0.449553
vt 0.658156 0.471731
s 0
f 2/1/1 5/2/1 11/3/1
f 2/1/1 11/3/1 8/4/1
f 9/4/2 12/3/2 17/5/2
f 9/4/2 17/5/2 14/6/2
f 15/6/3 18/5/3 23/7/3
f 15/6/3 23/7/3 20/8/3
f 21/8/4 24/7/4 29/9/4
f 21/8/4 29/9/4 26/10/4
f 27/10/5 30/9/5 35/11/5
f 27/10/5 35/11/5 32/12/5
f 33/12/6 36/11/6 41/13/6
f 33/12/6 41/13/6 38/14/6
f 39/14/7 42/13/7 47/15/7
f 39/14/7 47/15/7 44/16/7
f 45/16/8 48/15/8 54/17/8
f 45/16/8 54/17/8 51/18/8
f 50/18/9 53/17/9 60/19/9
f 50/18/9 60/19/9 57/20/9
f 56/20/10 59/19/10 66/21/10
f 56/20/10 66/21/10 63/22/10
f 62/22/11 65/21/11 72/23/11
f 62/22/11 72/23/11 69/24/11
f 68/24/12 71/23/12 78/25/12
f 68/24/12 78/25/12 75/26/12
f 74/26/13 77/25/13 84/27/13
f 74/26/13 84/27/13 81/28/13
f 80/28/14 83/27/14 90/29/14
f 80/28/14 90/29/14 87/30/14
f 86/30/15 89/29/15 96/31/15
f 86/30/15 96/31/15 93/32/15
f 92/32/16 95/31/16 101/33/16
f 92/32/16 101/33/16 98/34/16
f 99/34/17 102/33/17 107/35/17
f 99/34/17 107/35/17 104/36/17
f 105/36/18 108/35/18 113/37/18
f 105/36/18 113/37/18 110/38/18
f 111/38/19 114/37/19 119/39/19
f 111/38/19 119/39/19 116/40/19
f 117/40/20 120/39/20 125/41/20
f 117/40/20 125/41/20 122/42/20
f 123/42/21 126/41/21 131/43/21
f 123/42/21 131/43/21 128/44/21
f 129/44/22 132/43/22 137/45/22
f 129/44/22 137/45/22 134/46/22
f 135/46/23 138/45/23 143/47/23
f 135/46/23 143/47/23 140/48/23
f 141/48/24 144/47/24 149/49/24
f 141/48/24 149/49/24 146/50/24
f 147/50/25 150/49/25 156/51/25
f 147/50/25 156/51/25 153/52/25
f 152/52/26 155/51/26 162/53/26
f 152/52/26 162/53/26 159/54/26
f 158/54/27 161/53/27 168/55/27
f 158/54/27 168/55/27 165/56/27
f 164/56/28 167/55/28 174/57/28
f 164/56/28 174/57/28 171/58/28
f 170/58/29 173/57/29 180/59/29
f 170/58/29 180/59/29 177/60/29
f 176/60/30 179/59/30 186/61/30
f 176/60/30 186/61/30 183/62/30
f 16/63/31 10/64/31 4/65/31
f 4/65/31 190/66/31 184/67/31
f 184/67/31 178/68/31 172/69/31
f 172/69/31 166/70/31 160/71/31
f 160/71/31 154/72/31 148/73/31
f 148/73/31 142/74/31 136/75/31
f 136/75/31 130/76/31 124/77/31
f 124/77/31 118/78/31 112/79/31
f 112/79/31 106/80/31 100/81/31
f 100/81/31 94/82/31 88/83/31
f 88/83/31 82/84/31 76/85/31
f 76/85/31 70/86/31 64/87/31
f 64/87/31 58/88/31 52/89/31
f 52/89/31 46/90/31 40/91/31
f 40/91/31 34/92/31 28/93/31
f 28/93/31 22/94/31 16/63/31
f 16/63/31 4/65/31 184/67/31
f 184/67/31 172/69/31 160/71/31
f 160/71/31 148/73/31 136/75/31
f 136/75/31 124/77/31 112/79/31
f 112/79/31 100/81/31 88/83/31
f 88/83/31 76/85/31 64/87/31
f 64/87/31 52/89/31 40/91/31
f 40/91/31 28/93/31 16/63/31
f 16/63/31 184/67/31 160/71/31
f 160/71/31 136/75/31 112/79/31
f 112/79/31 88/83/31 64/87/31
f 64/87/31 40/91/31 16/63/31
f 16/63/31 160/71/31 112/79/31
f 112/79/31 64/87/31 16/63/31
f 182/62/32 185/61/32 192/95/32
f 182/62/32 192/95/32 189/96/32
f 188/96/33 191/95/33 6/97/33
f 188/96/33 6/97/33 3/98/33
f 187/99/34 1/100/34 7/101/34
f 7/101/34 13/102/34 19/103/34
f 19/103/34 25/104/34 31/105/34
f 31/105/34 37/106/34 43/107/34
f 43/107/34 49/108/34 55/109/34
f 55/109/34 61/110/34 67/111/34
f 67/111/34 73/112/34 79/113/34
f 79/113/34 85/114/34 91/115/34
f 91/115/34 97/116/34 103/117/34
f 103/117/34 109/118/34 115/119/34
f 115/119/34 121/120/34 127/121/34
f 127/121/34 133/122/34 139/123/34
f 139/123/34 145/124/34 151/125/34
f 151/125/34 157/126/34 163/127/34
f 163/127/34 169/128/34 175/129/34
f 175/129/34 181/130/34 187/99/34
f 187/99/34 7/101/34 19/103/34
f 19/103/34 31/105/34 43/107/34
f 43/107/34 55/109/34 67/111/34
f 67/111/34 79/113/34 91/115/34
f 91/115/34 103/117/34 115/119/34
f 115/119/34 127/121/34 139/123/34
f 139/123/34 151/125/34 163/127/34
f 163/127/34 175/129/34 187/99/34
f 187/99/34 19/103/34 43/107/34
f 43/107/34 67/111/34 91/115/34
f 91/115/34 115/119/34 139/123/34
f 139/123/34 163/127/34 187/99/34
f 187/99/34 43/107/34 91/115/34
f 91/115/34 139/123/34 187/99/34
g Cylinder.003_Mesh
v 0.366449 -0.000076 13.451767
v 0.366449 -0.000076 13.451767
v 0.366449 -0.000076 13.451767
v -0.357424 -0.000075 13.451767
v -0.357424 -0.000075 13.451767
v -0.357424 -0.000075 13.451767
v 0.366449 -0.159840 13.436016
v 0.366449 -0.159840 13.436016
v 0.366449 -0.159840 13.436016
v -0.357424 -0.159840 13.436017
v -0.357424 -0.159840 13.436017
v -0.357424 -0.159840 13.436017
v 0.366449 -0.313462 13.389401
v 0.366449 -0.313462 13.389401
v 0.366449 -0.313462 13.389401
v -0.357424 -0.313462 13.389401
v -0.357424 -0.313462 13.389401
v -0.357424 -0.313462 13.389401
v 0.366449 -0.455037 13.313710
v 0.366449 -0.455037 13.313710
v 0.366449 -0.455037 13.313710
v -0.357424 -0.455037 13.313710
v -0.357424 -0.455037 13.313710
v -0.357424 -0.455037 13.313710
v 0.366449 -0.579125 13.211853
v 0.366449 -0.579125 13.211853
v 0.366449 -0.579125 13.211853
v -0.357424 -0.579125 13.211853
v -0.357424 -0.579125 13.211853
v -0.357424 -0.579125 13.211853
v 0.366449 -0.680959 13.087746
v 0.366449 -0.680959 13.087746
v 0.366449 -0.680959 13.087746
v -0.357424 -0.680958 13.087747
v -0.357424 -0.680958 13.087747
v -0.357424 -0.680958 13.087747
v 0.366448 -0.756623 12.946157
v 0.366448 -0.756623 12.946157
v 0.366448 -0.756623 12.946157
v -0.357424 -0.756623 12.946157
v -0.357424 -0.756623 12.946157
v -0.357424 -0.756623 12.946157
v 0.366449 -0.803211 12.792526
v 0.366449 -0.803211 12.792526
v 0.366449 -0.803211 12.792526
v -0.357424 -0.803210 12.792526
v -0.357424 -0.803210 12.792526
v -0.357424 -0.803210 12.792526
v 0.366449 -0.818931 12.632758
v 0.366449 -0.818931 12.632758
v 0.366449 -0.818931 12.632758
v -0.357424 -0.818931 12.632758
v -0.357424 -0.818931 12.632758
v -0.357424 -0.818931 12.632758
v 0.366448 -0.803181 12.472995
v 0.366448 -0.803181 12.472995
v 0.366448 -0.803181 12.472995
v -0.357424 -0.803181 12.472995
v -0.357424 -0.803181 12.472995
v -0.357424 -0.803181 12.472995
v 0.366448 -0.756565 12.319373
v 0.366448 -0.756565 12.319373
v 0.366448 -0.756565 12.319373
v -0.357424 -0.756565 12.319373
v -0.357424 -0.756565 12.319373
v -0.357424 -0.756565 12.319373
v 0.366449 -0.680874 12.177797
v 0.366449 -0.680874 12.177797
v 0.366449 -0.680874 12.177797
v -0.357424 -0.680874 12.177797
v -0.357424 -0.680874 12.177797
v -0.357424 -0.680874 12.177797
v 0.366449 -0.579018 12.053709
v 0.366449 -0.579018 12.053709
v 0.366449 -0.579018 12.053709
v -0.357424 -0.579018 12.053709
v -0.357424 -0.579018 12.053709
v -0.357424 -0.579018 12.053709
v 0.366449 -0.454910 11.951875
v 0.366449 -0.454910 11.951875
v 0.366449 -0.454910 11.951875
v -0.357424 -0.454910 11.951875
v -0.357424 -0.454910 11.951875
v -0.357424 -0.454910 11.951875
v 0.366449 -0.313321 11.876211
v 0.366449 -0.313321 11.876211
v 0.366449 -0.313321 11.876211
v -0.357424 -0.313320 11.876211
v -0.357424 -0.313320 11.876211
v -0.357424 -0.313320 11.876211
v 0.366449 -0.159691 11.829624
v 0.366449 -0.159691 11.829624
v 0.366449 -0.159691 11.829624
v -0.357424 -0.159690 11.829624
v -0.357424 -0.159690 11.829624
v -0.357424 -0.159690 11.829624
v 0.366449 0.000076 11.813903
v 0.366449 0.000076 11.813903
v 0.366449 0.000076 11.813903
v -0.357424 0.000077 11.813903
v -0.357424 0.000077 11.813903
v -0.357424 0.000077 11.813903
v 0.366449 0.159841 11.829653
v 0.366449 0.159841 11.829653
v 0.366449 0.159841 11.829653
v -0.357424 0.159841 11.829653
v -0.357424 0.159841 11.829653
v -0.357424 0.159841 11.829653
v 0.366449 0.313462 11.876269
v 0.366449 0.313462 11.876269
v 0.366449 0.313462 11.876269
v -0.357424 0.313463 11.876269
v -0.357424 0.313463 11.876269
v -0.357424 0.313463 11.876269
v 0.366449 0.455038 11.951961
v 0.366449 0.455038 11.951961
v 0.366449 0.455038 11.951961
v -0.357424 0.455038 11.951961
v -0.357424 0.455038 11.951961
v -0.357424 0.455038 11.951961
v 0.366449 0.579126 12.053816
v 0.366449 0.579126 12.053816
v 0.366449 0.579126 12.053816
v -0.357424 0.579126 12.053816
v -0.357424 0.579126 12.053816
v -0.357424 0.579126 12.053816
v 0.366449 0.680959 12.177923
v 0.366449 0.680959 12.177923
v 0.366449 0.680959 12.177923
v -0.357424 0.680960 12.177923
v -0.357424 0.680960 12.177923
v -0.357424 0.680960 12.177923
v 0.366449 0.756624 12.319513
v 0.366449 0.756624 12.319513
v 0.366449 0.756624 12.319513
v -0.357424 0.756624 12.319513
v -0.357424 0.756624 12.319513
v -0.357424 0.756624 12.319513
v 0.366449 0.803211 12.473144
v 0.366449 0.803211 12.473144
v 0.366449 0.803211 12.473144
v -0.357424 0.803211 12.473144
v -0.357424 0.803211 12.473144
v -0.357424 0.803211 12.473144
v 0.366449 0.818932 12.632911
v 0.366449 0.818932 12.632911
v 0.366449 0.818932 12.632911
v -0.357424 0.818932 12.632911
v -0.357424 0.818932 12.632911
v -0.357424 0.818932 12.632911
v 0.366449 0.803182 12.792675
v 0.366449 0.803182 12.792675
v 0.366449 0.803182 12.792675
v -0.357424 0.803182 12.792675
v -0.357424 0.803182 12.792675
v -0.357424 0.803182 12.792675
v 0.366449 0.756566 12.946297
v 0.366449 0.756566 12.946297
v 0.366449 0.756566 12.946297
v -0.357424 0.756566 12.946297
v -0.357424 0.756566 12.946297
v -0.357424 0.756566 12.946297
v 0.366449 0.680875 13.087872
v 0.366449 0.680875 13.087872
v 0.366449 0.680875 13.087872
v -0.357424 0.680875 13.087872
v -0.357424 0.680875 13.087872
v -0.357424 0.680875 13.087872
v 0.366449 0.579019 13.211962
v 0.366449 0.579019 13.211962
v 0.366449 0.579019 13.211962
v -0.357424 0.579019 13.211962
v -0.357424 0.579019 13.211962
v -0.357424 0.579019 13.211962
v 0.366449 0.454911 13.313794
v 0.366449 0.454911 13.313794
v 0.366449 0.454911 13.313794
v -0.357424 0.454911 13.313794
v -0.357424 0.454911 13.313794
v -0.357424 0.454911 13.313794
v 0.366449 0.313321 13.389459
v 0.366449 0.313321 13.389459
v 0.366449 0.313321 13.389459
v -0.357424 0.313322 13.389458
v -0.357424 0.313322 13.389458
v -0.357424 0.313322 13.389458
v 0.366449 0.159691 13.436047
v 0.366449 0.159691 13.436047
v 0.366449 0.159691 13.436047
v -0.357424 0.159692 13.436047
v -0.357424 0.159692 13.436047
v -0.357424 0.159692 13.436047
vn -0.0000 -0.0981 0.9952
vn -0.0000 -0.2904 0.9569
vn -0.0000 -0.4715 0.8819
vn -0.0000 -0.6345 0.7729
vn -0.0000 -0.7731 0.6343
vn -0.0000 -0.8820 0.4713
vn -0.0000 -0.9570 0.2902
vn -0.0000 -0.9952 0.0979
vn -0.0000 -0.9952 -0.0981
vn -0.0000 -0.9569 -0.2904
vn -0.0000 -0.8819 -0.4715
vn -0.0000 -0.7729 -0.6345
vn -0.0000 -0.6343 -0.7731
vn -0.0000 -0.4713 -0.8820
vn -0.0000 -0.2902 -0.9570
vn -0.0000 -0.0979 -0.9952
vn -0.0000 0.0981 -0.9952
vn -0.0000 0.2904 -0.9569
vn -0.0000 0.4715 -0.8819
vn -0.0000 0.6345 -0.7730
vn -0.0000 0.7731 -0.6343
vn -0.0000 0.8820 -0.4713
vn -0.0000 0.9570 -0.2902
vn -0.0000 0.9952 -0.0979
vn -0.0000 0.9952 0.0981
vn -0.0000 0.9569 0.2904
vn -0.0000 0.8819 0.4715
vn -0.0000 0.7730 0.6345
vn -0.0000 0.6343 0.7731
vn -0.0000 0.4713 0.8820
vn -1.0000 -0.0000 -0.0000
vn -0.0000 0.2902 0.9570
vn -0.0000 0.0979 0.9952
vn 1.0000 -0.0000 -0.0000
vt 1.000000 0.500000
vt 1.000000 1.000000
vt 0.968750 1.000000
vt 0.968750 0.500000
vt 0.937500 1.000000
vt 0.937500 0.500000
vt 0.906250 1.000000
vt 0.906250 0.500000
vt 0.875000 1.000000
vt 0.875000 0.500000
vt 0.843750 1.000000
vt 0.843750 0.500000
vt 0.812500 1.000000
vt 0.812500 0.500000
vt 0.781250 1.000000
vt 0.781250 0.500000
vt 0.750000 1.000000
vt 0.750000 0.500000
vt 0.718750 1.000000
vt 0.718750 0.500000
vt 0.687500 1.000000
vt 0.687500 0.500000
vt 0.656250 1.000000
vt 0.656250 0.500000
vt 0.625000 1.000000
vt 0.625000 0.500000
vt 0.593750 1.000000
vt 0.593750 0.500000
vt 0.562500 1.000000
vt 0.562500 0.500000
vt 0.531250 1.000000
vt 0.531250 0.500000
vt 0.500000 1.000000
vt 0.500000 0.500000
vt 0.468750 1.000000
vt 0.468750 0.500000
vt 0.437500 1.000000
vt 0.437500 0.500000
vt 0.406250 1.000000
vt 0.406250 0.500000
vt 0.375000 1.000000
vt 0.375000 0.500000
vt 0.343750 1.000000
vt 0.343750 0.500000
vt 0.312500 1.000000
vt 0.312500 0.500000
vt 0.281250 1.000000
vt 0.281250 0.500000
vt 0.250000 1.000000
vt 0.250000 0.500000
vt 0.218750 1.000000
vt 0.218750 0.500000
vt 0.187500 1.000000
vt 0.187500 0.500000
vt 0.156250 1.000000
vt 0.156250 0.500000
vt 0.125000 1.000000
vt 0.125000 0.500000
vt 0.093750 1.000000
vt 0.093750 0.500000
vt 0.062500 1.000000
vt 0.062500 0.500000
vt 0.341844 0.471731
vt 0.296822 0.485388
vt 0.250000 0.490000
vt 0.203178 0.485388
vt 0.158156 0.471731
vt 0.116663 0.449553
vt 0.080294 0.419706
vt 0.050447 0.383337
vt 0.028269 0.341844
vt 0.014612 0.296822
vt 0.010000 0.250000
vt 0.014612 0.203178
vt 0.028269 0.158156
vt 0.050447 0.116663
vt 0.080294 0.080294
vt 0.116663 0.050447
vt 0.158156 0.028269
vt 0.203178 0.014612
vt 0.250000 0.010000
vt 0.296822 0.014612
vt 0.341844 0.028269
vt 0.383337 0.050447
vt 0.419706 0.080294
vt 0.449553 0.116663
vt 0.471731 0.158156
vt 0.485388 0.203178
vt 0.490000 0.250000
vt 0.485388 0.296822
vt 0.471731 0.341844
vt 0.449553 0.383337
vt 0.419706 0.419706
vt 0.383337 0.449553
vt 0.031250 1.000000
vt 0.031250 0.500000
vt 0.000000 1.000000
vt 0.000000 0.500000
vt 0.703178 0.485388
vt 0.750000 0.490000
vt 0.796822 0.485388
vt 0.841844 0.471731
vt 0.883337 0.449553
vt 0.919706 0.419706
vt 0.949553 0.383337
vt 0.971731 0.341844
vt 0.985388 0.296822
vt 0.990000 0.250000
vt 0.985388 0.203178
vt 0.971731 0.158156
vt 0.949553 0.116663
vt 0.919706 0.080294
vt 0.883337 0.050447
vt 0.841844 0.028269
vt 0.796822 0.014612
vt 0.750000 0.010000
vt 0.703178 0.014612
vt 0.658156 0.028269
vt 0.616663 0.050447
vt 0.580294 0.080294
vt 0.550447 0.116663
vt 0.528269 0.158156
vt 0.514612 0.203178
vt 0.510000 0.250000
vt 0.514612 0.296822
vt 0.528269 0.341844
vt 0.550447 0.383337
vt 0.580294 0.419706
vt 0.616663 0.449553
vt 0.658156 0.471731
s 0
f 194/131/35 197/132/35 203/133/35
f 194/131/35 203/133/35 200/134/35
f 201/134/36 204/133/36 209/135/36
f 201/134/36 209/135/36 206/136/36
f 207/136/37 210/135/37 215/137/37
f 207/136/37 215/137/37 212/138/37
f 213/138/38 216/137/38 221/139/38
f 213/138/38 221/139/38 218/140/38
f 219/140/39 222/139/39 227/141/39
f 219/140/39 227/141/39 224/142/39
f 225/142/40 228/141/40 233/143/40
f 225/142/40 233/143/40 230/144/40
f 231/144/41 234/143/41 239/145/41
f 231/144/41 239/145/41 236/146/41
f 237/146/42 240/145/42 246/147/42
f 237/146/42 246/147/42 243/148/42
f 242/148/43 245/147/43 252/149/43
f 242/148/43 252/149/43 249/150/43
f 248/150/44 251/149/44 258/151/44
f 248/150/44 258/151/44 255/152/44
f 254/152/45 257/151/45 264/153/45
f 254/152/45 264/153/45 261/154/45
f 260/154/46 263/153/46 270/155/46
f 260/154/46 270/155/46 267/156/46
f 266/156/47 269/155/47 276/157/47
f 266/156/47 276/157/47 273/158/47
f 272/158/48 275/157/48 282/159/48
f 272/158/48 282/159/48 279/160/48
f 278/160/49 281/159/49 288/161/49
f 278/160/49 288/161/49 285/162/49
f 284/162/50 287/161/50 293/163/50
f 284/162/50 293/163/50 290/164/50
f 291/164/51 294/163/51 299/165/51
f 291/164/51 299/165/51 296/166/51
f 297/166/52 300/165/52 305/167/52
f 297/166/52 305/167/52 302/168/52
f 303/168/53 306/167/53 311/169/53
f 303/168/53 311/169/53 308/170/53
f 309/170/54 312/169/54 317/171/54
f 309/170/54 317/171/54 314/172/54
f 315/172/55 318/171/55 323/173/55
f 315/172/55 323/173/55 320/174/55
f 321/174/56 324/173/56 329/175/56
f 321/174/56 329/175/56 326/176/56
f 327/176/57 330/175/57 335/177/57
f 327/176/57 335/177/57 332/178/57
f 333/178/58 336/177/58 341/179/58
f 333/178/58 341/179/58 338/180/58
f 339/180/59 342/179/59 348/181/59
f 339/180/59 348/181/59 345/182/59
f 344/182/60 347/181/60 354/183/60
f 344/182/60 354/183/60 351/184/60
f 350/184/61 353/183/61 360/185/61
f 350/184/61 360/185/61 357/186/61
f 356/186/62 359/185/62 366/187/62
f 356/186/62 366/187/62 363/188/62
f 362/188/63 365/187/63 372/189/63
f 362/188/63 372/189/63 369/190/63
f 368/190/64 371/189/64 378/191/64
f 368/190/64 378/191/64 375/192/64
f 208/193/65 202/194/65 196/195/65
f 196/195/65 382/196/65 376/197/65
f 376/197/65 370/198/65 364/199/65
f 364/199/65 358/200/65 352/201/65
f 352/201/65 346/202/65 340/203/65
f 340/203/65 334/204/65 328/205/65
f 328/205/65 322/206/65 316/207/65
f 316/207/65 310/208/65 304/209/65
f 304/209/65 298/210/65 292/211/65
f 292/211/65 286/212/65 280/213/65
f 280/213/65 274/214/65 268/215/65
f 268/215/65 262/216/65 256/217/65
f 256/217/65 250/218/65 244/219/65
f 244/219/65 238/220/65 232/221/65
f 232/221/65 226/222/65 220/223/65
f 220/223/65 214/224/65 208/193/65
f 208/193/65 196/195/65 376/197/65
f 376/197/65 364/199/65 352/201/65
f 352/201/65 340/203/65 328/205/65
f 328/205/65 316/207/65 304/209/65
f 304/209/65 292/211/65 280/213/65
f 280/213/65 268/215/65 256/217/65
f 256/217/65 244/219/65 232/221/65
f 232/221/65 220/223/65 208/193/65
f 208/193/65 376/197/65 352/201/65
f 352/201/65 328/205/65 304/209/65
f 304/209/65 280/213/65 256/217/65
f 256/217/65 232/221/65 208/193/65
f 208/193/65 352/201/65 304/209/65
f 304/209/65 256/217/65 208/193/65
f 374/192/66 377/191/66 384/225/66
f 374/192/66 384/225/66 381/226/66
f 380/226/67 383/225/67 198/227/67
f 380/226/67 198/227/67 195/228/67
f 379/229/68 193/230/68 199/231/68
f 199/231/68 205/232/68 211/233/68
f 211/233/68 217/234/68 223/235/68
f 223/235/68 229/236/68 235/237/68
f 235/237/68 241/238/68 247/239/68
f 247/239/68 253/240/68 259/241/68
f 259/241/68 265/242/68 271/243/68
f 271/243/68 277/244/68 283/245/68
f 283/245/68 289/246/68 295/247/68
f 295/247/68 301/248/68 307/249/68
f 307/249/68 313/250/68 319/251/68
f 319/251/68 325/252/68 331/253/68
f 331/253/68 337/254/68 343/255/68
f 343/255/68 349/256/68 355/257/68
f 355/257/68 361/258/68 367/259/68
f 367/259/68 373/260/68 379/229/68
f 379/229/68 199/231/68 211/233/68
f 211/233/68 223/235/68 235/237/68
f 235/237/68 247/239/68 259/241/68
f 259/241/68 271/243/68 283/245/68
f 283/245/68 295/247/68 307/249/68
f 307/249/68 319/251/68 331/253/68
f 331/253/68 343/255/68 355/257/68
f 355/257/68 367/259/68 379/229/68
f 379/229/68 211/233/68 235/237/68
f 235/237/68 259/241/68 283/245/68
f 283/245/68 307/249/68 331/253/68
f 331/253/68 355/257/68 379/229/68
f 379/229/68 235/237/68 283/245/68
f 283/245/68 331/253/68 379/229/68
g Cylinder.001_Mesh
v 0.000000 0.351733 -0.544464
v 0.000000 0.351734 13.027832
v 0.068620 0.344975 -0.544464
v 0.068620 0.344976 13.027832
v 0.134603 0.324959 -0.544464
v 0.134603 0.324960 13.027832
v 0.195413 0.292455 -0.544464
v 0.195413 0.292456 13.027832
v 0.248713 0.248713 -0.544464
v 0.248713 0.248714 13.027832
v 0.292456 0.195412 -0.544464
v 0.292456 0.195413 13.027832
v 0.324960 0.134602 -0.544464
v 0.324960 0.134603 13.027832
v 0.344975 0.068619 -0.544464
v 0.344975 0.068620 13.027832
v 0.351734 -0.000001 -0.544464
v 0.351734 0.000001 13.027832
v 0.344975 -0.068620 -0.544464
v 0.344975 -0.068619 13.027832
v 0.324960 -0.134603 -0.544464
v 0.324960 -0.134602 13.027832
v 0.292456 -0.195413 -0.544464
v 0.292456 -0.195412 13.027832
v 0.248713 -0.248714 -0.544464
v 0.248713 -0.248713 13.027832
v 0.195413 -0.292456 -0.544464
v 0.195413 -0.292455 13.027832
v 0.134603 -0.324960 -0.544464
v 0.134603 -0.324959 13.027832
v 0.068620 -0.344976 -0.544464
v 0.068620 -0.344975 13.027832
v 0.000000 -0.351734 -0.544464
v 0.000000 -0.351733 13.027832
v -0.068620 -0.344976 -0.544464
v -0.068620 -0.344975 13.027832
v -0.134603 -0.324960 -0.544464
v -0.134603 -0.324959 13.027832
v -0.195413 -0.292456 -0.544464
v -0.195413 -0.292455 13.027832
v -0.248713 -0.248714 -0.544464
v -0.248713 -0.248713 13.027832
v -0.292456 -0.195413 -0.544464
v -0.292456 -0.195412 13.027832
v -0.324960 -0.134603 -0.544464
v -0.324960 -0.134602 13.027832
v -0.344975 -0.068620 -0.544464
v -0.344975 -0.068619 13.027832
v -0.351734 -0.000001 -0.544464
v -0.351734 0.000001 13.027832
v -0.344975 0.068619 -0.544464
v -0.344975 0.068620 13.027832
v -0.324960 0.134602 -0.544464
v -0.324960 0.134603 13.027832
v -0.292456 0.195412 -0.544464
v -0.292456 0.195413 13.027832
v -0.248713 0.248713 -0.544464
v -0.248713 0.248714 13.027832
v -0.195413 0.292455 -0.544464
v -0.195413 0.292456 13.027832
v -0.134603 0.324959 -0.544464
v -0.134603 0.324960 13.027832
v -0.068620 0.344975 -0.544464
v -0.068620 0.344976 13.027832
vn 0.0980 0.9952 -0.0000
vn 0.2903 0.9569 -0.0000
vn 0.4714 0.8819 -0.0000
vn 0.6344 0.7730 -0.0000
vn 0.7730 0.6344 -0.0000
vn 0.8819 0.4714 -0.0000
vn 0.9569 0.2903 -0.0000
vn 0.9952 0.0980 -0.0000
vn 0.9952 -0.0980 -0.0000
vn 0.9569 -0.2903 -0.0000
vn 0.8819 -0.4714 -0.0000
vn 0.7730 -0.6344 -0.0000
vn 0.6344 -0.7730 -0.0000
vn 0.4714 -0.8819 -0.0000
vn 0.2903 -0.9569 -0.0000
vn 0.0980 -0.9952 -0.0000
vn -0.0980 -0.9952 -0.0000
vn -0.2903 -0.9569 -0.0000
vn -0.4714 -0.8819 -0.0000
vn -0.6344 -0.7730 -0.0000
vn -0.7730 -0.6344 -0.0000
vn -0.8819 -0.4714 -0.0000
vn -0.9569 -0.2903 -0.0000
vn -0.9952 -0.0980 -0.0000
vn -0.9952 0.0980 -0.0000
vn -0.9569 0.2903 -0.0000
vn -0.8819 0.4714 -0.0000
vn -0.7730 0.6344 -0.0000
vn -0.6344 0.7730 -0.0000
vn -0.4714 0.8819 -0.0000
vn -0.0000 -0.0000 1.0000
vn -0.2903 0.9569 -0.0000
vn -0.0980 0.9952 -0.0000
vn -0.0000 -0.0000 -1.0000
vt 1.000000 1.000000
vt 0.968750 0.500000
vt 1.000000 0.500000
vt 0.968750 1.000000
vt 0.937500 0.500000
vt 0.937500 1.000000
vt 0.906250 0.500000
vt 0.906250 1.000000
vt 0.875000 0.500000
vt 0.875000 1.000000
vt 0.843750 0.500000
vt 0.843750 1.000000
vt 0.812500 0.500000
vt 0.812500 1.000000
vt 0.781250 0.500000
vt 0.781250 1.000000
vt 0.750000 0.500000
vt 0.750000 1.000000
vt 0.718750 0.500000
vt 0.718750 1.000000
vt 0.687500 0.500000
vt 0.687500 1.000000
vt 0.656250 0.500000
vt 0.656250 1.000000
vt 0.625000 0.500000
vt 0.625000 1.000000
vt 0.593750 0.500000
vt 0.593750 1.000000
vt 0.562500 0.500000
vt 0.562500 1.000000
vt 0.531250 0.500000
vt 0.531250 1.000000
vt 0.500000 0.500000
vt 0.500000 1.000000
vt 0.468750 0.500000
vt 0.468750 1.000000
vt 0.437500 0.500000
vt 0.437500 1.000000
vt 0.406250 0.500000
vt 0.406250 1.000000
vt 0.375000 0.500000
vt 0.375000 1.000000
vt 0.343750 0.500000
vt 0.343750 1.000000
vt 0.312500 0.500000
vt 0.312500 1.000000
vt 0.281250 0.500000
vt 0.281250 1.000000
vt 0.250000 0.500000
vt 0.250000 1.000000
vt 0.218750 0.500000
vt 0.218750 1.000000
vt 0.187500 0.500000
vt 0.187500 1.000000
vt 0.156250 0.500000
vt 0.156250 1.000000
vt 0.125000 0.500000
vt 0.125000 1.000000
vt 0.093750 0.500000
vt 0.093750 1.000000
vt 0.062500 0.500000
vt 0.158156 0.028269
vt 0.471731 0.158156
vt 0.341844 0.471731
vt 0.062500 1.000000
vt 0.031250 0.500000
vt 0.031250 1.000000
vt 0.000000 0.500000
vt 0.796822 0.014612
vt 0.514612 0.203178
vt 0.703178 0.485388
vt 0.296822 0.485388
vt 0.250000 0.490000
vt 0.203178 0.485388
vt 0.158156 0.471731
vt 0.116663 0.449553
vt 0.080294 0.419706
vt 0.050447 0.383337
vt 0.028269 0.341844
vt 0.014612 0.296822
vt 0.010000 0.250000
vt 0.014612 0.203178
vt 0.028269 0.158156
vt 0.050447 0.116663
vt 0.080294 0.080294
vt 0.116663 0.050447
vt 0.203178 0.014612
vt 0.250000 0.010000
vt 0.296822 0.014612
vt 0.341844 0.028269
vt 0.383337 0.050447
vt 0.419706 0.080294
vt 0.449553 0.116663
vt 0.485388 0.203178
vt 0.490000 0.250000
vt 0.485388 0.296822
vt 0.471731 0.341844
vt 0.449553 0.383337
vt 0.419706 0.419706
vt 0.383337 0.449553
vt 0.000000 1.000000
vt 0.750000 0.490000
vt 0.796822 0.485388
vt 0.841844 0.471731
vt 0.883337 0.449553
vt 0.919706 0.419706
vt 0.949553 0.383337
vt 0.971731 0.341844
vt 0.985388 0.296822
vt 0.990000 0.250000
vt 0.985388 0.203178
vt 0.971731 0.158156
vt 0.949553 0.116663
vt 0.919706 0.080294
vt 0.883337 0.050447
vt 0.841844 0.028269
vt 0.750000 0.010000
vt 0.703178 0.014612
vt 0.658156 0.028269
vt 0.616663 0.050447
vt 0.580294 0.080294
vt 0.550447 0.116663
vt 0.528269 0.158156
vt 0.510000 0.250000
vt 0.514612 0.296822
vt 0.528269 0.341844
vt 0.550447 0.383337
vt 0.580294 0.419706
vt 0.616663 0.449553
vt 0.658156 0.471731
s 0
f 386/261/69 387/262/69 385/263/69
f 388/264/70 389/265/70 387/262/70
f 390/266/71 391/267/71 389/265/71
f 392/268/72 393/269/72 391/267/72
f 394/270/73 395/271/73 393/269/73
f 396/272/74 397/273/74 395/271/74
f 398/274/75 399/275/75 397/273/75
f 400/276/76 401/277/76 399/275/76
f 402/278/77 403/279/77 401/277/77
f 404/280/78 405/281/78 403/279/78
f 406/282/79 407/283/79 405/281/79
f 408/284/80 409/285/80 407/283/80
f 410/286/81 411/287/81 409/285/81
f 412/288/82 413/289/82 411/287/82
f 414/290/83 415/291/83 413/289/83
f 416/292/84 417/293/84 415/291/84
f 418/294/85 419/295/85 417/293/85
f 420/296/86 421/297/86 419/295/86
f 422/298/87 423/299/87 421/297/87
f 424/300/88 425/301/88 423/299/88
f 426/302/89 427/303/89 425/301/89
f 428/304/90 429/305/90 427/303/90
f 430/306/91 431/307/91 429/305/91
f 432/308/92 433/309/92 431/307/92
f 434/310/93 435/311/93 433/309/93
f 436/312/94 437/313/94 435/311/94
f 438/314/95 439/315/95 437/313/95
f 440/316/96 441/317/96 439/315/96
f 442/318/97 443/319/97 441/317/97
f 444/320/98 445/321/98 443/319/98
f 422/322/99 406/323/99 390/324/99
f 446/325/100 447/326/100 445/321/100
f 448/327/101 385/328/101 447/326/101
f 415/329/102 431/330/102 447/331/102
f 386/261/69 388/264/69 387/262/69
f 388/264/70 390/266/70 389/265/70
f 390/266/71 392/268/71 391/267/71
f 392/268/72 394/270/72 393/269/72
f 394/270/73 396/272/73 395/271/73
f 396/272/74 398/274/74 397/273/74
f 398/274/75 400/276/75 399/275/75
f 400/276/76 402/278/76 401/277/76
f 402/278/77 404/280/77 403/279/77
f 404/280/78 406/282/78 405/281/78
f 406/282/79 408/284/79 407/283/79
f 408/284/80 410/286/80 409/285/80
f 410/286/81 412/288/81 411/287/81
f 412/288/82 414/290/82 413/289/82
f 414/290/83 416/292/83 415/291/83
f 416/292/84 418/294/84 417/293/84
f 418/294/85 420/296/85 419/295/85
f 420/296/86 422/298/86 421/297/86
f 422/298/87 424/300/87 423/299/87
f 424/300/88 426/302/88 425/301/88
f 426/302/89 428/304/89 427/303/89
f 428/304/90 430/306/90 429/305/90
f 430/306/91 432/308/91 431/307/91
f 432/308/92 434/310/92 433/309/92
f 434/310/93 436/312/93 435/311/93
f 436/312/94 438/314/94 437/313/94
f 438/314/95 440/316/95 439/315/95
f 440/316/96 442/318/96 441/317/96
f 442/318/97 444/320/97 443/319/97
f 444/320/98 446/325/98 445/321/98
f 390/324/99 388/332/99 386/333/99
f 386/333/99 448/334/99 446/335/99
f 446/335/99 444/336/99 442/337/99
f 442/337/99 440/338/99 438/339/99
f 438/339/99 436/340/99 434/341/99
f 434/341/99 432/342/99 430/343/99
f 430/343/99 428/344/99 426/345/99
f 426/345/99 424/346/99 422/322/99
f 422/322/99 420/347/99 418/348/99
f 418/348/99 416/349/99 414/350/99
f 414/350/99 412/351/99 410/352/99
f 410/352/99 408/353/99 406/323/99
f 406/323/99 404/354/99 402/355/99
f 402/355/99 400/356/99 398/357/99
f 398/357/99 396/358/99 394/359/99
f 394/359/99 392/360/99 390/324/99
f 390/324/99 386/333/99 446/335/99
f 446/335/99 442/337/99 438/339/99
f 438/339/99 434/341/99 430/343/99
f 430/343/99 426/345/99 422/322/99
f 422/322/99 418/348/99 414/350/99
f 414/350/99 410/352/99 406/323/99
f 406/323/99 402/355/99 398/357/99
f 398/357/99 394/359/99 390/324/99
f 390/324/99 446/335/99 438/339/99
f 438/339/99 430/343/99 422/322/99
f 422/322/99 414/350/99 406/323/99
f 406/323/99 398/357/99 390/324/99
f 390/324/99 438/339/99 422/322/99
f 446/325/100 448/327/100 447/326/100
f 448/327/101 386/361/101 385/328/101
f 447/331/102 385/362/102 387/363/102
f 387/363/102 389/364/102 391/365/102
f 391/365/102 393/366/102 395/367/102
f 395/367/102 397/368/102 399/369/102
f 399/369/102 401/370/102 403/371/102
f 403/371/102 405/372/102 407/373/102
f 407/373/102 409/374/102 411/375/102
f 411/375/102 413/376/102 415/329/102
f 415/329/102 417/377/102 419/378/102
f 419/378/102 421/379/102 423/380/102
f 423/380/102 425/381/102 427/382/102
f 427/382/102 429/383/102 431/330/102
f 431/330/102 433/384/102 435/385/102
f 435/385/102 437/386/102 439/387/102
f 439/387/102 441/388/102 443/389/102
f 443/389/102 445/390/102 447/331/102
f 447/331/102 387/363/102 391/365/102
f 391/365/102 395/367/102 399/369/102
f 399/369/102 403/371/102 407/373/102
f 407/373/102 411/375/102 415/329/102
f 415/329/102 419/378/102 423/380/102
f 423/380/102 427/382/102 431/330/102
f 431/330/102 435/385/102 439/387/102
f 439/387/102 443/389/102 447/331/102
f 447/331/102 391/365/102 399/369/102
f 399/369/102 407/373/102 415/329/102
f 415/329/102 423/380/102 431/330/102
f 431/330/102 439/387/102 447/331/102
f 447/331/102 399/369/102 415/329/102
