# Blender 4.4.3
# www.blender.org
mtllib SawArm2_1.mtl
o Cylinder.005
v -0.366449 -0.001238 13.349170
v -0.366449 -0.001238 13.349170
v -0.366449 -0.001238 13.349170
v -0.556230 -0.001238 13.349170
v -0.556230 -0.001238 13.349170
v -0.556230 -0.001238 13.349170
v -0.366449 -0.104703 13.338968
v -0.366449 -0.104703 13.338968
v -0.366449 -0.104703 13.338968
v -0.556230 -0.104703 13.338968
v -0.556230 -0.104703 13.338968
v -0.556230 -0.104703 13.338968
v -0.366449 -0.204190 13.308780
v -0.366449 -0.204190 13.308780
v -0.366449 -0.204190 13.308780
v -0.556230 -0.204190 13.308780
v -0.556230 -0.204190 13.308780
v -0.556230 -0.204190 13.308780
v -0.366449 -0.295876 13.259762
v -0.366449 -0.295876 13.259762
v -0.366449 -0.295876 13.259762
v -0.556230 -0.295876 13.259762
v -0.556230 -0.295876 13.259762
v -0.556230 -0.295876 13.259762
v -0.366449 -0.376237 13.193798
v -0.366449 -0.376237 13.193798
v -0.366449 -0.376237 13.193798
v -0.556230 -0.376237 13.193798
v -0.556230 -0.376237 13.193798
v -0.556230 -0.376237 13.193798
v -0.366449 -0.442186 13.113425
v -0.366449 -0.442186 13.113425
v -0.366449 -0.442186 13.113425
v -0.556230 -0.442185 13.113426
v -0.556230 -0.442185 13.113426
v -0.556230 -0.442185 13.113426
v -0.366449 -0.491187 13.021730
v -0.366449 -0.491187 13.021730
v -0.366449 -0.491187 13.021730
v -0.556230 -0.491187 13.021730
v -0.556230 -0.491187 13.021730
v -0.556230 -0.491187 13.021730
v -0.366449 -0.521358 12.922236
v -0.366449 -0.521358 12.922236
v -0.366449 -0.521358 12.922236
v -0.556230 -0.521358 12.922236
v -0.556230 -0.521358 12.922236
v -0.556230 -0.521358 12.922236
v -0.366449 -0.531538 12.818771
v -0.366449 -0.531538 12.818771
v -0.366449 -0.531538 12.818771
v -0.556230 -0.531538 12.818771
v -0.556230 -0.531538 12.818771
v -0.366448 0.529161 12.818868
v -0.366448 0.529161 12.818868
v -0.366448 0.529161 12.818868
v -0.556230 0.529161 12.818868
v -0.556230 0.529161 12.818868
v -0.366448 0.518961 12.922334
v -0.366448 0.518961 12.922334
v -0.366448 0.518961 12.922334
v -0.556230 0.518961 12.922334
v -0.556230 0.518961 12.922334
v -0.556230 0.518961 12.922334
v -0.366448 0.488772 13.021821
v -0.366448 0.488772 13.021821
v -0.366448 0.488772 13.021821
v -0.556230 0.488772 13.021821
v -0.556230 0.488772 13.021821
v -0.556230 0.488772 13.021821
v -0.366448 0.439754 13.113506
v -0.366448 0.439754 13.113506
v -0.366448 0.439754 13.113506
v -0.556230 0.439754 13.113506
v -0.556230 0.439754 13.113506
v -0.556230 0.439754 13.113506
v -0.366448 0.373790 13.193869
v -0.366448 0.373790 13.193869
v -0.366448 0.373790 13.193869
v -0.556230 0.373790 13.193869
v -0.556230 0.373790 13.193869
v -0.556230 0.373790 13.193869
v -0.366448 0.293417 13.259817
v -0.366448 0.293417 13.259817
v -0.366448 0.293417 13.259817
v -0.556230 0.293417 13.259817
v -0.556230 0.293417 13.259817
v -0.556230 0.293417 13.259817
v -0.366449 0.201722 13.308817
v -0.366449 0.201722 13.308817
v -0.366449 0.201722 13.308817
v -0.556230 0.201722 13.308817
v -0.556230 0.201722 13.308817
v -0.556230 0.201722 13.308817
v -0.366448 0.102229 13.338988
v -0.366448 0.102229 13.338988
v -0.366448 0.102229 13.338988
v -0.556230 0.102229 13.338988
v -0.556230 0.102229 13.338988
v -0.556230 0.102229 13.338988
v -0.556231 -0.531224 9.435551
v -0.556231 -0.531224 9.435551
v -0.366449 -0.531224 9.435551
v -0.366449 -0.531224 9.435551
v -0.366449 -0.531538 12.818771
v -0.366449 -0.531538 12.818771
v -0.366449 -0.531538 12.818771
v -0.556230 -0.531538 12.818771
v -0.556230 -0.531538 12.818771
v -0.366448 0.529161 12.818868
v -0.366448 0.529161 12.818868
v -0.366448 0.529161 12.818868
v -0.556230 0.529161 12.818868
v -0.556230 0.529161 12.818868
v -0.366448 0.529476 9.435650
v -0.366448 0.529476 9.435650
v -0.556230 0.529476 9.435650
v -0.556230 0.529476 9.435650
v -0.366448 0.440448 5.623788
v -0.556230 -0.103967 5.398224
v -0.556230 0.440448 5.623788
v -0.556230 0.374499 5.543415
v -0.556230 0.294138 5.477451
v -0.556230 0.202452 5.428432
v -0.556230 0.102965 5.398243
v -0.366449 0.102965 5.398243
v -0.556230 -0.000500 5.388043
v -0.556230 -0.375529 5.543345
v -0.556230 -0.441492 5.623706
v -0.556230 -0.203460 5.428395
v -0.556230 -0.295155 5.477396
v -0.556231 -0.490510 5.715392
v -0.556231 -0.520699 5.814879
v -0.556231 -0.520699 5.814879
v -0.366449 -0.520699 5.814879
v -0.366449 -0.520699 5.814879
v -0.556230 -0.530899 5.918344
v -0.556230 -0.530899 5.918344
v -0.556230 -0.530899 5.918344
v -0.366449 -0.530899 5.918344
v -0.366449 -0.530899 5.918344
v -0.366449 -0.530899 5.918344
v -0.556230 0.489449 5.715482
v -0.366448 0.519620 5.814976
v -0.366448 0.519620 5.814976
v -0.556230 0.519620 5.814976
v -0.556230 0.519620 5.814976
v -0.366448 0.529801 5.918443
v -0.366448 0.529801 5.918443
v -0.366448 0.529801 5.918443
v -0.556230 0.529801 5.918443
v -0.556230 0.529801 5.918443
v -0.556230 0.529801 5.918443
v -0.556231 -0.520699 5.814879
v -0.556231 -0.520699 5.814879
v -0.366449 -0.520699 5.814879
v -0.366449 -0.490510 5.715392
v -0.366449 -0.490510 5.715392
v -0.556231 -0.490510 5.715392
v -0.556231 -0.520699 5.814879
v -0.556231 -0.520699 5.814879
v -0.556231 -0.520699 5.814879
v -0.556230 0.489449 5.715482
v -0.556230 0.489449 5.715482
v -0.556230 0.489449 5.715482
v -0.556230 0.519620 5.814976
v -0.556230 0.519620 5.814976
v -0.556230 0.519620 5.814976
v -0.556230 0.519620 5.814976
v -0.556230 0.519620 5.814976
v -0.556230 -0.295155 5.477396
v -0.556230 -0.295155 5.477396
v -0.556230 -0.295155 5.477396
v -0.556230 -0.203460 5.428395
v -0.556230 -0.203460 5.428395
v -0.556230 -0.203460 5.428395
v -0.366449 -0.520699 5.814879
v -0.366449 -0.520699 5.814879
v -0.556231 -0.520699 5.814879
v -0.556231 -0.520699 5.814879
v -0.556231 -0.520699 5.814879
v -0.366448 0.519620 5.814976
v -0.366448 0.519620 5.814976
v -0.366448 0.519620 5.814976
v -0.366448 0.489449 5.715482
v -0.366448 0.489449 5.715482
v -0.366449 -0.203460 5.428395
v -0.366449 -0.203460 5.428395
v -0.366449 -0.295155 5.477396
v -0.366449 -0.295155 5.477396
v -0.556230 -0.203460 5.428395
v -0.556230 -0.295155 5.477396
v -0.366449 -0.520699 5.814879
v -0.366449 -0.520699 5.814879
v -0.556230 -0.530899 5.918344
v -0.556230 -0.530899 5.918344
v -0.556230 -0.530899 5.918344
v -0.366449 -0.530899 5.918344
v -0.366449 -0.530899 5.918344
v -0.556230 0.519620 5.814976
v -0.556230 0.519620 5.814976
v -0.556230 0.519620 5.814976
v -0.556230 0.489449 5.715482
v -0.366448 0.519620 5.814976
v -0.366448 0.519620 5.814976
v -0.366448 0.529801 5.918443
v -0.366448 0.529801 5.918443
v -0.556230 0.529801 5.918443
v -0.556230 0.529801 5.918443
v -0.556230 0.529801 5.918443
v -0.556231 -0.490510 5.715392
v -0.556231 -0.490510 5.715392
v -0.556231 -0.490510 5.715392
v -0.366449 -0.441492 5.623706
v -0.366449 -0.441492 5.623706
v -0.556230 -0.441492 5.623706
v -0.556230 -0.441492 5.623706
v -0.556230 -0.441492 5.623706
v -0.366449 -0.375529 5.543345
v -0.366449 -0.375529 5.543345
v -0.556230 -0.375529 5.543345
v -0.556230 -0.375529 5.543345
v -0.556230 -0.375529 5.543345
v -0.366449 -0.103967 5.398224
v -0.366449 -0.103967 5.398224
v -0.556230 -0.103967 5.398224
v -0.556230 -0.103967 5.398224
v -0.556230 -0.103967 5.398224
v -0.366449 -0.000500 5.388043
v -0.366449 -0.000500 5.388043
v -0.556230 -0.000500 5.388043
v -0.556230 -0.000500 5.388043
v -0.556230 -0.000500 5.388043
v -0.366449 0.102965 5.398243
v -0.366449 0.102965 5.398243
v -0.556230 0.102965 5.398243
v -0.556230 0.102965 5.398243
v -0.556230 0.102965 5.398243
v -0.366449 0.202452 5.428432
v -0.366449 0.202452 5.428432
v -0.556230 0.202452 5.428432
v -0.556230 0.202452 5.428432
v -0.556230 0.202452 5.428432
v -0.366449 0.294138 5.477451
v -0.366449 0.294138 5.477451
v -0.556230 0.294138 5.477451
v -0.556230 0.294138 5.477451
v -0.556230 0.294138 5.477451
v -0.366448 0.374499 5.543415
v -0.366448 0.374499 5.543415
v -0.556230 0.374499 5.543415
v -0.556230 0.374499 5.543415
v -0.556230 0.374499 5.543415
v -0.366448 0.440448 5.623788
v -0.366448 0.440448 5.623788
v -0.556230 0.440448 5.623788
v -0.556230 0.440448 5.623788
v -0.556230 0.440448 5.623788
v -0.004512 -0.313169 5.867148
v -0.004512 -0.313169 5.867148
v -0.004512 -0.313169 5.867148
v -0.004512 -0.312636 0.135614
v -0.004512 -0.312636 0.135614
v -0.004512 -0.312636 0.135614
v 0.056478 -0.307162 5.867148
v 0.056478 -0.307162 5.867148
v 0.056478 -0.307162 5.867148
v 0.056478 -0.306629 0.135614
v 0.056478 -0.306629 0.135614
v 0.056478 -0.306629 0.135614
v 0.115124 -0.289372 5.867150
v 0.115124 -0.289372 5.867150
v 0.115124 -0.289372 5.867150
v 0.115124 -0.288839 0.135616
v 0.115124 -0.288839 0.135616
v 0.115124 -0.288839 0.135616
v 0.169172 -0.260483 5.867153
v 0.169172 -0.260483 5.867153
v 0.169172 -0.260483 5.867153
v 0.169172 -0.259949 0.135618
v 0.169172 -0.259949 0.135618
v 0.169172 -0.259949 0.135618
v 0.216546 -0.221603 5.867156
v 0.216546 -0.221603 5.867156
v 0.216546 -0.221603 5.867156
v 0.216546 -0.221070 0.135622
v 0.216546 -0.221070 0.135622
v 0.216546 -0.221070 0.135622
v 0.255425 -0.174230 5.867161
v 0.255425 -0.174230 5.867161
v 0.255425 -0.174230 5.867161
v 0.255425 -0.173696 0.135626
v 0.255425 -0.173696 0.135626
v 0.255425 -0.173696 0.135626
v 0.284314 -0.120181 5.867166
v 0.284314 -0.120181 5.867166
v 0.284314 -0.120181 5.867166
v 0.284314 -0.119648 0.135631
v 0.284314 -0.119648 0.135631
v 0.284314 -0.119648 0.135631
v 0.302105 -0.061535 5.867171
v 0.302105 -0.061535 5.867171
v 0.302105 -0.061535 5.867171
v 0.302105 -0.061002 0.135637
v 0.302105 -0.061002 0.135637
v 0.302105 -0.061002 0.135637
v 0.308112 -0.000545 5.867177
v 0.308112 -0.000545 5.867177
v 0.308112 -0.000545 5.867177
v 0.308112 -0.000012 0.135643
v 0.308112 -0.000012 0.135643
v 0.308112 -0.000012 0.135643
v 0.302105 0.060445 5.867183
v 0.302105 0.060445 5.867183
v 0.302105 0.060445 5.867183
v 0.302105 0.060978 0.135648
v 0.302105 0.060978 0.135648
v 0.302105 0.060978 0.135648
v 0.284314 0.119091 5.867188
v 0.284314 0.119091 5.867188
v 0.284314 0.119091 5.867188
v 0.284314 0.119624 0.135654
v 0.284314 0.119624 0.135654
v 0.284314 0.119624 0.135654
v 0.255425 0.173140 5.867193
v 0.255425 0.173140 5.867193
v 0.255425 0.173140 5.867193
v 0.255425 0.173673 0.135659
v 0.255425 0.173673 0.135659
v 0.255425 0.173673 0.135659
v 0.216546 0.220513 5.867198
v 0.216546 0.220513 5.867198
v 0.216546 0.220513 5.867198
v 0.216546 0.221047 0.135663
v 0.216546 0.221047 0.135663
v 0.216546 0.221047 0.135663
v 0.169172 0.259393 5.867201
v 0.169172 0.259393 5.867201
v 0.169172 0.259393 5.867201
v 0.169172 0.259926 0.135667
v 0.169172 0.259926 0.135667
v 0.169172 0.259926 0.135667
v 0.115124 0.288282 5.867203
v 0.115124 0.288282 5.867203
v 0.115124 0.288282 5.867203
v 0.115124 0.288815 0.135670
v 0.115124 0.288815 0.135670
v 0.115124 0.288815 0.135670
v 0.056478 0.306072 5.867205
v 0.056478 0.306072 5.867205
v 0.056478 0.306072 5.867205
v 0.056478 0.306605 0.135671
v 0.056478 0.306605 0.135671
v 0.056478 0.306605 0.135671
v -0.004512 0.312079 5.867206
v -0.004512 0.312079 5.867206
v -0.004512 0.312079 5.867206
v -0.004512 0.312612 0.135672
v -0.004512 0.312612 0.135672
v -0.004512 0.312612 0.135672
v -0.065502 0.306072 5.867205
v -0.065502 0.306072 5.867205
v -0.065502 0.306072 5.867205
v -0.065502 0.306605 0.135671
v -0.065502 0.306605 0.135671
v -0.065502 0.306605 0.135671
v -0.124148 0.288282 5.867203
v -0.124148 0.288282 5.867203
v -0.124148 0.288282 5.867203
v -0.124148 0.288815 0.135670
v -0.124148 0.288815 0.135670
v -0.124148 0.288815 0.135670
v -0.178197 0.259392 5.867201
v -0.178197 0.259392 5.867201
v -0.178197 0.259392 5.867201
v -0.178197 0.259926 0.135667
v -0.178197 0.259926 0.135667
v -0.178197 0.259926 0.135667
v -0.225571 0.220514 5.867198
v -0.225571 0.220514 5.867198
v -0.225571 0.220514 5.867198
v -0.225571 0.221047 0.135663
v -0.225571 0.221047 0.135663
v -0.225571 0.221047 0.135663
v -0.264450 0.173140 5.867193
v -0.264450 0.173140 5.867193
v -0.264450 0.173140 5.867193
v -0.264450 0.173673 0.135659
v -0.264450 0.173673 0.135659
v -0.264450 0.173673 0.135659
v -0.293339 0.119091 5.867188
v -0.293339 0.119091 5.867188
v -0.293339 0.119091 5.867188
v -0.293339 0.119624 0.135654
v -0.293339 0.119624 0.135654
v -0.293339 0.119624 0.135654
v -0.311129 0.060445 5.867183
v -0.311129 0.060445 5.867183
v -0.311129 0.060445 5.867183
v -0.311129 0.060978 0.135648
v -0.311129 0.060978 0.135648
v -0.311129 0.060978 0.135648
v -0.317136 -0.000545 5.867177
v -0.317136 -0.000545 5.867177
v -0.317136 -0.000545 5.867177
v -0.317136 -0.000012 0.135643
v -0.317136 -0.000012 0.135643
v -0.317136 -0.000012 0.135643
v -0.311129 -0.061535 5.867171
v -0.311129 -0.061535 5.867171
v -0.311129 -0.061535 5.867171
v -0.311129 -0.061002 0.135637
v -0.311129 -0.061002 0.135637
v -0.311129 -0.061002 0.135637
v -0.293339 -0.120181 5.867166
v -0.293339 -0.120181 5.867166
v -0.293339 -0.120181 5.867166
v -0.293339 -0.119648 0.135631
v -0.293339 -0.119648 0.135631
v -0.293339 -0.119648 0.135631
v -0.264450 -0.174229 5.867161
v -0.264450 -0.174229 5.867161
v -0.264450 -0.174229 5.867161
v -0.264450 -0.173696 0.135626
v -0.264450 -0.173696 0.135626
v -0.264450 -0.173696 0.135626
v -0.225571 -0.221603 5.867156
v -0.225571 -0.221603 5.867156
v -0.225571 -0.221603 5.867156
v -0.225571 -0.221070 0.135622
v -0.225571 -0.221070 0.135622
v -0.225571 -0.221070 0.135622
v -0.178197 -0.260482 5.867153
v -0.178197 -0.260482 5.867153
v -0.178197 -0.260482 5.867153
v -0.178197 -0.259949 0.135619
v -0.178197 -0.259949 0.135619
v -0.178197 -0.259949 0.135619
v -0.124148 -0.289372 5.867150
v -0.124148 -0.289372 5.867150
v -0.124148 -0.289372 5.867150
v -0.124148 -0.288839 0.135616
v -0.124148 -0.288839 0.135616
v -0.124148 -0.288839 0.135616
v -0.065502 -0.307162 5.867148
v -0.065502 -0.307162 5.867148
v -0.065502 -0.307162 5.867148
v -0.065502 -0.306629 0.135614
v -0.065502 -0.306629 0.135614
v -0.065502 -0.306629 0.135614
v 0.366449 0.250370 -0.467532
v 0.366449 0.250370 -0.467532
v 0.366449 0.250370 -0.467532
v -0.366449 0.250370 -0.467532
v -0.366449 0.250370 -0.467532
v -0.366449 0.250370 -0.467532
v 0.366449 0.336770 -0.409703
v 0.366449 0.336770 -0.409703
v 0.366449 0.336770 -0.409703
v -0.366449 0.336770 -0.409703
v -0.366449 0.336770 -0.409703
v -0.366449 0.336770 -0.409703
v 0.366449 0.410228 -0.336130
v 0.366449 0.410228 -0.336130
v 0.366449 0.410228 -0.336130
v -0.366449 0.410228 -0.336130
v -0.366449 0.410228 -0.336130
v -0.366449 0.410228 -0.336130
v 0.366449 0.467922 -0.249640
v 0.366449 0.467922 -0.249640
v 0.366449 0.467922 -0.249640
v -0.366449 0.467922 -0.249640
v -0.366449 0.467922 -0.249640
v -0.366449 0.467922 -0.249640
v 0.366448 0.507633 -0.153556
v 0.366448 0.507633 -0.153556
v 0.366448 0.507633 -0.153556
v -0.366449 0.507633 -0.153556
v -0.366449 0.507633 -0.153556
v -0.366449 0.507633 -0.153556
v 0.366448 0.527837 -0.051571
v 0.366448 0.527837 -0.051571
v 0.366448 0.527837 -0.051571
v -0.366449 0.527837 -0.051571
v -0.366449 0.527837 -0.051571
v -0.366449 0.527837 -0.051571
v 0.366448 0.527756 0.052395
v 0.366448 0.527756 0.052395
v 0.366448 0.527756 0.052395
v -0.366449 0.527755 0.052395
v -0.366449 0.527755 0.052395
v -0.366449 0.527755 0.052395
v 0.366448 0.507393 0.154348
v 0.366448 0.507393 0.154348
v 0.366448 0.507393 0.154348
v -0.366449 0.507393 0.154348
v -0.366449 0.507393 0.154348
v -0.366449 0.507393 0.154348
v 0.366448 0.467532 0.250370
v 0.366448 0.467532 0.250370
v 0.366448 0.467532 0.250370
v -0.366449 0.467532 0.250370
v -0.366449 0.467532 0.250370
v -0.366449 0.467532 0.250370
v 0.366448 0.409704 0.336770
v 0.366448 0.409704 0.336770
v 0.366448 0.409704 0.336770
v -0.366449 0.409704 0.336770
v -0.366449 0.409704 0.336770
v -0.366449 0.409704 0.336770
v 0.366448 0.336131 0.410228
v 0.366448 0.336131 0.410228
v 0.366448 0.336131 0.410228
v -0.366449 0.336131 0.410228
v -0.366449 0.336131 0.410228
v -0.366449 0.336131 0.410228
v 0.366448 0.249640 0.467922
v 0.366448 0.249640 0.467922
v 0.366448 0.249640 0.467922
v -0.366449 0.249640 0.467922
v -0.366449 0.249640 0.467922
v -0.366449 0.249640 0.467922
v 0.366448 0.153557 0.507633
v 0.366448 0.153557 0.507633
v 0.366448 0.153557 0.507633
v -0.366449 0.153557 0.507633
v -0.366449 0.153557 0.507633
v -0.366449 0.153557 0.507633
v 0.366449 0.051572 0.527836
v 0.366449 0.051572 0.527836
v 0.366449 0.051572 0.527836
v -0.366449 0.051572 0.527836
v -0.366449 0.051572 0.527836
v -0.366449 0.051572 0.527836
v 0.366449 -0.052395 0.527755
v 0.366449 -0.052395 0.527755
v 0.366449 -0.052395 0.527755
v -0.366449 -0.052395 0.527755
v -0.366449 -0.052395 0.527755
v -0.366449 -0.052395 0.527755
v 0.366449 -0.154348 0.507393
v 0.366449 -0.154348 0.507393
v 0.366449 -0.154348 0.507393
v -0.366449 -0.154348 0.507393
v -0.366449 -0.154348 0.507393
v -0.366449 -0.154348 0.507393
v 0.366449 -0.250370 0.467532
v 0.366449 -0.250370 0.467532
v 0.366449 -0.250370 0.467532
v -0.366449 -0.250370 0.467532
v -0.366449 -0.250370 0.467532
v -0.366449 -0.250370 0.467532
v 0.366449 -0.336770 0.409703
v 0.366449 -0.336770 0.409703
v 0.366449 -0.336770 0.409703
v -0.366449 -0.336770 0.409703
v -0.366449 -0.336770 0.409703
v -0.366449 -0.336770 0.409703
v 0.366449 -0.410228 0.336130
v 0.366449 -0.410228 0.336130
v 0.366449 -0.410228 0.336130
v -0.366449 -0.410228 0.336130
v -0.366449 -0.410228 0.336130
v -0.366449 -0.410228 0.336130
v 0.366449 -0.467922 0.249640
v 0.366449 -0.467922 0.249640
v 0.366449 -0.467922 0.249640
v -0.366449 -0.467922 0.249640
v -0.366449 -0.467922 0.249640
v -0.366449 -0.467922 0.249640
v 0.366449 -0.507633 0.153556
v 0.366449 -0.507633 0.153556
v 0.366449 -0.507633 0.153556
v -0.366448 -0.507633 0.153556
v -0.366448 -0.507633 0.153556
v -0.366448 -0.507633 0.153556
v 0.366449 -0.527837 0.051571
v 0.366449 -0.527837 0.051571
v 0.366449 -0.527837 0.051571
v -0.366448 -0.527837 0.051571
v -0.366448 -0.527837 0.051571
v -0.366448 -0.527837 0.051571
v 0.366449 -0.527755 -0.052395
v 0.366449 -0.527755 -0.052395
v 0.366449 -0.527755 -0.052395
v -0.366448 -0.527756 -0.052395
v -0.366448 -0.527756 -0.052395
v -0.366448 -0.527756 -0.052395
v 0.366449 -0.507393 -0.154348
v 0.366449 -0.507393 -0.154348
v 0.366449 -0.507393 -0.154348
v -0.366448 -0.507393 -0.154348
v -0.366448 -0.507393 -0.154348
v -0.366448 -0.507393 -0.154348
v 0.366449 -0.467532 -0.250370
v 0.366449 -0.467532 -0.250370
v 0.366449 -0.467532 -0.250370
v -0.366448 -0.467532 -0.250370
v -0.366448 -0.467532 -0.250370
v -0.366448 -0.467532 -0.250370
v 0.366449 -0.409704 -0.336770
v 0.366449 -0.409704 -0.336770
v 0.366449 -0.409704 -0.336770
v -0.366448 -0.409704 -0.336770
v -0.366448 -0.409704 -0.336770
v -0.366448 -0.409704 -0.336770
v 0.366449 -0.336131 -0.410228
v 0.366449 -0.336131 -0.410228
v 0.366449 -0.336131 -0.410228
v -0.366448 -0.336131 -0.410228
v -0.366448 -0.336131 -0.410228
v -0.366448 -0.336131 -0.410228
v 0.366449 -0.249640 -0.467922
v 0.366449 -0.249640 -0.467922
v 0.366449 -0.249640 -0.467922
v -0.366448 -0.249640 -0.467922
v -0.366448 -0.249640 -0.467922
v -0.366448 -0.249640 -0.467922
v 0.366449 -0.153557 -0.507633
v 0.366449 -0.153557 -0.507633
v 0.366449 -0.153557 -0.507633
v -0.366448 -0.153557 -0.507633
v -0.366448 -0.153557 -0.507633
v -0.366448 -0.153557 -0.507633
v 0.366449 -0.051572 -0.527836
v 0.366449 -0.051572 -0.527836
v 0.366449 -0.051572 -0.527836
v -0.366449 -0.051572 -0.527836
v -0.366449 -0.051572 -0.527836
v -0.366449 -0.051572 -0.527836
v 0.366449 0.052395 -0.527755
v 0.366449 0.052395 -0.527755
v 0.366449 0.052395 -0.527755
v -0.366449 0.052395 -0.527755
v -0.366449 0.052395 -0.527755
v -0.366449 0.052395 -0.527755
v 0.366449 0.154348 -0.507393
v 0.366449 0.154348 -0.507393
v 0.366449 0.154348 -0.507393
v -0.366449 0.154348 -0.507393
v -0.366449 0.154348 -0.507393
v -0.366449 0.154348 -0.507393
v -0.366448 0.440448 5.623788
v -0.366448 0.440448 5.623788
v -0.366448 0.489449 5.715482
v -0.366448 0.489449 5.715482
v -0.366448 0.374499 5.543415
v -0.366448 0.374499 5.543415
v -0.366449 -0.441492 5.623706
v -0.366449 -0.441492 5.623706
v -0.366449 -0.441492 5.623706
v -0.366449 0.294138 5.477451
v -0.366449 0.294138 5.477451
v -0.366449 -0.375529 5.543345
v -0.366449 -0.375529 5.543345
v -0.366449 -0.375529 5.543345
v -0.366449 0.202452 5.428432
v -0.366449 0.202452 5.428432
v -0.366448 0.374499 5.543415
v -0.366449 0.102965 5.398243
v -0.366449 0.102965 5.398243
v -0.366448 0.440448 5.623788
v -0.366449 -0.000500 5.388043
v -0.366449 -0.000500 5.388043
v -0.366449 -0.103967 5.398224
v -0.366449 -0.103967 5.398224
v -0.366449 -0.203460 5.428395
v -0.366449 -0.203460 5.428395
v -0.366449 -0.295155 5.477396
v -0.366449 -0.295155 5.477396
v -0.366449 -0.000500 5.388043
v -0.366449 0.102965 5.398243
v -0.366449 -0.490510 5.715392
v -0.366449 -0.490510 5.715392
v -0.366449 -0.520699 5.814879
v -0.366449 -0.520699 5.814879
v -0.366449 -0.520699 5.814879
v -0.366449 -0.520699 5.814879
v -0.366449 -0.530899 5.918344
v -0.366449 -0.530899 5.918344
v -0.366449 -0.530899 5.918344
v -0.366448 0.519620 5.814976
v -0.366448 0.519620 5.814976
v -0.366448 0.519620 5.814976
v -0.366448 0.519620 5.814976
v -0.366448 0.529801 5.918443
v -0.366448 0.529801 5.918443
v -0.366448 0.529801 5.918443
v -0.366449 -0.520699 5.814879
v -0.366449 -0.520699 5.814879
v -0.366449 -0.490510 5.715392
v -0.366449 -0.490510 5.715392
v -0.366449 -0.490510 5.715392
v -0.366449 -0.490510 5.715392
v -0.366449 -0.295155 5.477396
v -0.366449 -0.203460 5.428395
v -0.366449 -0.103967 5.398224
v -0.366449 -0.520699 5.814879
v -0.366449 -0.520699 5.814879
v -0.366449 -0.520699 5.814879
v -0.366449 0.202452 5.428432
v -0.366449 0.294138 5.477451
v -0.366448 0.519620 5.814976
v -0.366448 0.519620 5.814976
v -0.366448 0.519620 5.814976
v -0.366448 0.519620 5.814976
v -0.366448 0.519620 5.814976
v -0.366448 0.489449 5.715482
v -0.366448 0.489449 5.715482
v -0.366448 0.489449 5.715482
v -0.366448 0.489449 5.715482
v -0.366449 -0.203460 5.428395
v -0.366449 -0.203460 5.428395
v -0.366449 -0.203460 5.428395
v -0.366449 -0.295155 5.477396
v -0.366449 -0.295155 5.477396
v -0.366449 -0.295155 5.477396
v -0.366449 -0.520699 5.814879
v -0.366449 -0.520699 5.814879
v -0.366449 -0.520699 5.814879
v -0.366449 -0.530899 5.918344
v -0.366449 -0.530899 5.918344
v -0.366449 -0.530899 5.918344
v -0.366448 0.519620 5.814976
v -0.366448 0.519620 5.814976
v -0.366448 0.519620 5.814976
v -0.366448 0.529801 5.918443
v -0.366448 0.529801 5.918443
v -0.366448 0.529801 5.918443
v -0.366449 -0.441492 5.623706
v -0.366449 -0.441492 5.623706
v -0.366449 -0.441492 5.623706
v -0.366449 -0.375529 5.543345
v -0.366449 -0.375529 5.543345
v -0.366449 -0.375529 5.543345
v -0.366449 -0.103967 5.398224
v -0.366449 -0.103967 5.398224
v -0.366449 -0.103967 5.398224
v -0.366449 -0.000500 5.388043
v -0.366449 -0.000500 5.388043
v -0.366449 -0.000500 5.388043
v -0.366449 0.102965 5.398243
v -0.366449 0.102965 5.398243
v -0.366449 0.102965 5.398243
v -0.366449 0.202452 5.428432
v -0.366449 0.202452 5.428432
v -0.366449 0.202452 5.428432
v -0.366449 0.294138 5.477451
v -0.366449 0.294138 5.477451
v -0.366449 0.294138 5.477451
v -0.366448 0.374499 5.543415
v -0.366448 0.374499 5.543415
v -0.366448 0.374499 5.543415
v -0.366448 0.440448 5.623788
v -0.366448 0.440448 5.623788
v -0.366448 0.440448 5.623788
v 0.366449 -0.000599 6.448742
v 0.366449 -0.000599 6.448742
v 0.366449 -0.000599 6.448742
v -0.366449 -0.000598 6.448742
v -0.366449 -0.000598 6.448742
v -0.366449 -0.000598 6.448742
v 0.366449 -0.104064 6.438542
v 0.366449 -0.104064 6.438542
v 0.366449 -0.104064 6.438542
v -0.366449 -0.104064 6.438542
v -0.366449 -0.104064 6.438542
v -0.366449 -0.104064 6.438542
v 0.366449 -0.203551 6.408353
v 0.366449 -0.203551 6.408353
v 0.366449 -0.203551 6.408353
v -0.366449 -0.203551 6.408353
v -0.366449 -0.203551 6.408353
v -0.366449 -0.203551 6.408353
v 0.366449 -0.295237 6.359335
v 0.366449 -0.295237 6.359335
v 0.366449 -0.295237 6.359335
v -0.366449 -0.295237 6.359335
v -0.366449 -0.295237 6.359335
v -0.366449 -0.295237 6.359335
v 0.366449 -0.375599 6.293372
v 0.366449 -0.375599 6.293372
v 0.366449 -0.375599 6.293372
v -0.366449 -0.375598 6.293372
v -0.366449 -0.375598 6.293372
v -0.366449 -0.375598 6.293372
v 0.366449 -0.441547 6.212998
v 0.366449 -0.441547 6.212998
v 0.366449 -0.441547 6.212998
v -0.366449 -0.441546 6.212998
v -0.366449 -0.441546 6.212998
v -0.366449 -0.441546 6.212998
v 0.366448 -0.490548 6.121304
v 0.366448 -0.490548 6.121304
v 0.366448 -0.490548 6.121304
v -0.366449 -0.490548 6.121304
v -0.366449 -0.490548 6.121304
v -0.366449 -0.490548 6.121304
v 0.366449 -0.520719 6.021811
v 0.366449 -0.520719 6.021811
v 0.366449 -0.520719 6.021811
v -0.366449 -0.520719 6.021811
v -0.366449 -0.520719 6.021811
v -0.366449 -0.520719 6.021811
v 0.366449 -0.530899 5.918344
v 0.366449 -0.530899 5.918344
v 0.366449 -0.530899 5.918344
v -0.366449 -0.530900 5.918344
v -0.366449 -0.530900 5.918344
v -0.366449 -0.530900 5.918344
v 0.366449 -0.520700 5.814878
v 0.366449 -0.520700 5.814878
v 0.366449 -0.520700 5.814878
v -0.366449 -0.520699 5.814878
v -0.366449 -0.520699 5.814878
v -0.366449 -0.520699 5.814878
v 0.366449 -0.490510 5.715391
v 0.366449 -0.490510 5.715391
v 0.366449 -0.490510 5.715391
v -0.366449 -0.490510 5.715391
v -0.366449 -0.490510 5.715391
v -0.366449 -0.490510 5.715391
v 0.366449 -0.441492 5.623705
v 0.366449 -0.441492 5.623705
v 0.366449 -0.441492 5.623705
v -0.366449 -0.441492 5.623705
v -0.366449 -0.441492 5.623705
v -0.366449 -0.441492 5.623705
v 0.366449 -0.375529 5.543344
v 0.366449 -0.375529 5.543344
v 0.366449 -0.375529 5.543344
v -0.366449 -0.375529 5.543344
v -0.366449 -0.375529 5.543344
v -0.366449 -0.375529 5.543344
v 0.366449 -0.295155 5.477396
v 0.366449 -0.295155 5.477396
v 0.366449 -0.295155 5.477396
v -0.366449 -0.295155 5.477396
v -0.366449 -0.295155 5.477396
v -0.366449 -0.295155 5.477396
v 0.366449 -0.203460 5.428395
v 0.366449 -0.203460 5.428395
v 0.366449 -0.203460 5.428395
v -0.366449 -0.203460 5.428395
v -0.366449 -0.203460 5.428395
v -0.366449 -0.203460 5.428395
v 0.366449 -0.103967 5.398224
v 0.366449 -0.103967 5.398224
v 0.366449 -0.103967 5.398224
v -0.366449 -0.103967 5.398224
v -0.366449 -0.103967 5.398224
v -0.366449 -0.103967 5.398224
v 0.366449 -0.000500 5.388043
v 0.366449 -0.000500 5.388043
v 0.366449 -0.000500 5.388043
v -0.366449 -0.000500 5.388043
v -0.366449 -0.000500 5.388043
v -0.366449 -0.000500 5.388043
v 0.366449 0.102965 5.398243
v 0.366449 0.102965 5.398243
v 0.366449 0.102965 5.398243
v -0.366449 0.102965 5.398243
v -0.366449 0.102965 5.398243
v -0.366449 0.102965 5.398243
v 0.366449 0.202452 5.428432
v 0.366449 0.202452 5.428432
v 0.366449 0.202452 5.428432
v -0.366449 0.202452 5.428432
v -0.366449 0.202452 5.428432
v -0.366449 0.202452 5.428432
v 0.366449 0.294138 5.477450
v 0.366449 0.294138 5.477450
v 0.366449 0.294138 5.477450
v -0.366448 0.294138 5.477450
v -0.366448 0.294138 5.477450
v -0.366448 0.294138 5.477450
v 0.366449 0.374500 5.543413
v 0.366449 0.374500 5.543413
v 0.366449 0.374500 5.543413
v -0.366448 0.374500 5.543414
v -0.366448 0.374500 5.543414
v -0.366448 0.374500 5.543414
v 0.366449 0.440448 5.623787
v 0.366449 0.440448 5.623787
v 0.366449 0.440448 5.623787
v -0.366448 0.440448 5.623787
v -0.366448 0.440448 5.623787
v -0.366448 0.440448 5.623787
v 0.366449 0.489449 5.715482
v 0.366449 0.489449 5.715482
v 0.366449 0.489449 5.715482
v -0.366448 0.489449 5.715482
v -0.366448 0.489449 5.715482
v -0.366448 0.489449 5.715482
v 0.366449 0.519620 5.814975
v 0.366449 0.519620 5.814975
v 0.366449 0.519620 5.814975
v -0.366448 0.519620 5.814975
v -0.366448 0.519620 5.814975
v -0.366448 0.519620 5.814975
v 0.366449 0.529801 5.918442
v 0.366449 0.529801 5.918442
v 0.366449 0.529801 5.918442
v -0.366448 0.529801 5.918442
v -0.366448 0.529801 5.918442
v -0.366448 0.529801 5.918442
v 0.366449 0.519600 6.021907
v 0.366449 0.519600 6.021907
v 0.366449 0.519600 6.021907
v -0.366448 0.519601 6.021907
v -0.366448 0.519601 6.021907
v -0.366448 0.519601 6.021907
v 0.366449 0.489411 6.121394
v 0.366449 0.489411 6.121394
v 0.366449 0.489411 6.121394
v -0.366448 0.489412 6.121394
v -0.366448 0.489412 6.121394
v -0.366448 0.489412 6.121394
v 0.366449 0.440394 6.213080
v 0.366449 0.440394 6.213080
v 0.366449 0.440394 6.213080
v -0.366448 0.440393 6.213080
v -0.366448 0.440393 6.213080
v -0.366448 0.440393 6.213080
v 0.366449 0.374430 6.293441
v 0.366449 0.374430 6.293441
v 0.366449 0.374430 6.293441
v -0.366448 0.374430 6.293442
v -0.366448 0.374430 6.293442
v -0.366448 0.374430 6.293442
v 0.366449 0.294056 6.359390
v 0.366449 0.294056 6.359390
v 0.366449 0.294056 6.359390
v -0.366448 0.294057 6.359390
v -0.366448 0.294057 6.359390
v -0.366448 0.294057 6.359390
v 0.366449 0.202361 6.408391
v 0.366449 0.202361 6.408391
v 0.366449 0.202361 6.408391
v -0.366449 0.202361 6.408391
v -0.366449 0.202361 6.408391
v -0.366449 0.202361 6.408391
v 0.366449 0.102868 6.438561
v 0.366449 0.102868 6.438561
v 0.366449 0.102868 6.438561
v -0.366448 0.102868 6.438561
v -0.366448 0.102868 6.438561
v -0.366448 0.102868 6.438561
v 0.357424 -0.001264 13.637751
v 0.357424 -0.001264 13.637751
v 0.357424 -0.001264 13.637751
v -0.366449 -0.001264 13.637752
v -0.366449 -0.001264 13.637752
v -0.366449 -0.001264 13.637752
v 0.357424 -0.161029 13.622000
v 0.357424 -0.161029 13.622000
v 0.357424 -0.161029 13.622000
v -0.366449 -0.161029 13.622000
v -0.366449 -0.161029 13.622000
v -0.366449 -0.161029 13.622000
v 0.357424 -0.314650 13.575384
v 0.357424 -0.314650 13.575384
v 0.357424 -0.314650 13.575384
v -0.366449 -0.314650 13.575384
v -0.366449 -0.314650 13.575384
v -0.366449 -0.314650 13.575384
v 0.357424 -0.456226 13.499695
v 0.357424 -0.456226 13.499695
v 0.357424 -0.456226 13.499695
v -0.366449 -0.456226 13.499695
v -0.366449 -0.456226 13.499695
v -0.366449 -0.456226 13.499695
v 0.357424 -0.580314 13.397837
v 0.357424 -0.580314 13.397837
v 0.357424 -0.580314 13.397837
v -0.366449 -0.580315 13.397837
v -0.366449 -0.580315 13.397837
v -0.366449 -0.580315 13.397837
v 0.357424 -0.682148 13.273731
v 0.357424 -0.682148 13.273731
v 0.357424 -0.682148 13.273731
v -0.366449 -0.682147 13.273731
v -0.366449 -0.682147 13.273731
v -0.366449 -0.682147 13.273731
v 0.357424 -0.757811 13.132140
v 0.357424 -0.757811 13.132140
v 0.357424 -0.757811 13.132140
v -0.366449 -0.757812 13.132140
v -0.366449 -0.757812 13.132140
v -0.366449 -0.757812 13.132140
v 0.357424 -0.804399 12.978511
v 0.357424 -0.804399 12.978511
v 0.357424 -0.804399 12.978511
v -0.366449 -0.804399 12.978511
v -0.366449 -0.804399 12.978511
v -0.366449 -0.804399 12.978511
v 0.357424 -0.820120 12.818744
v 0.357424 -0.820120 12.818744
v 0.357424 -0.820120 12.818744
v -0.366449 -0.820120 12.818744
v -0.366449 -0.820120 12.818744
v -0.366449 -0.820120 12.818744
v 0.357424 -0.804370 12.658979
v 0.357424 -0.804370 12.658979
v 0.357424 -0.804370 12.658979
v -0.366449 -0.804370 12.658979
v -0.366449 -0.804370 12.658979
v -0.366449 -0.804370 12.658979
v 0.357424 -0.757754 12.505358
v 0.357424 -0.757754 12.505358
v 0.357424 -0.757754 12.505358
v -0.366449 -0.757754 12.505358
v -0.366449 -0.757754 12.505358
v -0.366449 -0.757754 12.505358
v 0.357424 -0.682063 12.363782
v 0.357424 -0.682063 12.363782
v 0.357424 -0.682063 12.363782
v -0.366449 -0.682063 12.363782
v -0.366449 -0.682063 12.363782
v -0.366449 -0.682063 12.363782
v 0.357424 -0.580207 12.239693
v 0.357424 -0.580207 12.239693
v 0.357424 -0.580207 12.239693
v -0.366449 -0.580207 12.239693
v -0.366449 -0.580207 12.239693
v -0.366449 -0.580207 12.239693
v 0.357424 -0.456099 12.137859
v 0.357424 -0.456099 12.137859
v 0.357424 -0.456099 12.137859
v -0.366449 -0.456099 12.137859
v -0.366449 -0.456099 12.137859
v -0.366449 -0.456099 12.137859
v 0.357424 -0.314510 12.062197
v 0.357424 -0.314510 12.062197
v 0.357424 -0.314510 12.062197
v -0.366449 -0.314510 12.062197
v -0.366449 -0.314510 12.062197
v -0.366449 -0.314510 12.062197
v 0.357424 -0.160879 12.015608
v 0.357424 -0.160879 12.015608
v 0.357424 -0.160879 12.015608
v -0.366449 -0.160879 12.015608
v -0.366449 -0.160879 12.015608
v -0.366449 -0.160879 12.015608
v 0.357424 -0.001113 11.999887
v 0.357424 -0.001113 11.999887
v 0.357424 -0.001113 11.999887
v -0.366449 -0.001112 11.999887
v -0.366449 -0.001112 11.999887
v -0.366449 -0.001112 11.999887
v 0.357424 0.158651 12.015637
v 0.357424 0.158651 12.015637
v 0.357424 0.158651 12.015637
v -0.366449 0.158652 12.015638
v -0.366449 0.158652 12.015638
v -0.366449 0.158652 12.015638
v 0.357424 0.312273 12.062255
v 0.357424 0.312273 12.062255
v 0.357424 0.312273 12.062255
v -0.366449 0.312273 12.062255
v -0.366449 0.312273 12.062255
v -0.366449 0.312273 12.062255
v 0.357424 0.453849 12.137944
v 0.357424 0.453849 12.137944
v 0.357424 0.453849 12.137944
v -0.366449 0.453849 12.137944
v -0.366449 0.453849 12.137944
v -0.366449 0.453849 12.137944
v 0.357424 0.577938 12.239800
v 0.357424 0.577938 12.239800
v 0.357424 0.577938 12.239800
v -0.366448 0.577938 12.239800
v -0.366448 0.577938 12.239800
v -0.366448 0.577938 12.239800
v 0.357424 0.679771 12.363908
v 0.357424 0.679771 12.363908
v 0.357424 0.679771 12.363908
v -0.366448 0.679771 12.363908
v -0.366448 0.679771 12.363908
v -0.366448 0.679771 12.363908
v 0.357424 0.755435 12.505498
v 0.357424 0.755435 12.505498
v 0.357424 0.755435 12.505498
v -0.366448 0.755435 12.505498
v -0.366448 0.755435 12.505498
v -0.366448 0.755435 12.505498
v 0.357424 0.802023 12.659128
v 0.357424 0.802023 12.659128
v 0.357424 0.802023 12.659128
v -0.366448 0.802022 12.659128
v -0.366448 0.802022 12.659128
v -0.366448 0.802022 12.659128
v 0.357424 0.817743 12.818895
v 0.357424 0.817743 12.818895
v 0.357424 0.817743 12.818895
v -0.366448 0.817743 12.818895
v -0.366448 0.817743 12.818895
v -0.366448 0.817743 12.818895
v 0.357424 0.801994 12.978659
v 0.357424 0.801994 12.978659
v 0.357424 0.801994 12.978659
v -0.366448 0.801993 12.978659
v -0.366448 0.801993 12.978659
v -0.366448 0.801993 12.978659
v 0.357424 0.755377 13.132280
v 0.357424 0.755377 13.132280
v 0.357424 0.755377 13.132280
v -0.366448 0.755377 13.132280
v -0.366448 0.755377 13.132280
v -0.366448 0.755377 13.132280
v 0.357424 0.679687 13.273856
v 0.357424 0.679687 13.273856
v 0.357424 0.679687 13.273856
v -0.366448 0.679687 13.273856
v -0.366448 0.679687 13.273856
v -0.366448 0.679687 13.273856
v 0.357424 0.577830 13.397945
v 0.357424 0.577830 13.397945
v 0.357424 0.577830 13.397945
v -0.366448 0.577830 13.397945
v -0.366448 0.577830 13.397945
v -0.366448 0.577830 13.397945
v 0.357424 0.453722 13.499779
v 0.357424 0.453722 13.499779
v 0.357424 0.453722 13.499779
v -0.366449 0.453722 13.499779
v -0.366449 0.453722 13.499779
v -0.366449 0.453722 13.499779
v 0.357424 0.312133 13.575441
v 0.357424 0.312133 13.575441
v 0.357424 0.312133 13.575441
v -0.366449 0.312133 13.575441
v -0.366449 0.312133 13.575441
v -0.366449 0.312133 13.575441
v 0.357424 0.158503 13.622030
v 0.357424 0.158503 13.622030
v 0.357424 0.158503 13.622030
v -0.366449 0.158503 13.622030
v -0.366449 0.158503 13.622030
v -0.366449 0.158503 13.622030
vn -0.0000 -0.0981 0.9952
vn -0.0000 -0.2904 0.9569
vn -0.0000 -0.4715 0.8819
vn -0.0000 -0.6345 0.7729
vn -0.0000 -0.7731 0.6343
vn -0.0000 -0.8820 0.4713
vn -0.0000 -0.9570 0.2902
vn -0.0000 -0.9952 0.0979
vn -0.0000 -0.0000 1.0000
vn -0.0000 0.9952 0.0981
vn -0.0000 0.9569 0.2904
vn -0.0000 0.8819 0.4715
vn -0.0000 0.7730 0.6345
vn -0.0000 0.6343 0.7731
vn -0.0000 0.4713 0.8820
vn -0.0000 0.2902 0.9570
vn -0.0000 0.0979 0.9952
vn -0.0000 1.0000 0.0001
vn -0.0000 -1.0000 -0.0001
vn -0.0000 -0.9952 -0.0981
vn -0.0000 0.9952 -0.0979
vn -0.0000 -0.9569 -0.2904
vn -0.0000 -0.8819 -0.4715
vn -0.0000 -0.7730 -0.6345
vn -0.0000 -0.6343 -0.7731
vn -0.0000 -0.4713 -0.8820
vn -0.0000 -0.2902 -0.9570
vn -0.0000 -0.0979 -0.9952
vn -0.0000 0.0981 -0.9952
vn 0.0624 0.2898 -0.9551
vn -0.0000 0.2904 -0.9569
vn -0.8659 0.1342 0.4818
vn -0.0000 0.4715 -0.8819
vn -0.0000 0.6345 -0.7729
vn 0.7669 0.3161 0.5586
vn -0.0000 0.7731 -0.6343
vn 0.0624 0.7716 -0.6331
vn -0.0000 0.8820 -0.4713
vn -0.0000 0.9570 -0.2902
vn 1.0000 -0.0000 -0.0000
vn 1.0000 -0.0000 0.0001
vn 0.8756 -0.0000 0.4831
vn 0.6306 0.0001 0.7761
vn -0.0000 -0.0000 -1.0000
vn -0.0000 -0.0000 -0.0000
vn -1.0000 -0.0000 -0.0000
vn -1.0000 -0.0000 -0.0001
vn -1.0000 0.0001 -0.0000
vn -1.0000 -0.0001 0.0001
vn -1.0000 -0.0000 0.0001
vn 0.0980 -0.9952 -0.0001
vn 0.2903 -0.9569 -0.0001
vn 0.4714 -0.8819 -0.0001
vn 0.6344 -0.7730 -0.0001
vn 0.7730 -0.6344 -0.0001
vn 0.8819 -0.4714 -0.0000
vn 0.9569 -0.2903 -0.0000
vn 0.9952 -0.0980 -0.0000
vn 0.9952 0.0980 -0.0000
vn 0.9569 0.2903 -0.0000
vn 0.8819 0.4714 -0.0000
vn 0.7730 0.6344 0.0001
vn 0.6344 0.7730 0.0001
vn 0.4714 0.8819 0.0001
vn 0.2903 0.9569 0.0001
vn 0.0980 0.9952 0.0001
vn -0.0980 0.9952 0.0001
vn -0.2903 0.9569 0.0001
vn -0.4714 0.8819 0.0001
vn -0.6344 0.7730 0.0001
vn -0.7730 0.6344 0.0001
vn -0.8819 0.4714 -0.0000
vn -0.9569 0.2903 -0.0000
vn -0.9952 0.0980 -0.0000
vn -0.9952 -0.0980 -0.0000
vn -0.9569 -0.2903 -0.0000
vn -0.8819 -0.4714 -0.0000
vn -0.7730 -0.6344 -0.0001
vn -0.6344 -0.7730 -0.0001
vn -0.4714 -0.8819 -0.0001
vn -0.0000 0.0001 -1.0000
vn -0.0000 0.0002 -1.0000
vn 0.0001 0.0001 -1.0000
vn -0.0001 0.0001 -1.0000
vn -0.0001 0.0002 -1.0000
vn -0.2903 -0.9569 -0.0001
vn -0.0980 -0.9952 -0.0001
vn -0.0000 -0.0001 1.0000
vn 0.0001 -0.0002 1.0000
vn -0.0002 -0.0001 1.0000
vn -0.0001 -0.0001 1.0000
vn -0.0002 -0.0002 1.0000
vn -0.0000 -0.0002 1.0000
vn 0.0001 -0.0001 1.0000
vn 0.0002 -0.0001 1.0000
vn -0.0001 -0.0002 1.0000
vn -0.0000 -0.8769 -0.4806
vn 0.0624 -0.0000 0.9981
vn 0.0624 0.0001 0.9981
vn 0.6839 -0.0000 0.7296
vn 1.0000 -0.0000 0.0035
vn 0.6306 -0.0000 0.7761
vn 1.0000 -0.0001 -0.0000
vn -0.1842 -0.0000 0.9829
vn -0.6840 -0.0000 0.7295
vn -0.8823 -0.0000 0.4706
vn 0.4008 -0.0000 0.9162
vn -0.0143 0.0346 -0.9993
vn -0.0000 0.8039 0.5947
vn 0.0624 0.2897 -0.9551
vn 0.6840 -0.0000 0.7295
vn 1.0000 -0.0001 0.0034
vn 0.7668 0.3161 0.5586
vn -0.8660 0.1341 0.4818
vn -0.0933 -0.0000 0.9956
vn -0.8660 0.1340 0.4818
vn -0.0932 -0.0000 0.9956
vn -0.1841 -0.0000 0.9829
vn 1.0000 -0.0000 0.0002
vn -0.0000 0.5562 -0.8310
vn -0.0000 0.7077 -0.7066
vn -0.0000 0.8319 -0.5549
vn -0.0000 0.9242 -0.3820
vn -0.0000 0.9809 -0.1943
vn -0.0000 1.0000 0.0008
vn -0.0000 0.9806 0.1959
vn -0.0000 0.9236 0.3834
vn -0.0000 0.8310 0.5562
vn -0.0000 0.7066 0.7077
vn -0.0000 0.5549 0.8319
vn -0.0000 0.3820 0.9242
vn -0.0000 0.1943 0.9809
vn -0.0000 -0.0008 1.0000
vn -0.0000 -0.1959 0.9806
vn -0.0000 -0.3834 0.9236
vn -0.0000 -0.5562 0.8310
vn -0.0000 -0.7077 0.7066
vn -0.0000 -0.8319 0.5549
vn -0.0000 -0.9242 0.3820
vn -0.0000 -0.9809 0.1943
vn -0.0000 -1.0000 -0.0008
vn -0.0000 -0.9806 -0.1959
vn -0.0000 -0.9236 -0.3834
vn -0.0000 -0.8310 -0.5562
vn -0.0000 -0.7066 -0.7077
vn -0.0000 -0.5549 -0.8319
vn -0.0000 -0.3820 -0.9242
vn -0.0000 -0.1943 -0.9809
vn -0.0000 0.0008 -1.0000
vn -0.0000 0.1959 -0.9806
vn -0.0000 0.3834 -0.9236
vn -0.0000 -0.6345 0.7730
vn -0.0000 0.6345 -0.7730
vn -0.0000 0.7729 0.6345
vt 1.000000 0.500000
vt 1.000000 1.000000
vt 0.968750 1.000000
vt 0.968750 0.500000
vt 0.937500 1.000000
vt 0.937500 0.500000
vt 0.906250 1.000000
vt 0.906250 0.500000
vt 0.875000 1.000000
vt 0.875000 0.500000
vt 0.843750 1.000000
vt 0.843750 0.500000
vt 0.812500 1.000000
vt 0.812500 0.500000
vt 0.781250 1.000000
vt 0.781250 0.500000
vt 0.750000 1.000000
vt 0.750000 0.500000
vt 0.250000 1.000000
vt 0.250000 0.500000
vt 0.218750 1.000000
vt 0.218750 0.500000
vt 0.187500 1.000000
vt 0.187500 0.500000
vt 0.156250 1.000000
vt 0.156250 0.500000
vt 0.125000 1.000000
vt 0.125000 0.500000
vt 0.093750 1.000000
vt 0.093750 0.500000
vt 0.062500 1.000000
vt 0.062500 0.500000
vt 0.031250 1.000000
vt 0.031250 0.500000
vt 0.000000 1.000000
vt 0.000000 0.500000
vt 0.718750 1.000000
vt 0.718750 0.500000
vt 0.281250 1.000000
vt 0.281250 0.500000
vt 0.687500 1.000000
vt 0.687500 0.500000
vt 0.656250 1.000000
vt 0.656250 0.500000
vt 0.625000 1.000000
vt 0.625000 0.500000
vt 0.593750 1.000000
vt 0.593750 0.500000
vt 0.562500 1.000000
vt 0.562500 0.500000
vt 0.531250 1.000000
vt 0.531250 0.500000
vt 0.500000 1.000000
vt 0.500000 0.500000
vt 0.468750 1.000000
vt 0.468750 0.500000
vt 0.437500 1.000000
vt 0.437500 0.500000
vt 0.406250 1.000000
vt 0.406250 0.500000
vt 0.375000 1.000000
vt 0.375000 0.500000
vt 0.343750 1.000000
vt 0.343750 0.500000
vt 0.312500 1.000000
vt 0.312500 0.500000
vt 0.000000 0.000000
vt 0.985388 0.203178
vt 0.550447 0.116663
vt 0.703178 0.014612
vt 0.419706 0.080294
vt 0.383337 0.050447
vt 0.341844 0.028269
vt 0.296822 0.014612
vt 0.471731 0.158156
vt 0.449553 0.116663
vt 0.485388 0.203178
vt 0.014612 0.203178
vt 0.028269 0.158156
vt 0.050447 0.116663
vt 0.080294 0.080294
vt 0.116663 0.050447
vt 0.158156 0.028269
vt 0.203178 0.014612
vt 0.250000 0.010000
vt 0.341844 0.471731
vt 0.296822 0.485388
vt 0.250000 0.490000
vt 0.203178 0.485388
vt 0.158156 0.471731
vt 0.116663 0.449553
vt 0.080294 0.419706
vt 0.050447 0.383337
vt 0.028269 0.341844
vt 0.014612 0.296822
vt 0.010000 0.250000
vt 0.490000 0.250000
vt 0.485388 0.296822
vt 0.471731 0.341844
vt 0.449553 0.383337
vt 0.419706 0.419706
vt 0.383337 0.449553
vt 0.703178 0.485388
vt 0.750000 0.490000
vt 0.796822 0.485388
vt 0.841844 0.471731
vt 0.883337 0.449553
vt 0.919706 0.419706
vt 0.949553 0.383337
vt 0.971731 0.341844
vt 0.985388 0.296822
vt 0.990000 0.250000
vt 0.971731 0.158156
vt 0.949553 0.116663
vt 0.919706 0.080294
vt 0.883337 0.050447
vt 0.841844 0.028269
vt 0.796822 0.014612
vt 0.750000 0.010000
vt 0.658156 0.028269
vt 0.616663 0.050447
vt 0.580294 0.080294
vt 0.528269 0.158156
vt 0.514612 0.203178
vt 0.510000 0.250000
vt 0.514612 0.296822
vt 0.528269 0.341844
vt 0.550447 0.383337
vt 0.580294 0.419706
vt 0.616663 0.449553
vt 0.658156 0.471731
s 1
usemtl Material.011
f 2/1/1 5/2/1 11/3/1
f 2/1/1 11/3/1 8/4/1
f 9/4/2 12/3/2 17/5/2
f 9/4/2 17/5/2 14/6/2
f 15/6/3 18/5/3 23/7/3
f 15/6/3 23/7/3 20/8/3
f 21/8/4 24/7/4 29/9/4
f 21/8/4 29/9/4 26/10/4
f 27/10/5 30/9/5 35/11/5
f 27/10/5 35/11/5 32/12/5
f 33/12/6 36/11/6 41/13/6
f 33/12/6 41/13/6 38/14/6
f 39/14/7 42/13/7 47/15/7
f 39/14/7 47/15/7 44/16/7
f 45/16/8 48/15/8 53/17/8
f 45/16/8 53/17/8 51/18/8
s 0
f 57/19/9 54/20/9 110/20/9
f 57/19/9 110/20/9 113/19/9
s 1
f 56/20/10 58/19/10 64/21/10
f 56/20/10 64/21/10 61/22/10
f 60/22/11 63/21/11 70/23/11
f 60/22/11 70/23/11 67/24/11
f 66/24/12 69/23/12 76/25/12
f 66/24/12 76/25/12 73/26/12
f 72/26/13 75/25/13 82/27/13
f 72/26/13 82/27/13 79/28/13
f 78/28/14 81/27/14 88/29/14
f 78/28/14 88/29/14 85/30/14
f 84/30/15 87/29/15 94/31/15
f 84/30/15 94/31/15 91/32/15
f 90/32/16 93/31/16 100/33/16
f 90/32/16 100/33/16 97/34/16
f 96/34/17 99/33/17 6/35/17
f 96/34/17 6/35/17 3/36/17
s 0
f 49/18/9 52/17/9 108/17/9
f 49/18/9 108/17/9 105/18/9
s 1
f 114/19/18 112/20/18 116/20/18
f 114/19/18 116/20/18 118/19/18
f 107/18/19 109/17/19 102/17/19
f 107/18/19 102/17/19 104/18/19
f 118/19/18 116/20/18 150/20/18
f 118/19/18 150/20/18 153/19/18
f 104/18/19 102/17/19 139/17/19
f 104/18/19 139/17/19 142/18/19
s 0
f 134/37/9 135/38/9 193/38/9
f 134/37/9 193/38/9 161/37/9
f 167/39/9 184/40/9 182/40/9
f 167/39/9 182/40/9 169/39/9
f 156/38/9 155/37/9 180/37/9
f 156/38/9 180/37/9 177/38/9
f 135/38/9 134/37/9 155/37/9
f 135/38/9 155/37/9 156/38/9
f 147/39/9 144/40/9 184/40/9
f 147/39/9 184/40/9 167/39/9
s 1
f 199/18/20 197/17/20 162/37/20
f 199/18/20 162/37/20 194/38/20
f 205/40/21 202/39/21 210/19/21
f 205/40/21 210/19/21 207/20/21
f 178/38/22 181/37/22 213/41/22
f 178/38/22 213/41/22 158/42/22
f 157/42/23 212/41/23 218/43/23
f 157/42/23 218/43/23 215/44/23
f 214/44/24 217/43/24 223/45/24
f 214/44/24 223/45/24 220/46/24
f 219/46/25 222/45/25 173/47/25
f 219/46/25 173/47/25 190/48/25
f 189/48/26 172/47/26 176/49/26
f 189/48/26 176/49/26 188/50/26
f 187/50/27 175/49/27 228/51/27
f 187/50/27 228/51/27 225/52/27
f 224/52/28 227/51/28 232/53/28
f 224/52/28 232/53/28 229/54/28
f 230/54/29 233/53/29 237/55/29
f 230/54/29 237/55/29 234/56/29
f 235/56/30 238/55/31 242/57/31
f 235/56/30 242/57/31 239/58/32
f 240/58/33 243/57/33 247/59/33
f 240/58/33 247/59/33 244/60/33
f 245/60/34 248/59/34 252/61/34
f 245/60/34 252/61/34 249/62/34
f 250/62/35 253/61/36 257/63/36
f 250/62/35 257/63/36 254/64/37
f 255/64/38 258/63/38 164/65/38
f 255/64/38 164/65/38 185/66/38
f 186/66/39 165/65/39 170/39/39
f 186/66/39 170/39/39 183/40/39
s 0
f 140/18/9 138/17/9 196/17/9
f 140/18/9 196/17/9 198/18/9
f 144/40/9 147/39/9 201/39/9
f 144/40/9 201/39/9 204/40/9
s 1
f 95/34/40 1/36/40 7/4/40
f 7/4/40 13/6/40 19/8/40
f 19/8/40 25/10/40 31/12/40
f 31/12/40 37/14/40 43/16/40
f 19/8/40 31/12/40 43/16/40
f 95/34/40 7/4/40 19/8/40
f 83/30/40 89/32/41 95/34/40
f 71/26/40 77/28/40 83/30/40
f 59/22/40 65/24/40 71/26/40
f 59/22/40 71/26/40 83/30/40
f 83/30/40 95/34/40 19/8/40
f 103/18/40 141/67/40 136/68/40
f 145/67/42 149/20/40 115/20/40
f 119/69/43 145/67/42 115/20/40
f 83/30/40 19/8/40 43/16/40
f 126/70/40 119/69/43 115/20/40
f 59/22/40 83/30/40 43/16/40
f 103/18/40 136/68/40 126/70/40
f 103/18/40 126/70/40 115/20/40
s 0
f 111/20/44 55/20/40 59/22/40
s 1
f 103/18/40 115/20/40 111/20/40
f 103/18/40 111/20/40 59/22/40
f 103/18/40 59/22/40 43/16/40
s 0
f 50/18/45 106/18/45 103/18/45
s 1
f 43/16/40 50/18/40 103/18/40
s 0
f 152/19/9 148/20/9 206/20/9
f 152/19/9 206/20/9 209/19/9
f 128/71/46 131/72/44 192/72/47
f 191/73/44 130/73/46 120/74/46
f 159/75/9 132/75/46 129/76/48
f 137/67/44 195/67/46 160/77/49
f 200/67/46 208/67/44 151/67/46
f 200/67/46 151/67/46 146/78/9
f 166/78/9 168/78/46 163/79/47
f 200/67/44 146/78/44 166/78/44
f 203/79/47 200/67/9 166/78/46
f 203/79/50 166/78/46 163/79/9
f 121/80/47 203/79/9 163/79/46
f 121/80/46 163/79/46 256/80/44
f 122/81/46 121/80/44 256/80/46
f 122/81/46 256/80/46 251/81/44
f 123/82/46 122/81/9 251/81/46
f 123/82/46 251/81/46 246/82/9
f 124/83/46 123/82/9 246/82/46
f 124/83/47 246/82/46 241/83/44
f 125/84/46 124/83/9 241/83/46
f 125/84/50 241/83/46 236/84/9
f 127/85/46 125/84/44 236/84/46
f 127/85/46 236/84/46 231/85/44
f 120/74/46 127/85/9 231/85/50
f 120/74/46 231/85/46 226/74/9
f 191/73/46 120/74/44 226/74/46
f 191/73/46 226/74/46 174/73/44
f 192/72/46 191/73/44 174/73/46
f 192/72/46 174/73/46 171/72/44
f 128/71/46 192/72/44 171/72/47
f 128/71/46 171/72/47 221/71/44
f 129/76/46 128/71/9 221/71/46
f 129/76/46 221/71/46 216/76/9
f 159/75/46 129/76/9 216/76/50
f 159/75/46 216/76/48 211/75/9
f 179/77/44 154/77/44 133/67/44
f 159/75/44 211/75/46 179/77/46
f 133/67/46 137/67/46 160/77/44
f 179/77/44 133/67/44 160/77/44
f 179/77/9 160/77/46 159/75/46
s 1
f 16/5/46 10/3/46 4/2/46
f 4/2/46 98/33/46 92/31/46
f 92/31/46 86/29/46 80/27/46
f 80/27/46 74/25/46 68/23/46
f 121/80/46 122/81/46 123/82/46
f 123/82/46 124/83/46 125/84/46
f 125/84/46 127/85/46 120/74/46
f 123/82/46 125/84/46 120/74/46
f 80/27/46 68/23/46 62/21/46
f 4/2/46 92/31/46 80/27/46
f 22/7/46 16/5/46 4/2/46
f 34/11/46 28/9/46 22/7/46
f 46/15/46 40/13/46 34/11/46
f 46/15/46 34/11/46 22/7/46
f 22/7/46 4/2/46 80/27/46
f 121/80/46 123/82/46 120/74/46
f 22/7/46 80/27/46 62/21/46
f 46/15/46 22/7/46 62/21/46
s 0
f 101/17/45 108/17/45 52/17/45
s 1
f 52/17/46 46/15/46 62/21/46
f 101/17/46 52/17/46 62/21/46
f 137/67/46 101/17/46 62/21/46
s 0
f 160/77/44 134/37/46 137/67/46
s 1
f 160/77/46 137/67/46 62/21/46
s 0
f 57/19/45 113/19/45 117/19/45
s 1
f 160/77/46 62/21/46 57/19/46
f 160/77/46 57/19/46 117/19/46
f 160/77/46 117/19/46 152/19/46
s 0
f 152/19/46 146/78/9 201/39/46
s 1
f 160/77/46 152/19/46 201/39/46
f 159/75/46 160/77/46 201/39/46
f 129/76/46 159/75/46 201/39/46
f 128/71/46 129/76/46 201/39/46
f 192/72/46 128/71/46 201/39/46
s 0
f 203/79/9 143/79/46 121/80/47
s 1
f 192/72/46 201/39/46 203/79/46
f 192/72/46 203/79/46 121/80/46
f 192/72/46 121/80/46 120/74/46
s 0
f 130/73/44 191/73/46 192/72/46
s 1
f 120/74/46 130/73/46 192/72/46
f 260/1/51 263/2/51 269/3/51
f 260/1/51 269/3/51 266/4/51
f 267/4/52 270/3/52 275/5/52
f 267/4/52 275/5/52 272/6/52
f 273/6/53 276/5/53 281/7/53
f 273/6/53 281/7/53 278/8/53
f 279/8/54 282/7/54 287/9/54
f 279/8/54 287/9/54 284/10/54
f 285/10/55 288/9/55 293/11/55
f 285/10/55 293/11/55 290/12/55
f 291/12/56 294/11/56 299/13/56
f 291/12/56 299/13/56 296/14/56
f 297/14/57 300/13/57 305/15/57
f 297/14/57 305/15/57 302/16/57
f 303/16/58 306/15/58 312/17/58
f 303/16/58 312/17/58 309/18/58
f 308/18/59 311/17/59 318/37/59
f 308/18/59 318/37/59 315/38/59
f 314/38/60 317/37/60 324/41/60
f 314/38/60 324/41/60 321/42/60
f 320/42/61 323/41/61 330/43/61
f 320/42/61 330/43/61 327/44/61
f 326/44/62 329/43/62 336/45/62
f 326/44/62 336/45/62 333/46/62
f 332/46/63 335/45/63 342/47/63
f 332/46/63 342/47/63 339/48/63
f 338/48/64 341/47/64 348/49/64
f 338/48/64 348/49/64 345/50/64
f 344/50/65 347/49/65 354/51/65
f 344/50/65 354/51/65 351/52/65
f 350/52/66 353/51/66 359/53/66
f 350/52/66 359/53/66 356/54/66
f 357/54/67 360/53/67 365/55/67
f 357/54/67 365/55/67 362/56/67
f 363/56/68 366/55/68 371/57/68
f 363/56/68 371/57/68 368/58/68
f 369/58/69 372/57/69 377/59/69
f 369/58/69 377/59/69 374/60/69
f 375/60/70 378/59/70 383/61/70
f 375/60/70 383/61/70 380/62/70
f 381/62/71 384/61/71 389/63/71
f 381/62/71 389/63/71 386/64/71
f 387/64/72 390/63/72 395/65/72
f 387/64/72 395/65/72 392/66/72
f 393/66/73 396/65/73 401/39/73
f 393/66/73 401/39/73 398/40/73
f 399/40/74 402/39/74 407/19/74
f 399/40/74 407/19/74 404/20/74
f 405/20/75 408/19/75 414/21/75
f 405/20/75 414/21/75 411/22/75
f 410/22/76 413/21/76 420/23/76
f 410/22/76 420/23/76 417/24/76
f 416/24/77 419/23/77 426/25/77
f 416/24/77 426/25/77 423/26/77
f 422/26/78 425/25/78 432/27/78
f 422/26/78 432/27/78 429/28/78
f 428/28/79 431/27/79 438/29/79
f 428/28/79 438/29/79 435/30/79
f 434/30/80 437/29/80 444/31/80
f 434/30/80 444/31/80 441/32/80
f 274/86/81 268/87/82 262/88/81
f 262/88/81 448/89/82 442/90/81
f 442/90/81 436/91/44 430/92/81
f 430/92/81 424/93/81 418/94/81
f 418/94/81 412/95/81 406/96/81
f 406/96/81 400/78/83 394/79/81
f 394/79/81 388/80/81 382/81/81
f 382/81/81 376/82/81 370/83/81
f 370/83/81 364/84/44 358/85/81
f 358/85/81 352/74/44 346/73/81
f 346/73/81 340/72/81 334/71/81
f 334/71/81 328/76/81 322/75/81
f 322/75/81 316/77/84 310/97/81
f 310/97/81 304/98/81 298/99/81
f 298/99/81 292/100/81 286/101/81
f 286/101/81 280/102/85 274/86/81
f 274/86/81 262/88/81 442/90/81
f 442/90/81 430/92/81 418/94/81
f 418/94/81 406/96/81 394/79/81
f 394/79/81 382/81/81 370/83/81
f 370/83/81 358/85/81 346/73/81
f 346/73/81 334/71/81 322/75/81
f 322/75/81 310/97/81 298/99/81
f 298/99/81 286/101/81 274/86/81
f 274/86/81 442/90/81 418/94/81
f 418/94/81 394/79/81 370/83/81
f 370/83/81 346/73/81 322/75/81
f 322/75/81 298/99/81 274/86/81
f 274/86/81 418/94/81 370/83/81
f 370/83/81 322/75/81 274/86/81
f 440/32/86 443/31/86 450/33/86
f 440/32/86 450/33/86 447/34/86
f 446/34/87 449/33/87 264/35/87
f 446/34/87 264/35/87 261/36/87
f 445/103/88 259/104/9 265/105/88
f 265/105/88 271/106/88 277/107/88
f 277/107/88 283/108/89 289/109/88
f 289/109/88 295/110/90 301/111/88
f 301/111/88 307/112/91 313/68/91
f 313/68/91 319/113/90 325/114/88
f 325/114/88 331/115/92 337/116/88
f 337/116/88 343/117/88 349/118/88
f 349/118/88 355/119/93 361/70/88
f 361/70/88 367/120/88 373/121/88
f 373/121/88 379/122/93 385/69/88
f 385/69/88 391/123/90 397/124/88
f 397/124/88 403/125/94 409/126/91
f 409/126/91 415/127/95 421/128/88
f 421/128/88 427/129/96 433/130/88
f 433/130/88 439/131/88 445/103/88
f 445/103/88 265/105/88 277/107/88
f 277/107/88 289/109/88 301/111/88
f 301/111/88 313/68/91 325/114/88
f 325/114/88 337/116/88 349/118/88
f 349/118/88 361/70/88 373/121/88
f 373/121/88 385/69/88 397/124/88
f 397/124/88 409/126/91 421/128/88
f 421/128/88 433/130/88 445/103/88
f 445/103/88 277/107/88 301/111/88
f 301/111/88 325/114/88 349/118/88
f 349/118/88 373/121/88 397/124/88
f 397/124/88 421/128/88 445/103/88
f 445/103/88 301/111/88 349/118/88
f 349/118/88 397/124/88 445/103/88
s 0
f 146/78/46 208/67/97 200/67/44
s 1
f 184/40/40 255/64/40 185/66/40
f 255/67/98 185/67/40 183/67/99
f 235/56/30 240/58/100 244/60/40
f 245/60/101 250/62/35 254/64/37
s 0
f 119/69/102 126/70/103 255/67/9
s 1
f 255/67/104 249/62/105 245/60/106
s 0
f 136/68/9 235/67/9 126/67/9
s 1
f 136/68/107 230/67/40 126/67/40
s 0
f 200/67/108 203/79/9 201/39/9
f 200/67/44 201/39/9 146/78/44
f 146/78/109 151/67/9 208/67/40
f 185/66/9 182/40/9 184/40/9
f 184/40/9 144/40/9 204/40/9
f 184/40/9 204/40/9 255/64/9
f 183/67/9 145/67/42 119/69/102
f 183/67/98 119/69/9 255/67/98
f 255/67/9 186/67/9 185/67/9
f 235/56/110 239/58/9 240/58/111
f 245/60/112 249/62/9 250/62/113
f 119/67/9 254/67/9 255/67/9
f 126/67/9 235/67/9 234/67/9
f 244/60/9 240/58/9 239/58/114
f 239/58/114 126/67/9 234/67/115
f 245/60/9 244/60/9 239/58/116
s 1
f 245/60/106 239/58/114 234/67/117
s 0
f 234/67/115 119/67/9 255/67/118
s 1
f 245/60/106 234/67/117 255/67/104
s 0
f 255/67/104 250/62/9 249/62/105
s 1
f 158/67/40 215/67/40 220/67/40
f 220/67/40 190/67/40 188/67/40
f 188/67/40 225/67/40 230/67/40
f 220/67/40 188/67/40 230/67/40
f 158/67/40 220/67/40 230/67/40
s 0
f 136/68/9 194/67/9 158/67/119
s 1
f 136/68/107 158/67/40 230/67/40
usemtl Material.010
f 452/1/120 455/2/120 461/3/120
f 452/1/120 461/3/120 458/4/120
f 459/4/121 462/3/121 467/5/121
f 459/4/121 467/5/121 464/6/121
f 465/6/122 468/5/122 473/7/122
f 465/6/122 473/7/122 470/8/122
f 471/8/123 474/7/123 479/9/123
f 471/8/123 479/9/123 476/10/123
f 477/10/124 480/9/124 485/11/124
f 477/10/124 485/11/124 482/12/124
f 483/12/125 486/11/125 491/13/125
f 483/12/125 491/13/125 488/14/125
f 489/14/126 492/13/126 497/15/126
f 489/14/126 497/15/126 494/16/126
f 495/16/127 498/15/127 504/17/127
f 495/16/127 504/17/127 501/18/127
f 500/18/128 503/17/128 510/37/128
f 500/18/128 510/37/128 507/38/128
f 506/38/129 509/37/129 516/41/129
f 506/38/129 516/41/129 513/42/129
f 512/42/130 515/41/130 522/43/130
f 512/42/130 522/43/130 519/44/130
f 518/44/131 521/43/131 528/45/131
f 518/44/131 528/45/131 525/46/131
f 524/46/132 527/45/132 534/47/132
f 524/46/132 534/47/132 531/48/132
f 530/48/133 533/47/133 540/49/133
f 530/48/133 540/49/133 537/50/133
f 536/50/134 539/49/134 546/51/134
f 536/50/134 546/51/134 543/52/134
f 542/52/135 545/51/135 551/53/135
f 542/52/135 551/53/135 548/54/135
f 549/54/136 552/53/136 557/55/136
f 549/54/136 557/55/136 554/56/136
f 555/56/137 558/55/137 563/57/137
f 555/56/137 563/57/137 560/58/137
f 561/58/138 564/57/138 569/59/138
f 561/58/138 569/59/138 566/60/138
f 567/60/139 570/59/139 575/61/139
f 567/60/139 575/61/139 572/62/139
f 573/62/140 576/61/140 581/63/140
f 573/62/140 581/63/140 578/64/140
f 579/64/141 582/63/141 587/65/141
f 579/64/141 587/65/141 584/66/141
f 585/66/142 588/65/142 593/39/142
f 585/66/142 593/39/142 590/40/142
f 591/40/143 594/39/143 599/19/143
f 591/40/143 599/19/143 596/20/143
f 597/20/144 600/19/144 606/21/144
f 597/20/144 606/21/144 603/22/144
f 602/22/145 605/21/145 612/23/145
f 602/22/145 612/23/145 609/24/145
f 608/24/146 611/23/146 618/25/146
f 608/24/146 618/25/146 615/26/146
f 614/26/147 617/25/147 624/27/147
f 614/26/147 624/27/147 621/28/147
f 620/28/148 623/27/148 630/29/148
f 620/28/148 630/29/148 627/30/148
f 626/30/149 629/29/149 636/31/149
f 626/30/149 636/31/149 633/32/149
f 466/86/46 460/87/46 454/88/46
f 454/88/46 640/89/46 634/90/46
f 634/90/46 628/91/46 622/92/46
f 622/92/46 616/93/46 610/94/46
f 610/94/46 604/95/46 598/96/46
f 598/96/46 592/78/46 586/79/46
f 586/79/46 580/80/46 574/81/46
f 574/81/46 568/82/46 562/83/46
f 562/83/46 556/84/46 550/85/46
f 550/85/46 544/74/46 538/73/46
f 538/73/46 532/72/46 526/71/46
f 526/71/46 520/76/46 514/75/46
f 514/75/46 508/77/46 502/97/46
f 502/97/46 496/98/46 490/99/46
f 490/99/46 484/100/46 478/101/46
f 478/101/46 472/102/46 466/86/46
f 466/86/46 454/88/46 634/90/46
f 634/90/46 622/92/46 610/94/46
f 610/94/46 598/96/46 586/79/46
f 586/79/46 574/81/46 562/83/46
f 562/83/46 550/85/46 538/73/46
f 538/73/46 526/71/46 514/75/46
f 514/75/46 502/97/46 490/99/46
f 490/99/46 478/101/46 466/86/46
f 466/86/46 634/90/46 610/94/46
f 610/94/46 586/79/46 562/83/46
f 562/83/46 538/73/46 514/75/46
f 514/75/46 490/99/46 466/86/46
f 466/86/46 610/94/46 562/83/46
f 562/83/46 514/75/46 466/86/46
f 632/32/150 635/31/150 642/33/150
f 632/32/150 642/33/150 639/34/150
f 638/34/151 641/33/151 456/35/151
f 638/34/151 456/35/151 453/36/151
f 637/103/40 451/104/40 457/105/40
f 457/105/40 463/106/40 469/107/40
f 469/107/40 475/108/40 481/109/40
f 481/109/40 487/110/40 493/111/40
f 493/111/40 499/112/40 505/68/40
f 505/68/40 511/113/40 517/114/40
f 517/114/40 523/115/40 529/116/40
f 529/116/40 535/117/40 541/118/40
f 541/118/40 547/119/40 553/70/40
f 553/70/40 559/120/40 565/121/40
f 565/121/40 571/122/40 577/69/40
f 577/69/40 583/123/40 589/124/40
f 589/124/40 595/125/40 601/126/40
f 601/126/40 607/127/40 613/128/40
f 613/128/40 619/129/40 625/130/40
f 625/130/40 631/131/40 637/103/40
f 637/103/40 457/105/40 469/107/40
f 469/107/40 481/109/40 493/111/40
f 493/111/40 505/68/40 517/114/40
f 517/114/40 529/116/40 541/118/40
f 541/118/40 553/70/40 565/121/40
f 565/121/40 577/69/40 589/124/40
f 589/124/40 601/126/40 613/128/40
f 613/128/40 625/130/40 637/103/40
f 637/103/40 469/107/40 493/111/40
f 493/111/40 517/114/40 541/118/40
f 541/118/40 565/121/40 589/124/40
f 589/124/40 613/128/40 637/103/40
f 637/103/40 493/111/40 541/118/40
f 541/118/40 589/124/40 637/103/40
s 0
f 660/70/46 663/119/44 671/119/46
f 660/70/46 671/119/46 672/70/44
f 669/116/47 655/115/44 654/115/46
f 669/116/47 654/115/46 695/116/44
f 645/123/46 643/69/44 662/69/46
f 645/123/46 662/69/47 708/123/9
f 657/120/46 660/70/9 672/70/50
f 657/120/46 672/70/46 701/120/9
f 667/117/46 669/116/44 695/116/46
f 667/117/46 695/116/46 696/117/44
f 643/69/46 647/122/44 659/122/46
f 643/69/46 659/122/46 662/69/44
f 655/115/46 649/114/9 651/114/46
f 655/115/46 651/114/46 654/115/9
f 697/118/46 696/117/44 712/117/46
f 697/118/46 712/117/46 736/118/44
f 702/121/46 701/120/44 745/120/47
f 702/121/46 745/120/46 748/121/9
f 691/113/46 690/68/9 699/68/46
f 691/113/46 699/68/46 692/113/44
f 707/124/46 708/123/9 709/123/50
f 707/124/46 709/123/47 704/124/9
f 696/117/46 695/116/44 715/116/46
f 696/117/46 715/116/46 712/117/44
f 684/124/46 645/123/9 708/123/50
f 684/124/46 708/123/47 707/124/9
f 673/113/46 677/68/9 690/68/46
f 673/113/46 690/68/46 691/113/44
f 652/121/46 657/120/44 701/120/47
f 652/121/46 701/120/46 702/121/9
f 665/118/46 667/117/44 696/117/46
f 665/118/46 696/117/46 697/118/44
f 649/114/46 673/113/9 691/113/46
f 649/114/50 691/113/46 651/114/9
f 647/122/48 652/121/9 702/121/46
f 647/122/46 702/121/46 659/122/9
f 663/119/46 665/118/9 697/118/46
f 663/119/50 697/118/46 671/119/9
f 651/114/46 691/113/9 692/113/46
f 651/114/50 692/113/46 730/114/9
f 659/122/48 702/121/9 748/121/46
f 659/122/46 748/121/46 751/122/9
f 675/67/50 679/67/44 721/67/46
f 675/67/46 721/67/46 718/67/44
f 671/119/46 697/118/9 736/118/46
f 671/119/50 736/118/46 739/119/9
f 654/115/46 651/114/9 730/114/46
f 654/115/46 730/114/46 733/115/9
f 662/69/46 659/122/44 751/122/46
f 662/69/46 751/122/46 754/69/44
f 672/70/46 671/119/44 739/119/46
f 672/70/46 739/119/46 742/70/44
f 695/116/47 654/115/44 733/115/46
f 695/116/47 733/115/46 715/116/44
f 708/123/46 662/69/44 754/69/46
f 708/123/46 754/69/47 709/123/9
f 686/67/46 682/67/9 724/67/46
f 686/67/46 724/67/46 727/67/44
s 1
f 678/68/40 674/113/40 650/114/40
f 650/114/40 656/115/40 670/116/40
f 670/116/40 668/117/40 666/118/40
f 666/118/40 664/119/40 661/70/40
f 661/70/40 658/120/40 653/121/40
f 653/121/40 648/122/40 644/69/40
f 644/69/40 646/123/40 685/67/40
f 661/70/40 653/121/40 644/69/40
f 670/116/40 666/118/40 661/70/40
f 678/68/40 650/114/40 670/116/40
f 678/68/40 670/116/40 661/70/40
s 0
f 701/120/46 672/70/9 742/70/50
f 701/120/46 742/70/46 745/120/9
s 1
f 758/1/1 761/2/1 767/3/1
f 758/1/1 767/3/1 764/4/1
f 765/4/2 768/3/2 773/5/2
f 765/4/2 773/5/2 770/6/2
f 771/6/3 774/5/3 779/7/3
f 771/6/3 779/7/3 776/8/3
f 777/8/152 780/7/152 785/9/152
f 777/8/152 785/9/152 782/10/152
f 783/10/5 786/9/5 791/11/5
f 783/10/5 791/11/5 788/12/5
f 789/12/6 792/11/6 797/13/6
f 789/12/6 797/13/6 794/14/6
f 795/14/7 798/13/7 803/15/7
f 795/14/7 803/15/7 800/16/7
f 801/16/8 804/15/8 810/17/8
f 801/16/8 810/17/8 807/18/8
f 806/18/20 809/17/20 816/37/20
f 806/18/20 816/37/20 813/38/20
f 812/38/22 815/37/22 822/41/22
f 812/38/22 822/41/22 819/42/22
f 818/42/23 821/41/23 828/43/23
f 818/42/23 828/43/23 825/44/23
f 824/44/24 827/43/24 834/45/24
f 824/44/24 834/45/24 831/46/24
f 830/46/25 833/45/25 840/47/25
f 830/46/25 840/47/25 837/48/25
f 836/48/26 839/47/26 846/49/26
f 836/48/26 846/49/26 843/50/26
f 842/50/27 845/49/27 852/51/27
f 842/50/27 852/51/27 849/52/27
f 848/52/28 851/51/28 857/53/28
f 848/52/28 857/53/28 854/54/28
f 855/54/29 858/53/29 863/55/29
f 855/54/29 863/55/29 860/56/29
f 861/56/31 864/55/31 869/57/31
f 861/56/31 869/57/31 866/58/31
f 867/58/33 870/57/33 875/59/33
f 867/58/33 875/59/33 872/60/33
f 873/60/153 876/59/34 881/61/153
f 873/60/153 881/61/153 878/62/153
f 879/62/36 882/61/36 887/63/36
f 879/62/36 887/63/36 884/64/36
f 885/64/38 888/63/38 893/65/38
f 885/64/38 893/65/38 890/66/38
f 891/66/39 894/65/39 899/39/39
f 891/66/39 899/39/39 896/40/39
f 897/40/21 900/39/21 905/19/21
f 897/40/21 905/19/21 902/20/21
f 903/20/10 906/19/10 912/21/10
f 903/20/10 912/21/10 909/22/10
f 908/22/11 911/21/11 918/23/11
f 908/22/11 918/23/11 915/24/11
f 914/24/12 917/23/12 924/25/12
f 914/24/12 924/25/12 921/26/12
f 920/26/154 923/25/13 930/27/13
f 920/26/154 930/27/13 927/28/154
f 926/28/14 929/27/14 936/29/14
f 926/28/14 936/29/14 933/30/14
f 932/30/15 935/29/15 942/31/15
f 932/30/15 942/31/15 939/32/15
f 772/86/46 766/87/46 760/88/46
f 760/88/46 946/89/50 940/90/46
f 940/90/46 934/91/46 928/92/46
f 928/92/46 922/93/46 916/94/46
f 916/94/46 910/95/46 904/96/46
f 904/96/46 898/78/46 892/79/46
f 892/79/46 886/80/46 880/81/46
f 880/81/46 874/82/46 868/83/46
f 868/83/46 862/84/46 856/85/46
f 856/85/46 850/74/46 844/73/46
f 844/73/46 838/72/46 832/71/46
f 832/71/46 826/76/46 820/75/46
f 820/75/46 814/77/46 808/97/46
f 808/97/46 802/98/46 796/99/46
f 796/99/46 790/100/46 784/101/46
f 784/101/46 778/102/46 772/86/46
f 772/86/46 760/88/46 940/90/46
f 940/90/46 928/92/46 916/94/46
f 916/94/46 904/96/46 892/79/46
f 892/79/46 880/81/46 868/83/46
f 868/83/46 856/85/46 844/73/46
f 844/73/46 832/71/46 820/75/46
f 820/75/46 808/97/46 796/99/46
f 796/99/46 784/101/46 772/86/46
f 772/86/46 940/90/46 916/94/46
f 916/94/46 892/79/46 868/83/46
f 868/83/46 844/73/46 820/75/46
f 820/75/46 796/99/46 772/86/46
f 772/86/46 916/94/46 868/83/46
f 868/83/46 820/75/46 772/86/46
f 938/32/16 941/31/16 948/33/16
f 938/32/16 948/33/16 945/34/16
f 944/34/17 947/33/17 762/35/17
f 944/34/17 762/35/17 759/36/17
f 943/103/40 757/104/40 763/105/40
f 763/105/40 769/106/40 775/107/40
f 775/107/40 781/108/40 787/109/40
f 787/109/40 793/110/103 799/111/40
f 799/111/40 805/112/40 811/68/40
f 811/68/40 817/113/40 823/114/40
f 823/114/40 829/115/40 835/116/40
f 835/116/40 841/117/40 847/118/40
f 847/118/40 853/119/40 859/70/40
f 859/70/40 865/120/40 871/121/40
f 871/121/40 877/122/40 883/69/40
f 883/69/40 889/123/40 895/124/40
f 895/124/40 901/125/40 907/126/40
f 907/126/40 913/127/40 919/128/40
f 919/128/40 925/129/40 931/130/40
f 931/130/40 937/131/40 943/103/40
f 943/103/40 763/105/40 775/107/40
f 775/107/40 787/109/40 799/111/40
f 799/111/40 811/68/40 823/114/40
f 823/114/40 835/116/40 847/118/40
f 847/118/40 859/70/40 871/121/40
f 871/121/40 883/69/40 895/124/40
f 895/124/40 907/126/40 919/128/40
f 919/128/40 931/130/40 943/103/40
f 943/103/40 775/107/40 799/111/40
f 799/111/40 823/114/40 847/118/40
f 847/118/40 871/121/40 895/124/40
f 895/124/40 919/128/40 943/103/40
f 943/103/40 799/111/40 847/118/40
f 847/118/40 895/124/40 943/103/40
f 950/1/1 953/2/1 959/3/1
f 950/1/1 959/3/1 956/4/1
f 957/4/2 960/3/2 965/5/2
f 957/4/2 965/5/2 962/6/2
f 963/6/3 966/5/3 971/7/3
f 963/6/3 971/7/3 968/8/3
f 969/8/4 972/7/4 977/9/4
f 969/8/4 977/9/4 974/10/4
f 975/10/5 978/9/5 983/11/5
f 975/10/5 983/11/5 980/12/5
f 981/12/6 984/11/6 989/13/6
f 981/12/6 989/13/6 986/14/6
f 987/14/7 990/13/7 995/15/7
f 987/14/7 995/15/7 992/16/7
f 993/16/8 996/15/8 1002/17/8
f 993/16/8 1002/17/8 999/18/8
f 998/18/20 1001/17/20 1008/37/20
f 998/18/20 1008/37/20 1005/38/20
f 1004/38/22 1007/37/22 1014/41/22
f 1004/38/22 1014/41/22 1011/42/22
f 1010/42/23 1013/41/23 1020/43/23
f 1010/42/23 1020/43/23 1017/44/23
f 1016/44/24 1019/43/24 1026/45/24
f 1016/44/24 1026/45/24 1023/46/24
f 1022/46/25 1025/45/25 1032/47/25
f 1022/46/25 1032/47/25 1029/48/25
f 1028/48/26 1031/47/26 1038/49/26
f 1028/48/26 1038/49/26 1035/50/26
f 1034/50/27 1037/49/27 1044/51/27
f 1034/50/27 1044/51/27 1041/52/27
f 1040/52/28 1043/51/28 1049/53/28
f 1040/52/28 1049/53/28 1046/54/28
f 1047/54/29 1050/53/29 1055/55/29
f 1047/54/29 1055/55/29 1052/56/29
f 1053/56/31 1056/55/31 1061/57/31
f 1053/56/31 1061/57/31 1058/58/31
f 1059/58/33 1062/57/33 1067/59/33
f 1059/58/33 1067/59/33 1064/60/33
f 1065/60/153 1068/59/153 1073/61/153
f 1065/60/153 1073/61/153 1070/62/153
f 1071/62/36 1074/61/36 1079/63/36
f 1071/62/36 1079/63/36 1076/64/36
f 1077/64/38 1080/63/38 1085/65/38
f 1077/64/38 1085/65/38 1082/66/38
f 1083/66/39 1086/65/39 1091/39/39
f 1083/66/39 1091/39/39 1088/40/39
f 1089/40/21 1092/39/21 1097/19/21
f 1089/40/21 1097/19/21 1094/20/21
f 1095/20/10 1098/19/10 1104/21/10
f 1095/20/10 1104/21/10 1101/22/10
f 1100/22/11 1103/21/11 1110/23/11
f 1100/22/11 1110/23/11 1107/24/11
f 1106/24/12 1109/23/12 1116/25/12
f 1106/24/12 1116/25/12 1113/26/12
f 1112/26/13 1115/25/13 1122/27/13
f 1112/26/13 1122/27/13 1119/28/13
f 1118/28/14 1121/27/14 1128/29/14
f 1118/28/14 1128/29/14 1125/30/14
f 1124/30/15 1127/29/15 1134/31/15
f 1124/30/15 1134/31/15 1131/32/15
f 964/86/46 958/87/46 952/88/46
f 952/88/46 1138/89/46 1132/90/46
f 1132/90/46 1126/91/46 1120/92/46
f 1120/92/46 1114/93/46 1108/94/46
f 1108/94/46 1102/95/46 1096/96/46
f 1096/96/46 1090/78/46 1084/79/46
f 1084/79/46 1078/80/46 1072/81/46
f 1072/81/46 1066/82/46 1060/83/46
f 1060/83/46 1054/84/46 1048/85/46
f 1048/85/46 1042/74/46 1036/73/46
f 1036/73/46 1030/72/46 1024/71/46
f 1024/71/46 1018/76/46 1012/75/46
f 1012/75/46 1006/77/46 1000/97/46
f 1000/97/46 994/98/46 988/99/46
f 988/99/46 982/100/46 976/101/46
f 976/101/46 970/102/46 964/86/46
f 964/86/46 952/88/46 1132/90/46
f 1132/90/46 1120/92/46 1108/94/46
f 1108/94/46 1096/96/46 1084/79/46
f 1084/79/46 1072/81/46 1060/83/46
f 1060/83/46 1048/85/46 1036/73/46
f 1036/73/46 1024/71/46 1012/75/46
f 1012/75/46 1000/97/46 988/99/46
f 988/99/46 976/101/46 964/86/46
f 964/86/46 1132/90/46 1108/94/46
f 1108/94/46 1084/79/46 1060/83/46
f 1060/83/46 1036/73/46 1012/75/46
f 1012/75/46 988/99/46 964/86/46
f 964/86/46 1108/94/46 1060/83/46
f 1060/83/46 1012/75/46 964/86/46
f 1130/32/16 1133/31/16 1140/33/16
f 1130/32/16 1140/33/16 1137/34/16
f 1136/34/17 1139/33/17 954/35/17
f 1136/34/17 954/35/17 951/36/17
f 1135/103/40 949/104/40 955/105/40
f 955/105/40 961/106/40 967/107/40
f 967/107/40 973/108/40 979/109/40
f 979/109/40 985/110/40 991/111/40
f 991/111/40 997/112/40 1003/68/40
f 1003/68/40 1009/113/40 1015/114/40
f 1015/114/40 1021/115/40 1027/116/40
f 1027/116/40 1033/117/40 1039/118/40
f 1039/118/40 1045/119/40 1051/70/40
f 1051/70/40 1057/120/40 1063/121/40
f 1063/121/40 1069/122/40 1075/69/40
f 1075/69/40 1081/123/40 1087/124/40
f 1087/124/40 1093/125/40 1099/126/40
f 1099/126/40 1105/127/40 1111/128/40
f 1111/128/40 1117/129/40 1123/130/40
f 1123/130/40 1129/131/40 1135/103/40
f 1135/103/40 955/105/40 967/107/40
f 967/107/40 979/109/40 991/111/40
f 991/111/40 1003/68/40 1015/114/40
f 1015/114/40 1027/116/40 1039/118/40
f 1039/118/40 1051/70/40 1063/121/40
f 1063/121/40 1075/69/40 1087/124/40
f 1087/124/40 1099/126/40 1111/128/40
f 1111/128/40 1123/130/40 1135/103/40
f 1135/103/40 967/107/40 991/111/40
f 991/111/40 1015/114/40 1039/118/40
f 1039/118/40 1063/121/40 1087/124/40
f 1087/124/40 1111/128/40 1135/103/40
f 1135/103/40 991/111/40 1039/118/40
f 1039/118/40 1087/124/40 1135/103/40
l 676 719
l 703 706
l 689 698
l 676 689
l 683 706
l 720 723
l 726 729
l 694 700
l 693 732
l 731 735
l 717 734
l 714 716
l 713 738
l 737 740
l 741 743
l 744 746
l 747 749
l 750 752
l 753 755
l 710 756
l 705 711
l 680 722
l 683 725
l 678 681
l 685 688
l 687 728
