# Blender 4.4.3
# www.blender.org
mtllib Sawblade_2.mtl
o Saw_blade
v 0.267294 0.016153 -0.021534
v 0.267294 0.016153 -0.021534
v 0.267294 0.016153 -0.021534
v 0.267294 0.016153 -0.021534
v 0.269307 0.016274 0.030105
v 0.269307 0.016274 0.030105
v 0.269307 0.016274 0.030105
v 0.262367 -0.053578 -0.021534
v 0.262367 -0.053578 -0.021534
v 0.262367 -0.053578 -0.021534
v 0.262367 -0.053578 -0.021534
v 0.264343 -0.053982 0.030105
v 0.264343 -0.053982 0.030105
v 0.264343 -0.053982 0.030105
v 0.239560 -0.119658 -0.021534
v 0.239560 -0.119658 -0.021534
v 0.239560 -0.119658 -0.021534
v 0.239560 -0.119658 -0.021534
v 0.241364 -0.120560 0.030105
v 0.241364 -0.120560 0.030105
v 0.241364 -0.120560 0.030105
v 0.200427 -0.177584 -0.021534
v 0.200427 -0.177584 -0.021534
v 0.200427 -0.177584 -0.021534
v 0.200427 -0.177584 -0.021534
v 0.201937 -0.178921 0.030105
v 0.201937 -0.178921 0.030105
v 0.201937 -0.178921 0.030105
v 0.147636 -0.223407 -0.021534
v 0.147636 -0.223407 -0.021534
v 0.147636 -0.223407 -0.021534
v 0.147636 -0.223407 -0.021534
v 0.148748 -0.225090 0.030105
v 0.148748 -0.225090 0.030105
v 0.148748 -0.225090 0.030105
v 0.084783 -0.254006 -0.021534
v 0.084783 -0.254006 -0.021534
v 0.084783 -0.254006 -0.021534
v 0.084783 -0.254006 -0.021534
v 0.085422 -0.255919 0.030105
v 0.085422 -0.255919 0.030105
v 0.085422 -0.255919 0.030105
v 0.016153 -0.267294 -0.021534
v 0.016153 -0.267294 -0.021534
v 0.016153 -0.267294 -0.021534
v 0.016153 -0.267294 -0.021534
v 0.016274 -0.269307 0.030105
v 0.016274 -0.269307 0.030105
v 0.016274 -0.269307 0.030105
v -0.053579 -0.262367 -0.021534
v -0.053579 -0.262367 -0.021534
v -0.053579 -0.262367 -0.021534
v -0.053579 -0.262367 -0.021534
v -0.053982 -0.264343 0.030105
v -0.053982 -0.264343 0.030105
v -0.053982 -0.264343 0.030105
v -0.119659 -0.239560 -0.021534
v -0.119659 -0.239560 -0.021534
v -0.119659 -0.239560 -0.021534
v -0.119659 -0.239560 -0.021534
v -0.120560 -0.241364 0.030105
v -0.120560 -0.241364 0.030105
v -0.120560 -0.241364 0.030105
v -0.177584 -0.200427 -0.021534
v -0.177584 -0.200427 -0.021534
v -0.177584 -0.200427 -0.021534
v -0.177584 -0.200427 -0.021534
v -0.178921 -0.201937 0.030105
v -0.178921 -0.201937 0.030105
v -0.178921 -0.201937 0.030105
v -0.223407 -0.147636 -0.021534
v -0.223407 -0.147636 -0.021534
v -0.223407 -0.147636 -0.021534
v -0.223407 -0.147636 -0.021534
v -0.225090 -0.148748 0.030105
v -0.225090 -0.148748 0.030105
v -0.225090 -0.148748 0.030105
v -0.254006 -0.084783 -0.021534
v -0.254006 -0.084783 -0.021534
v -0.254006 -0.084783 -0.021534
v -0.254006 -0.084783 -0.021534
v -0.255919 -0.085422 0.030105
v -0.255919 -0.085422 0.030105
v -0.255919 -0.085422 0.030105
v -0.267294 -0.016153 -0.021534
v -0.267294 -0.016153 -0.021534
v -0.267294 -0.016153 -0.021534
v -0.267294 -0.016153 -0.021534
v -0.269307 -0.016274 0.030105
v -0.269307 -0.016274 0.030105
v -0.269307 -0.016274 0.030105
v -0.262367 0.053579 -0.021534
v -0.262367 0.053579 -0.021534
v -0.262367 0.053579 -0.021534
v -0.262367 0.053579 -0.021534
v -0.264343 0.053982 0.030105
v -0.264343 0.053982 0.030105
v -0.264343 0.053982 0.030105
v -0.239560 0.119659 -0.021534
v -0.239560 0.119659 -0.021534
v -0.239560 0.119659 -0.021534
v -0.239560 0.119659 -0.021534
v -0.241364 0.120560 0.030105
v -0.241364 0.120560 0.030105
v -0.241364 0.120560 0.030105
v -0.200427 0.177584 -0.021534
v -0.200427 0.177584 -0.021534
v -0.200427 0.177584 -0.021534
v -0.200427 0.177584 -0.021534
v -0.201937 0.178921 0.030105
v -0.201937 0.178921 0.030105
v -0.201937 0.178921 0.030105
v -0.147636 0.223407 -0.021534
v -0.147636 0.223407 -0.021534
v -0.147636 0.223407 -0.021534
v -0.147636 0.223407 -0.021534
v -0.148748 0.225090 0.030105
v -0.148748 0.225090 0.030105
v -0.148748 0.225090 0.030105
v -0.084783 0.254006 -0.021534
v -0.084783 0.254006 -0.021534
v -0.084783 0.254006 -0.021534
v -0.084783 0.254006 -0.021534
v -0.085422 0.255919 0.030105
v -0.085422 0.255919 0.030105
v -0.085422 0.255919 0.030105
v -0.016153 0.267294 -0.021534
v -0.016153 0.267294 -0.021534
v -0.016153 0.267294 -0.021534
v -0.016153 0.267294 -0.021534
v -0.016274 0.269307 0.030105
v -0.016274 0.269307 0.030105
v -0.016274 0.269307 0.030105
v 0.053579 0.262367 -0.021534
v 0.053579 0.262367 -0.021534
v 0.053579 0.262367 -0.021534
v 0.053579 0.262367 -0.021534
v 0.053982 0.264343 0.030105
v 0.053982 0.264343 0.030105
v 0.053982 0.264343 0.030105
v 0.119659 0.239560 -0.021534
v 0.119659 0.239560 -0.021534
v 0.119659 0.239560 -0.021534
v 0.119659 0.239560 -0.021534
v 0.120560 0.241364 0.030105
v 0.120560 0.241364 0.030105
v 0.120560 0.241364 0.030105
v 0.177584 0.200427 -0.021534
v 0.177584 0.200427 -0.021534
v 0.177584 0.200427 -0.021534
v 0.177584 0.200427 -0.021534
v 0.178921 0.201937 0.030105
v 0.178921 0.201937 0.030105
v 0.178921 0.201937 0.030105
v 0.223407 0.147636 -0.021534
v 0.223407 0.147636 -0.021534
v 0.223407 0.147636 -0.021534
v 0.223407 0.147636 -0.021534
v 0.225090 0.148748 0.030105
v 0.225090 0.148748 0.030105
v 0.225090 0.148748 0.030105
v 0.254006 0.084783 -0.021534
v 0.254006 0.084783 -0.021534
v 0.254006 0.084783 -0.021534
v 0.254006 0.084783 -0.021534
v 0.255919 0.085422 0.030105
v 0.255919 0.085422 0.030105
v 0.255919 0.085422 0.030105
v 1.160234 -0.236934 0.030104
v 1.160234 -0.236934 0.030104
v 1.160234 -0.236934 0.030104
v 1.182023 0.071430 0.030104
v 1.182023 0.071430 0.030104
v 1.182023 0.071430 0.030104
v 1.059377 -0.529151 0.030105
v 1.059377 -0.529151 0.030105
v 1.059377 -0.529151 0.030105
v 0.886325 -0.785308 0.030105
v 0.886325 -0.785308 0.030105
v 0.886325 -0.785308 0.030105
v 0.652871 -0.987947 0.030105
v 0.652871 -0.987947 0.030105
v 0.652871 -0.987947 0.030105
v 0.374926 -1.123259 0.030105
v 0.374926 -1.123259 0.030105
v 0.374926 -1.123259 0.030105
v 0.071430 -1.182023 0.030105
v 0.071430 -1.182023 0.030105
v 0.071430 -1.182023 0.030105
v -0.236934 -1.160234 0.030105
v -0.236934 -1.160234 0.030105
v -0.236934 -1.160234 0.030105
v -0.529151 -1.059377 0.030105
v -0.529151 -1.059377 0.030105
v -0.529151 -1.059377 0.030105
v -0.785308 -0.886325 0.030106
v -0.785308 -0.886325 0.030106
v -0.785308 -0.886325 0.030106
v -0.987947 -0.652871 0.030106
v -0.987947 -0.652871 0.030106
v -0.987947 -0.652871 0.030106
v -1.123259 -0.374926 0.030106
v -1.123259 -0.374926 0.030106
v -1.123259 -0.374926 0.030106
v -1.182023 -0.071430 0.030106
v -1.182023 -0.071430 0.030106
v -1.182023 -0.071430 0.030106
v -1.160234 0.236934 0.030106
v -1.160234 0.236934 0.030106
v -1.160234 0.236934 0.030106
v -1.059377 0.529151 0.030106
v -1.059377 0.529151 0.030106
v -1.059377 0.529151 0.030106
v -0.886325 0.785308 0.030105
v -0.886325 0.785308 0.030105
v -0.886325 0.785308 0.030105
v -0.652871 0.987947 0.030105
v -0.652871 0.987947 0.030105
v -0.652871 0.987947 0.030105
v -0.374926 1.123259 0.030105
v -0.374926 1.123259 0.030105
v -0.374926 1.123259 0.030105
v -0.071430 1.182023 0.030105
v -0.071430 1.182023 0.030105
v -0.071430 1.182023 0.030105
v 0.236934 1.160234 0.030105
v 0.236934 1.160234 0.030105
v 0.236934 1.160234 0.030105
v 0.529151 1.059377 0.030105
v 0.529151 1.059377 0.030105
v 0.529151 1.059377 0.030105
v 0.785308 0.886325 0.030105
v 0.785308 0.886325 0.030105
v 0.785308 0.886325 0.030105
v 0.987947 0.652871 0.030105
v 0.987947 0.652871 0.030105
v 0.987947 0.652871 0.030105
v 1.123259 0.374926 0.030104
v 1.123259 0.374926 0.030104
v 1.123259 0.374926 0.030104
v 1.182023 0.071430 -0.030106
v 1.182023 0.071430 -0.030106
v 1.182023 0.071430 -0.030106
v 1.182023 0.071430 -0.030106
v 1.160234 -0.236934 -0.030106
v 1.160234 -0.236934 -0.030106
v 1.160234 -0.236934 -0.030106
v 1.160234 -0.236934 -0.030106
v 1.059377 -0.529151 -0.030106
v 1.059377 -0.529151 -0.030106
v 1.059377 -0.529151 -0.030106
v 1.059377 -0.529151 -0.030106
v 0.886325 -0.785308 -0.030105
v 0.886325 -0.785308 -0.030105
v 0.886325 -0.785308 -0.030105
v 0.886325 -0.785308 -0.030105
v 0.652871 -0.987947 -0.030105
v 0.652871 -0.987947 -0.030105
v 0.652871 -0.987947 -0.030105
v 0.652871 -0.987947 -0.030105
v 0.374926 -1.123259 -0.030105
v 0.374926 -1.123259 -0.030105
v 0.374926 -1.123259 -0.030105
v 0.374926 -1.123259 -0.030105
v 0.071430 -1.182023 -0.030105
v 0.071430 -1.182023 -0.030105
v 0.071430 -1.182023 -0.030105
v 0.071430 -1.182023 -0.030105
v -0.236934 -1.160234 -0.030105
v -0.236934 -1.160234 -0.030105
v -0.236934 -1.160234 -0.030105
v -0.236934 -1.160234 -0.030105
v -0.529151 -1.059377 -0.030105
v -0.529151 -1.059377 -0.030105
v -0.529151 -1.059377 -0.030105
v -0.529151 -1.059377 -0.030105
v -0.785308 -0.886325 -0.030105
v -0.785308 -0.886325 -0.030105
v -0.785308 -0.886325 -0.030105
v -0.785308 -0.886325 -0.030105
v -0.987947 -0.652871 -0.030104
v -0.987947 -0.652871 -0.030104
v -0.987947 -0.652871 -0.030104
v -0.987947 -0.652871 -0.030104
v -1.123259 -0.374926 -0.030104
v -1.123259 -0.374926 -0.030104
v -1.123259 -0.374926 -0.030104
v -1.123259 -0.374926 -0.030104
v -1.182023 -0.071430 -0.030104
v -1.182023 -0.071430 -0.030104
v -1.182023 -0.071430 -0.030104
v -1.182023 -0.071430 -0.030104
v -1.160234 0.236934 -0.030104
v -1.160234 0.236934 -0.030104
v -1.160234 0.236934 -0.030104
v -1.160234 0.236934 -0.030104
v -1.059377 0.529151 -0.030105
v -1.059377 0.529151 -0.030105
v -1.059377 0.529151 -0.030105
v -1.059377 0.529151 -0.030105
v -0.886325 0.785308 -0.030105
v -0.886325 0.785308 -0.030105
v -0.886325 0.785308 -0.030105
v -0.886325 0.785308 -0.030105
v -0.652871 0.987947 -0.030105
v -0.652871 0.987947 -0.030105
v -0.652871 0.987947 -0.030105
v -0.652871 0.987947 -0.030105
v -0.374926 1.123259 -0.030105
v -0.374926 1.123259 -0.030105
v -0.374926 1.123259 -0.030105
v -0.374926 1.123259 -0.030105
v -0.071430 1.182023 -0.030105
v -0.071430 1.182023 -0.030105
v -0.071430 1.182023 -0.030105
v -0.071430 1.182023 -0.030105
v 0.236934 1.160234 -0.030105
v 0.236934 1.160234 -0.030105
v 0.236934 1.160234 -0.030105
v 0.236934 1.160234 -0.030105
v 0.529151 1.059377 -0.030105
v 0.529151 1.059377 -0.030105
v 0.529151 1.059377 -0.030105
v 0.529151 1.059377 -0.030105
v 0.785308 0.886325 -0.030105
v 0.785308 0.886325 -0.030105
v 0.785308 0.886325 -0.030105
v 0.785308 0.886325 -0.030105
v 0.987947 0.652871 -0.030106
v 0.987947 0.652871 -0.030106
v 0.987947 0.652871 -0.030106
v 0.987947 0.652871 -0.030106
v 1.123259 0.374926 -0.030106
v 1.123259 0.374926 -0.030106
v 1.123259 0.374926 -0.030106
v 1.123259 0.374926 -0.030106
v -1.120731 -0.378363 -0.030320
v -1.120731 -0.378363 -0.030320
v -1.120731 -0.378363 -0.030320
v -1.120731 -0.378363 0.030482
v -1.120731 -0.378363 0.030482
v -1.120731 -0.378363 0.030482
v -1.563892 -0.527738 -0.006021
v -1.563892 -0.527738 -0.006021
v -1.563892 -0.527738 -0.006021
v -1.563892 -0.527738 0.006183
v -1.563892 -0.527738 0.006183
v -1.563892 -0.527738 0.006183
v -1.159473 0.233118 -0.030320
v -1.159473 0.233118 -0.030320
v -1.159473 0.233118 -0.030320
v -1.159473 0.233118 0.030482
v -1.159473 0.233118 0.030482
v -1.159473 0.233118 0.030482
v -1.172506 0.232415 -0.030320
v -1.172506 0.232415 -0.030320
v -1.172506 0.232415 -0.030320
v -1.172506 0.232415 0.030482
v -1.172506 0.232415 0.030482
v -1.172506 0.232415 0.030482
v -1.584634 -0.148458 -0.008721
v -1.584634 -0.148458 -0.008721
v -1.584634 -0.148458 -0.008721
v -1.584634 -0.148458 -0.008721
v -1.584634 -0.148458 0.008883
v -1.584634 -0.148458 0.008883
v -1.584634 -0.148458 0.008883
v -1.584634 -0.148458 0.008883
v -1.179744 -0.075520 -0.030320
v -1.179744 -0.075520 -0.030320
v -1.179744 -0.075520 -0.030320
v -1.179744 -0.075520 -0.030320
v -1.179744 -0.075520 0.030482
v -1.179744 -0.075520 0.030482
v -1.179744 -0.075520 0.030482
v -1.179744 -0.075520 0.030482
v -1.482401 0.097215 0.026243
v -1.482401 0.097215 0.026243
v -1.482401 0.097215 0.026243
v -1.482401 0.097215 0.026243
v -1.169612 0.091718 -0.030320
v -1.169612 0.091718 -0.030320
v -1.169612 0.091718 -0.030320
v -1.482401 0.097215 -0.026081
v -1.482401 0.097215 -0.026081
v -1.482401 0.097215 -0.026081
v -1.482401 0.097215 -0.026081
v -1.169612 0.091718 0.030482
v -1.169612 0.091718 0.030482
v -1.169612 0.091718 0.030482
v -1.159473 0.233118 -0.030320
v -1.159473 0.233118 -0.030320
v -1.159473 0.233118 -0.030320
v -1.159473 0.233118 0.030482
v -1.159473 0.233118 0.030482
v -1.159473 0.233118 0.030482
v -1.618087 0.324653 -0.006021
v -1.618087 0.324653 -0.006021
v -1.618087 0.324653 -0.006021
v -1.618087 0.324653 0.006183
v -1.618087 0.324653 0.006183
v -1.618087 0.324653 0.006183
v -0.887415 0.781659 -0.030320
v -0.887415 0.781659 -0.030320
v -0.887415 0.781659 -0.030320
v -0.887415 0.781659 0.030481
v -0.887415 0.781659 0.030481
v -0.887415 0.781659 0.030481
v -0.899030 0.787574 -0.030320
v -0.899030 0.787574 -0.030320
v -0.899030 0.787574 -0.030320
v -0.899030 0.787574 0.030481
v -0.899030 0.787574 0.030481
v -0.899030 0.787574 0.030481
v -1.447181 0.664199 -0.008722
v -1.447181 0.664199 -0.008722
v -1.447181 0.664199 -0.008722
v -1.447181 0.664199 -0.008722
v -1.447182 0.664199 0.008883
v -1.447182 0.664199 0.008883
v -1.447182 0.664199 0.008883
v -1.447182 0.664199 0.008883
v -1.059689 0.524942 -0.030320
v -1.059689 0.524942 -0.030320
v -1.059689 0.524942 -0.030320
v -1.059689 0.524942 -0.030320
v -1.059689 0.524942 0.030481
v -1.059689 0.524942 0.030481
v -1.059689 0.524942 0.030481
v -1.059689 0.524942 0.030481
v -1.235088 0.826092 0.026242
v -1.235088 0.826092 0.026242
v -1.235088 0.826092 0.026242
v -1.235088 0.826092 0.026242
v -0.967215 0.664455 -0.030320
v -0.967215 0.664455 -0.030320
v -0.967215 0.664455 -0.030320
v -1.235088 0.826092 -0.026081
v -1.235088 0.826092 -0.026081
v -1.235088 0.826092 -0.026081
v -1.235088 0.826092 -0.026081
v -0.967215 0.664455 0.030481
v -0.967215 0.664455 0.030481
v -0.967215 0.664455 0.030481
v -0.887415 0.781659 -0.030320
v -0.887415 0.781659 -0.030320
v -0.887415 0.781659 -0.030320
v -0.887415 0.781659 0.030481
v -0.887415 0.781659 0.030481
v -0.887415 0.781659 0.030481
v -1.238248 1.090885 -0.006021
v -1.238248 1.090885 -0.006021
v -1.238248 1.090885 -0.006021
v -1.238248 1.090885 0.006183
v -1.238248 1.090885 0.006183
v -1.238248 1.090885 0.006183
v -0.377487 1.121036 -0.030321
v -0.377487 1.121036 -0.030321
v -0.377487 1.121036 -0.030321
v -0.377487 1.121036 0.030481
v -0.377487 1.121036 0.030481
v -0.377487 1.121036 0.030481
v -0.384571 1.131939 -0.030321
v -0.384571 1.131939 -0.030321
v -0.384571 1.131939 -0.030321
v -0.384571 1.131939 0.030481
v -0.384571 1.131939 0.030481
v -0.384571 1.131939 0.030481
v -0.920706 1.298442 -0.008722
v -0.920706 1.298442 -0.008722
v -0.920706 1.298442 -0.008722
v -0.920706 1.298442 -0.008722
v -0.920706 1.298442 0.008883
v -0.920706 1.298442 0.008883
v -0.920706 1.298442 0.008883
v -0.920706 1.298442 0.008883
v -0.654784 0.984638 -0.030321
v -0.654784 0.984638 -0.030321
v -0.654784 0.984638 -0.030321
v -0.654784 0.984638 -0.030321
v -0.654784 0.984638 0.030481
v -0.654784 0.984638 0.030481
v -0.654784 0.984638 0.030481
v -0.654784 0.984638 0.030481
v -0.656416 1.333199 0.026242
v -0.656416 1.333199 0.026242
v -0.656416 1.333199 0.026242
v -0.656416 1.333199 0.026242
v -0.505121 1.059560 -0.030321
v -0.505121 1.059560 -0.030321
v -0.505121 1.059560 -0.030321
v -0.505121 1.059560 -0.030321
v -0.656416 1.333199 -0.026081
v -0.656416 1.333199 -0.026081
v -0.656416 1.333199 -0.026081
v -0.656416 1.333199 -0.026081
v -0.505121 1.059560 0.030481
v -0.505121 1.059560 0.030481
v -0.505121 1.059560 0.030481
v -0.505121 1.059560 0.030481
v -0.377487 1.121036 -0.030321
v -0.377487 1.121036 -0.030321
v -0.377487 1.121036 -0.030321
v -0.377487 1.121036 0.030481
v -0.377487 1.121036 0.030481
v -0.377487 1.121036 0.030481
v -0.526511 1.564315 -0.006022
v -0.526511 1.564315 -0.006022
v -0.526511 1.564315 -0.006022
v -0.526512 1.564315 0.006182
v -0.526512 1.564315 0.006182
v -0.526512 1.564315 0.006182
v 0.234028 1.159287 -0.030321
v 0.234028 1.159287 -0.030321
v 0.234028 1.159287 -0.030321
v 0.234028 1.159287 0.030481
v 0.234028 1.159287 0.030481
v 0.234028 1.159287 0.030481
v 0.233334 1.172317 -0.030321
v 0.233334 1.172317 -0.030321
v 0.233334 1.172317 -0.030321
v 0.233334 1.172317 0.030481
v 0.233334 1.172317 0.030481
v 0.233334 1.172317 0.030481
v -0.147215 1.584723 -0.008722
v -0.147215 1.584723 -0.008722
v -0.147215 1.584723 -0.008722
v -0.147215 1.584723 -0.008722
v -0.147215 1.584723 0.008882
v -0.147215 1.584723 0.008882
v -0.147215 1.584723 0.008882
v -0.147215 1.584723 0.008882
v -0.074593 1.179807 -0.030321
v -0.074593 1.179807 -0.030321
v -0.074593 1.179807 -0.030321
v -0.074593 1.179807 -0.030321
v -0.074593 1.179807 0.030481
v -0.074593 1.179807 0.030481
v -0.074593 1.179807 0.030481
v -0.074593 1.179807 0.030481
v 0.098377 1.482323 0.026242
v 0.098377 1.482323 0.026242
v 0.098377 1.482323 0.026242
v 0.098377 1.482323 0.026242
v 0.092638 1.169551 -0.030321
v 0.092638 1.169551 -0.030321
v 0.092638 1.169551 -0.030321
v 0.098377 1.482323 -0.026082
v 0.098377 1.482323 -0.026082
v 0.098377 1.482323 -0.026082
v 0.098377 1.482323 -0.026082
v 0.092639 1.169551 0.030481
v 0.092639 1.169551 0.030481
v 0.092639 1.169551 0.030481
v 0.234028 1.159287 -0.030321
v 0.234028 1.159287 -0.030321
v 0.234028 1.159287 -0.030321
v 0.234028 1.159287 0.030481
v 0.234028 1.159287 0.030481
v 0.234028 1.159287 0.030481
v 0.325924 1.617828 -0.006022
v 0.325924 1.617828 -0.006022
v 0.325924 1.617828 -0.006022
v 0.325924 1.617828 0.006182
v 0.325924 1.617828 0.006182
v 0.325924 1.617828 0.006182
v 0.782357 0.886801 -0.030321
v 0.782357 0.886801 -0.030321
v 0.782357 0.886801 -0.030321
v 0.782357 0.886801 0.030480
v 0.782357 0.886801 0.030480
v 0.782357 0.886801 0.030480
v 0.788278 0.898409 -0.030321
v 0.788278 0.898409 -0.030321
v 0.788278 0.898409 -0.030321
v 0.788278 0.898409 0.030481
v 0.788278 0.898409 0.030481
v 0.788278 0.898409 0.030481
v 0.665320 1.446628 -0.008723
v 0.665320 1.446628 -0.008723
v 0.665320 1.446628 -0.008723
v 0.665320 1.446628 -0.008723
v 0.665320 1.446628 0.008882
v 0.665320 1.446628 0.008882
v 0.665320 1.446628 0.008882
v 0.665320 1.446628 0.008882
v 0.525771 1.059272 -0.030321
v 0.525771 1.059272 -0.030321
v 0.525771 1.059272 -0.030321
v 0.525771 1.059272 -0.030321
v 0.525772 1.059272 0.030481
v 0.525772 1.059272 0.030481
v 0.525772 1.059272 0.030481
v 0.525772 1.059272 0.030481
v 0.827059 1.234435 0.026241
v 0.827059 1.234435 0.026241
v 0.827059 1.234435 0.026241
v 0.827059 1.234435 0.026241
v 0.665219 0.966699 -0.030321
v 0.665219 0.966699 -0.030321
v 0.665219 0.966699 -0.030321
v 0.827059 1.234435 -0.026082
v 0.827059 1.234435 -0.026082
v 0.827059 1.234435 -0.026082
v 0.827059 1.234435 -0.026082
v 0.665219 0.966699 0.030481
v 0.665219 0.966699 0.030481
v 0.665219 0.966699 0.030481
v 0.782357 0.886801 -0.030321
v 0.782357 0.886801 -0.030321
v 0.782357 0.886801 -0.030321
v 0.782357 0.886801 0.030480
v 0.782357 0.886801 0.030480
v 0.782357 0.886801 0.030480
v 1.091856 1.237393 -0.006023
v 1.091856 1.237393 -0.006023
v 1.091856 1.237393 -0.006023
v 1.091856 1.237393 0.006182
v 1.091856 1.237393 0.006182
v 1.091856 1.237393 0.006182
v 1.121342 0.376610 -0.030321
v 1.121342 0.376610 -0.030321
v 1.121342 0.376610 -0.030321
v 1.121342 0.376610 0.030480
v 1.121342 0.376610 0.030480
v 1.121342 0.376610 0.030480
v 1.132247 0.383684 -0.030321
v 1.132247 0.383684 -0.030321
v 1.132247 0.383684 -0.030321
v 1.132247 0.383684 0.030480
v 1.132247 0.383684 0.030480
v 1.132247 0.383684 0.030480
v 1.299146 0.919674 -0.008723
v 1.299146 0.919674 -0.008723
v 1.299146 0.919674 -0.008723
v 1.299146 0.919674 -0.008723
v 1.299146 0.919674 0.008882
v 1.299146 0.919674 0.008882
v 1.299146 0.919674 0.008882
v 1.299146 0.919674 0.008882
v 0.985159 0.654014 -0.030321
v 0.985159 0.654014 -0.030321
v 0.985159 0.654014 -0.030321
v 0.985159 0.654014 -0.030321
v 0.985159 0.654014 0.030480
v 0.985159 0.654014 0.030480
v 0.985159 0.654014 0.030480
v 0.985159 0.654014 0.030480
v 1.333722 0.655372 0.026241
v 1.333722 0.655372 0.026241
v 1.333722 0.655372 0.026241
v 1.333722 0.655372 0.026241
v 1.059975 0.504298 -0.030321
v 1.059975 0.504298 -0.030321
v 1.059975 0.504298 -0.030321
v 1.059975 0.504298 -0.030321
v 1.333722 0.655372 -0.026082
v 1.333722 0.655372 -0.026082
v 1.333722 0.655372 -0.026082
v 1.333722 0.655372 -0.026082
v 1.059975 0.504298 0.030480
v 1.059975 0.504298 0.030480
v 1.059975 0.504298 0.030480
v 1.059975 0.504298 0.030480
v 1.121342 0.376610 -0.030321
v 1.121342 0.376610 -0.030321
v 1.121342 0.376610 -0.030321
v 1.121342 0.376610 0.030480
v 1.121342 0.376610 0.030480
v 1.121342 0.376610 0.030480
v 1.564739 0.525284 -0.006023
v 1.564739 0.525284 -0.006023
v 1.564739 0.525284 -0.006023
v 1.564739 0.525284 0.006181
v 1.564739 0.525284 0.006181
v 1.564739 0.525284 0.006181
v 1.159101 -0.234938 -0.030321
v 1.159101 -0.234938 -0.030321
v 1.159101 -0.234938 -0.030321
v 1.159101 -0.234938 0.030480
v 1.159101 -0.234938 0.030480
v 1.159101 -0.234938 0.030480
v 1.172129 -0.234254 -0.030321
v 1.172129 -0.234254 -0.030321
v 1.172129 -0.234254 -0.030321
v 1.172129 -0.234254 0.030480
v 1.172129 -0.234254 0.030480
v 1.172129 -0.234254 0.030480
v 1.584813 0.145971 -0.008723
v 1.584813 0.145971 -0.008723
v 1.584813 0.145971 -0.008723
v 1.584813 0.145971 -0.008723
v 1.584813 0.145971 0.008882
v 1.584813 0.145971 0.008882
v 1.584813 0.145971 0.008882
v 1.584813 0.145971 0.008882
v 1.179870 0.073665 -0.030321
v 1.179870 0.073665 -0.030321
v 1.179870 0.073665 -0.030321
v 1.179870 0.073665 -0.030321
v 1.179870 0.073665 0.030480
v 1.179870 0.073665 0.030480
v 1.179870 0.073665 0.030480
v 1.179870 0.073665 0.030480
v 1.482245 -0.099540 0.026241
v 1.482245 -0.099540 0.026241
v 1.482245 -0.099540 0.026241
v 1.482245 -0.099540 0.026241
v 1.169490 -0.093560 -0.030321
v 1.169490 -0.093560 -0.030321
v 1.169490 -0.093560 -0.030321
v 1.482245 -0.099540 -0.026082
v 1.482245 -0.099540 -0.026082
v 1.482245 -0.099540 -0.026082
v 1.482245 -0.099540 -0.026082
v 1.169490 -0.093560 0.030480
v 1.169490 -0.093560 0.030480
v 1.169490 -0.093560 0.030480
v 1.159101 -0.234938 -0.030321
v 1.159101 -0.234938 -0.030321
v 1.159101 -0.234938 -0.030321
v 1.159101 -0.234938 0.030480
v 1.159101 -0.234938 0.030480
v 1.159101 -0.234938 0.030480
v 1.617569 -0.327196 -0.006023
v 1.617569 -0.327196 -0.006023
v 1.617569 -0.327196 -0.006023
v 1.617569 -0.327196 0.006181
v 1.617569 -0.327196 0.006181
v 1.617569 -0.327196 0.006181
v 0.886187 -0.783055 -0.030321
v 0.886187 -0.783055 -0.030321
v 0.886187 -0.783055 -0.030321
v 0.886187 -0.783055 0.030481
v 0.886187 -0.783055 0.030481
v 0.886187 -0.783055 0.030481
v 0.897789 -0.788983 -0.030321
v 0.897789 -0.788983 -0.030321
v 0.897789 -0.788983 -0.030321
v 0.897789 -0.788983 0.030481
v 0.897789 -0.788983 0.030481
v 0.897789 -0.788983 0.030481
v 1.446074 -0.666442 -0.008723
v 1.446074 -0.666442 -0.008723
v 1.446074 -0.666442 -0.008723
v 1.446074 -0.666442 -0.008723
v 1.446074 -0.666442 0.008882
v 1.446074 -0.666442 0.008882
v 1.446074 -0.666442 0.008882
v 1.446074 -0.666442 0.008882
v 1.058855 -0.526601 -0.030321
v 1.058855 -0.526601 -0.030321
v 1.058855 -0.526601 -0.030321
v 1.058855 -0.526601 -0.030321
v 1.058855 -0.526601 0.030480
v 1.058855 -0.526601 0.030480
v 1.058855 -0.526601 0.030480
v 1.058855 -0.526601 0.030480
v 1.233782 -0.828027 0.026241
v 1.233782 -0.828027 0.026241
v 1.233782 -0.828027 0.026241
v 1.233782 -0.828027 0.026241
v 0.966184 -0.665983 -0.030321
v 0.966184 -0.665983 -0.030321
v 0.966184 -0.665983 -0.030321
v 1.233782 -0.828027 -0.026082
v 1.233782 -0.828027 -0.026082
v 1.233782 -0.828027 -0.026082
v 1.233782 -0.828027 -0.026082
v 0.966184 -0.665983 0.030481
v 0.966184 -0.665983 0.030481
v 0.966184 -0.665983 0.030481
v 0.886187 -0.783055 -0.030321
v 0.886187 -0.783055 -0.030321
v 0.886187 -0.783055 -0.030321
v 0.886187 -0.783055 0.030481
v 0.886187 -0.783055 0.030481
v 0.886187 -0.783055 0.030481
v 1.236537 -1.092828 -0.006023
v 1.236537 -1.092828 -0.006023
v 1.236537 -1.092828 -0.006023
v 1.236537 -1.092828 0.006182
v 1.236537 -1.092828 0.006182
v 1.236537 -1.092828 0.006182
v 0.375734 -1.121647 -0.030321
v 0.375734 -1.121647 -0.030321
v 0.375734 -1.121647 -0.030321
v 0.375734 -1.121647 0.030481
v 0.375734 -1.121647 0.030481
v 0.375734 -1.121647 0.030481
v 0.382798 -1.132556 -0.030321
v 0.382798 -1.132556 -0.030321
v 0.382798 -1.132556 -0.030321
v 0.382798 -1.132556 0.030481
v 0.382798 -1.132556 0.030481
v 0.382798 -1.132556 0.030481
v 0.918642 -1.299849 -0.008723
v 0.918642 -1.299849 -0.008723
v 0.918642 -1.299849 -0.008723
v 0.918642 -1.299849 -0.008723
v 0.918642 -1.299849 0.008882
v 0.918642 -1.299849 0.008882
v 0.918642 -1.299849 0.008882
v 0.918642 -1.299849 0.008882
v 0.653244 -0.985680 -0.030321
v 0.653244 -0.985680 -0.030321
v 0.653244 -0.985680 -0.030321
v 0.653244 -0.985680 -0.030321
v 0.653244 -0.985680 0.030481
v 0.653244 -0.985680 0.030481
v 0.653244 -0.985680 0.030481
v 0.653244 -0.985680 0.030481
v 0.654328 -1.334244 0.026242
v 0.654328 -1.334244 0.026242
v 0.654328 -1.334244 0.026242
v 0.654328 -1.334244 0.026242
v 0.503475 -1.060390 -0.030321
v 0.503475 -1.060390 -0.030321
v 0.503475 -1.060390 -0.030321
v 0.503475 -1.060390 -0.030321
v 0.654328 -1.334244 -0.026082
v 0.654328 -1.334244 -0.026082
v 0.654328 -1.334244 -0.026082
v 0.654328 -1.334244 -0.026082
v 0.503475 -1.060390 0.030481
v 0.503475 -1.060390 0.030481
v 0.503475 -1.060390 0.030481
v 0.503475 -1.060390 0.030481
v 0.375734 -1.121647 -0.030321
v 0.375734 -1.121647 -0.030321
v 0.375734 -1.121647 -0.030321
v 0.375734 -1.121647 0.030481
v 0.375734 -1.121647 0.030481
v 0.375734 -1.121647 0.030481
v 0.524057 -1.565161 -0.006022
v 0.524057 -1.565161 -0.006022
v 0.524057 -1.565161 -0.006022
v 0.524057 -1.565161 0.006182
v 0.524057 -1.565161 0.006182
v 0.524057 -1.565161 0.006182
v -0.235847 -1.158915 -0.030321
v -0.235847 -1.158915 -0.030321
v -0.235847 -1.158915 -0.030321
v -0.235847 -1.158915 0.030481
v -0.235847 -1.158915 0.030481
v -0.235847 -1.158915 0.030481
v -0.235172 -1.171941 -0.030321
v -0.235172 -1.171941 -0.030321
v -0.235172 -1.171941 -0.030321
v -0.235172 -1.171941 0.030481
v -0.235172 -1.171941 0.030481
v -0.235172 -1.171941 0.030481
v 0.144728 -1.584902 -0.008722
v 0.144728 -1.584902 -0.008722
v 0.144728 -1.584902 -0.008722
v 0.144728 -1.584902 -0.008722
v 0.144728 -1.584902 0.008882
v 0.144728 -1.584902 0.008882
v 0.144728 -1.584902 0.008882
v 0.144728 -1.584902 0.008882
v 0.072738 -1.179933 -0.030321
v 0.072738 -1.179933 -0.030321
v 0.072738 -1.179933 -0.030321
v 0.072738 -1.179933 -0.030321
v 0.072738 -1.179933 0.030481
v 0.072738 -1.179933 0.030481
v 0.072738 -1.179933 0.030481
v 0.072738 -1.179933 0.030481
v -0.100701 -1.482167 0.026242
v -0.100701 -1.482167 0.026242
v -0.100701 -1.482167 0.026242
v -0.100701 -1.482167 0.026242
v -0.094479 -1.169429 -0.030321
v -0.094479 -1.169429 -0.030321
v -0.094479 -1.169429 -0.030321
v -0.100701 -1.482167 -0.026082
v -0.100701 -1.482167 -0.026082
v -0.100701 -1.482167 -0.026082
v -0.100701 -1.482167 -0.026082
v -0.094479 -1.169429 0.030481
v -0.094479 -1.169429 0.030481
v -0.094479 -1.169429 0.030481
v -0.235847 -1.158915 -0.030321
v -0.235847 -1.158915 -0.030321
v -0.235847 -1.158915 -0.030321
v -0.235847 -1.158915 0.030481
v -0.235847 -1.158915 0.030481
v -0.235847 -1.158915 0.030481
v -0.328466 -1.617310 -0.006022
v -0.328466 -1.617310 -0.006022
v -0.328466 -1.617310 -0.006022
v -0.328466 -1.617310 0.006182
v -0.328466 -1.617310 0.006182
v -0.328466 -1.617310 0.006182
v -0.783751 -0.885574 -0.030320
v -0.783751 -0.885574 -0.030320
v -0.783751 -0.885574 -0.030320
v -0.783751 -0.885574 0.030481
v -0.783751 -0.885574 0.030481
v -0.783751 -0.885574 0.030481
v -0.789687 -0.897169 -0.030320
v -0.789687 -0.897169 -0.030320
v -0.789687 -0.897169 -0.030320
v -0.789687 -0.897169 0.030481
v -0.789687 -0.897169 0.030481
v -0.789687 -0.897169 0.030481
v -0.667561 -1.445521 -0.008722
v -0.667561 -1.445521 -0.008722
v -0.667561 -1.445521 -0.008722
v -0.667561 -1.445521 -0.008722
v -0.667561 -1.445521 0.008883
v -0.667561 -1.445521 0.008883
v -0.667561 -1.445521 0.008883
v -0.667561 -1.445521 0.008883
v -0.527430 -1.058439 -0.030320
v -0.527430 -1.058439 -0.030320
v -0.527430 -1.058439 -0.030320
v -0.527430 -1.058439 -0.030320
v -0.527430 -1.058439 0.030481
v -0.527430 -1.058439 0.030481
v -0.527430 -1.058439 0.030481
v -0.527430 -1.058439 0.030481
v -0.828992 -1.233131 0.026242
v -0.828992 -1.233131 0.026242
v -0.828992 -1.233131 0.026242
v -0.828992 -1.233131 0.026242
v -0.666747 -0.965669 -0.030320
v -0.666747 -0.965669 -0.030320
v -0.666747 -0.965669 -0.030320
v -0.828992 -1.233131 -0.026081
v -0.828992 -1.233131 -0.026081
v -0.828992 -1.233131 -0.026081
v -0.828992 -1.233131 -0.026081
v -0.666747 -0.965669 0.030481
v -0.666747 -0.965669 0.030481
v -0.666747 -0.965669 0.030481
v -0.783751 -0.885574 -0.030320
v -0.783751 -0.885574 -0.030320
v -0.783751 -0.885574 -0.030320
v -0.783751 -0.885574 0.030481
v -0.783751 -0.885574 0.030481
v -0.783751 -0.885574 0.030481
v -1.093797 -1.235683 -0.006021
v -1.093797 -1.235683 -0.006021
v -1.093797 -1.235683 -0.006021
v -1.093797 -1.235683 0.006183
v -1.093797 -1.235683 0.006183
v -1.093797 -1.235683 0.006183
v -1.121953 -0.374858 -0.030320
v -1.121953 -0.374858 -0.030320
v -1.121953 -0.374858 -0.030320
v -1.121953 -0.374858 0.030482
v -1.121953 -0.374858 0.030482
v -1.121953 -0.374858 0.030482
v -1.132864 -0.381913 -0.030320
v -1.132864 -0.381913 -0.030320
v -1.132864 -0.381913 -0.030320
v -1.132864 -0.381913 0.030482
v -1.132864 -0.381913 0.030482
v -1.132864 -0.381913 0.030482
v -1.300552 -0.917610 -0.008721
v -1.300552 -0.917610 -0.008721
v -1.300552 -0.917610 -0.008721
v -1.300552 -0.917610 -0.008721
v -1.300552 -0.917610 0.008883
v -1.300552 -0.917610 0.008883
v -1.300552 -0.917610 0.008883
v -1.300552 -0.917610 0.008883
v -0.986200 -0.652476 -0.030320
v -0.986200 -0.652476 -0.030320
v -0.986200 -0.652476 -0.030320
v -0.986200 -0.652476 -0.030320
v -0.986200 -0.652476 0.030482
v -0.986200 -0.652476 0.030482
v -0.986200 -0.652476 0.030482
v -0.986200 -0.652476 0.030482
v -1.334766 -0.653285 0.026243
v -1.334766 -0.653285 0.026243
v -1.334766 -0.653285 0.026243
v -1.334766 -0.653285 0.026243
v -1.060805 -0.502654 -0.030320
v -1.060805 -0.502654 -0.030320
v -1.060805 -0.502654 -0.030320
v -1.060805 -0.502654 -0.030320
v -1.334766 -0.653285 -0.026081
v -1.334766 -0.653285 -0.026081
v -1.334766 -0.653285 -0.026081
v -1.334766 -0.653285 -0.026081
v -1.060805 -0.502654 0.030482
v -1.060805 -0.502654 0.030482
v -1.060805 -0.502654 0.030482
v -1.060805 -0.502654 0.030482
vn 0.9975 -0.0705 -0.0000
vn 0.9453 -0.3263 -0.0000
vn 0.8286 -0.5598 -0.0000
vn 0.6555 -0.7552 -0.0000
vn 0.4377 -0.8991 -0.0000
vn 0.1901 -0.9818 -0.0000
vn -0.0705 -0.9975 -0.0000
vn -0.3263 -0.9453 -0.0000
vn -0.5598 -0.8286 -0.0000
vn -0.7552 -0.6555 -0.0000
vn -0.8991 -0.4377 -0.0000
vn -0.9818 -0.1901 -0.0000
vn -0.9975 0.0705 -0.0000
vn -0.9453 0.3263 -0.0000
vn -0.8286 0.5598 -0.0000
vn -0.6555 0.7552 -0.0000
vn -0.4377 0.8991 -0.0000
vn -0.1901 0.9818 -0.0000
vn 0.0705 0.9975 -0.0000
vn 0.3263 0.9453 -0.0000
vn 0.5598 0.8286 -0.0000
vn 0.7552 0.6555 -0.0000
vn 0.8991 0.4377 -0.0000
vn 0.9818 0.1901 -0.0000
vn -0.0000 -0.0000 1.0000
vn -0.0094 0.0007 -1.0000
vn -0.0089 0.0031 -1.0000
vn -0.0078 0.0053 -1.0000
vn -0.0062 0.0071 -1.0000
vn -0.0041 0.0085 -1.0000
vn -0.0018 0.0093 -1.0000
vn 0.0007 0.0094 -1.0000
vn 0.0031 0.0089 -1.0000
vn 0.0053 0.0078 -1.0000
vn 0.0071 0.0062 -1.0000
vn 0.0085 0.0041 -1.0000
vn 0.0093 0.0018 -1.0000
vn 0.0094 -0.0007 -1.0000
vn 0.0089 -0.0031 -1.0000
vn 0.0078 -0.0053 -1.0000
vn 0.0062 -0.0071 -1.0000
vn 0.0041 -0.0085 -1.0000
vn 0.0018 -0.0093 -1.0000
vn -0.0007 -0.0094 -1.0000
vn -0.0031 -0.0089 -1.0000
vn -0.0053 -0.0078 -1.0000
vn -0.0071 -0.0062 -1.0000
vn -0.0085 -0.0041 -1.0000
vn -0.0093 -0.0018 -1.0000
vn 0.3194 -0.9476 -0.0000
vn -0.3999 0.9166 -0.0000
vn -0.0539 0.9985 -0.0000
vn 0.9815 0.1913 -0.0000
vn -0.0130 -0.0003 -0.9999
vn -0.0514 -0.0100 0.9986
vn -0.0329 -0.0331 0.9989
vn -0.0329 -0.0330 0.9989
vn -0.0514 -0.0100 -0.9986
vn 0.9978 -0.0660 -0.0000
vn 0.9982 -0.0605 -0.0000
vn -0.9985 -0.0546 -0.0000
vn 0.9974 -0.0715 -0.0000
vn -0.0130 -0.0003 0.9999
vn -0.0329 -0.0331 -0.9989
vn -0.9233 0.3842 -0.0000
vn -0.1957 -0.9807 -0.0000
vn 0.1139 0.9935 -0.0000
vn 0.4538 0.8911 -0.0000
vn 0.9462 -0.3235 -0.0000
vn -0.0114 0.0063 -0.9999
vn -0.0495 0.0170 0.9986
vn -0.0449 -0.0121 0.9989
vn -0.0495 0.0170 -0.9986
vn 0.8301 -0.5577 -0.0000
vn 0.8335 -0.5525 -0.0000
vn -0.8932 0.4496 -0.0000
vn 0.8266 -0.5628 -0.0000
vn -0.0114 0.0063 0.9999
vn -0.0449 -0.0121 -0.9989
vn -0.6067 0.7949 -0.0000
vn -0.6612 -0.7502 -0.0000
vn 0.5950 0.8037 -0.0000
vn 0.8385 0.5448 -0.0000
vn 0.6575 -0.7535 -0.0000
vn -0.0067 0.0112 -0.9999
vn -0.0344 0.0395 0.9986
vn -0.0450 0.0119 0.9989
vn -0.0451 0.0119 0.9989
vn -0.0344 0.0395 -0.9986
vn 0.4476 -0.8942 -0.0000
vn -0.5471 0.8371 -0.0000
vn 0.4339 -0.9009 -0.0000
vn -0.0067 0.0112 0.9999
vn -0.0450 0.0119 -0.9989
vn -0.1304 0.9915 -0.0000
vn -0.9479 -0.3187 -0.0000
vn 0.9169 0.3992 -0.0000
vn 0.9986 0.0532 -0.0000
vn 0.1905 -0.9817 -0.0000
vn -0.0003 0.0130 -0.9999
vn -0.0099 0.0514 0.9986
vn -0.0330 0.0329 0.9989
vn -0.0099 0.0514 -0.9986
vn -0.0668 -0.9978 -0.0000
vn -0.0612 -0.9981 -0.0000
vn -0.0537 0.9986 -0.0000
vn -0.0724 -0.9974 -0.0000
vn -0.0003 0.0130 0.9999
vn -0.0330 0.0329 -0.9989
vn 0.3848 0.9230 -0.0000
vn -0.9805 0.1965 -0.0000
vn 0.9934 -0.1146 -0.0000
vn 0.8908 -0.4544 -0.0000
vn -0.3243 -0.9460 -0.0000
vn 0.0063 0.0114 -0.9999
vn 0.0170 0.0495 0.9986
vn -0.0121 0.0450 0.9989
vn 0.0170 0.0495 -0.9986
vn -0.5583 -0.8296 -0.0000
vn -0.5531 -0.8331 -0.0000
vn 0.4504 0.8928 -0.0000
vn -0.5635 -0.8261 -0.0000
vn 0.0063 0.0114 0.9999
vn -0.0121 0.0450 -0.9989
vn 0.7953 0.6062 -0.0000
vn -0.7497 0.6618 -0.0000
vn 0.8032 -0.5957 -0.0000
vn 0.5442 -0.8390 -0.0000
vn 0.5442 -0.8389 -0.0000
vn -0.7540 -0.6569 -0.0000
vn 0.0112 0.0067 -0.9999
vn 0.0396 0.0343 0.9986
vn 0.0395 0.0344 0.9986
vn 0.0120 0.0450 0.9989
vn 0.0120 0.0451 0.9989
vn 0.0396 0.0344 -0.9986
vn 0.0395 0.0344 -0.9986
vn -0.8945 -0.4470 -0.0000
vn 0.8375 0.5464 -0.0000
vn -0.9013 -0.4332 -0.0000
vn 0.0112 0.0067 0.9999
vn 0.0120 0.0451 -0.9989
vn 0.0120 0.0450 -0.9989
vn 0.9916 0.1297 -0.0000
vn -0.3179 0.9481 -0.0000
vn 0.3984 -0.9172 -0.0000
vn 0.0525 -0.9986 -0.0000
vn -0.9818 -0.1897 -0.0000
vn 0.0130 0.0002 -0.9999
vn 0.0514 0.0099 0.9986
vn 0.0515 0.0099 0.9986
vn 0.0329 0.0330 0.9989
vn 0.0515 0.0099 -0.9986
vn 0.0514 0.0099 -0.9986
vn -0.9977 0.0676 -0.0000
vn -0.9981 0.0620 -0.0000
vn 0.9986 0.0528 -0.0000
vn -0.9973 0.0733 -0.0000
vn 0.0130 0.0002 0.9999
vn 0.0329 0.0330 -0.9989
vn 0.9227 -0.3855 -0.0000
vn 0.1973 0.9803 -0.0000
vn -0.1154 -0.9933 -0.0000
vn -0.4550 -0.8905 -0.0000
vn -0.9457 0.3250 -0.0000
vn 0.0114 -0.0063 -0.9999
vn 0.0495 -0.0171 0.9986
vn 0.0450 0.0120 0.9989
vn 0.0495 -0.0171 -0.9986
vn 0.0495 -0.0170 -0.9986
vn -0.8292 0.5589 -0.0000
vn -0.8327 0.5537 -0.0000
vn 0.8924 -0.4511 -0.0000
vn -0.8257 0.5642 -0.0000
vn 0.0114 -0.0063 0.9999
vn 0.0450 0.0120 -0.9989
vn 0.6057 -0.7957 -0.0000
vn 0.6624 0.7492 -0.0000
vn -0.5963 -0.8028 -0.0000
vn -0.8394 -0.5436 -0.0000
vn -0.6563 0.7545 -0.0000
vn 0.0067 -0.0112 -0.9999
vn 0.0343 -0.0396 0.9986
vn 0.0450 -0.0120 0.9989
vn 0.0343 -0.0396 -0.9986
vn -0.4464 0.8948 -0.0000
vn 0.5457 -0.8380 -0.0000
vn -0.4324 0.9017 -0.0000
vn 0.0067 -0.0112 0.9999
vn 0.0450 -0.0120 -0.9989
vn 0.1290 -0.9916 -0.0000
vn 0.9484 0.3172 -0.0000
vn -0.9175 -0.3977 -0.0000
vn -0.9987 -0.0517 -0.0000
vn -0.1889 0.9820 -0.0000
vn 0.0002 -0.0130 -0.9999
vn 0.0098 -0.0515 0.9986
vn 0.0330 -0.0329 0.9989
vn 0.0098 -0.0515 -0.9986
vn 0.0684 0.9977 -0.0000
vn 0.0627 0.9980 -0.0000
vn 0.0520 -0.9986 -0.0000
vn 0.0742 0.9972 -0.0000
vn 0.0002 -0.0130 0.9999
vn 0.0330 -0.0329 -0.9989
vn -0.3861 -0.9224 -0.0000
vn 0.9802 -0.1980 -0.0000
vn -0.9932 0.1162 -0.0000
vn -0.8901 0.4557 -0.0000
vn 0.3258 0.9454 -0.0000
vn -0.0063 -0.0114 -0.9999
vn -0.0171 -0.0495 0.9986
vn 0.0120 -0.0450 0.9989
vn -0.0171 -0.0495 -0.9986
vn 0.5596 0.8288 -0.0000
vn 0.5543 0.8323 -0.0000
vn -0.4519 -0.8921 -0.0000
vn 0.5649 0.8252 -0.0000
vn -0.0063 -0.0114 0.9999
vn 0.0120 -0.0450 -0.9989
vn -0.7961 -0.6051 -0.0000
vn 0.7486 -0.6630 -0.0000
vn -0.8023 0.5969 -0.0000
vn -0.5430 0.8397 -0.0000
vn 0.7550 0.6557 -0.0000
vn -0.0112 -0.0067 -0.9999
vn -0.0396 -0.0343 0.9986
vn -0.0120 -0.0450 0.9989
vn -0.0396 -0.0343 -0.9986
vn 0.8952 0.4457 -0.0000
vn 0.8952 0.4458 -0.0000
vn -0.8384 -0.5450 -0.0000
vn 0.9021 0.4316 -0.0000
vn -0.0112 -0.0067 0.9999
vn -0.0120 -0.0450 -0.9989
vn -0.9917 -0.1284 -0.0000
vn -0.9968 0.0704 0.0387
vn -0.9810 -0.1900 0.0387
vn -0.8984 -0.4374 0.0387
vn -0.9446 0.3260 0.0387
vn 0.8280 -0.5594 0.0387
vn -0.8280 0.5594 0.0387
vn -0.7546 -0.6550 0.0387
vn -0.6550 0.7546 0.0387
vn -0.5594 -0.8280 0.0387
vn -0.4374 0.8984 0.0387
vn -0.3260 -0.9446 0.0387
vn -0.1899 0.9810 0.0387
vn -0.0704 -0.9968 0.0387
vn -0.1900 0.9810 0.0387
vn 0.0704 0.9968 0.0387
vn 0.1900 -0.9810 0.0387
vn 0.1899 -0.9810 0.0387
vn 0.3260 0.9446 0.0387
vn 0.4374 -0.8984 0.0387
vn 0.5594 0.8280 0.0387
vn 0.6550 -0.7546 0.0387
vn 0.7546 0.6550 0.0387
vn 0.8984 0.4374 0.0387
vn 0.9446 -0.3260 0.0387
vn 0.9810 0.1900 0.0387
vn 0.9968 -0.0704 0.0387
vt 1.000000 0.500000
vt 1.000000 1.000000
vt 0.958333 1.000000
vt 0.958333 0.500000
vt 0.916667 1.000000
vt 0.916667 0.500000
vt 0.875000 1.000000
vt 0.875000 0.500000
vt 0.833333 1.000000
vt 0.833333 0.500000
vt 0.791667 1.000000
vt 0.791667 0.500000
vt 0.750000 1.000000
vt 0.750000 0.500000
vt 0.708333 1.000000
vt 0.708333 0.500000
vt 0.666667 1.000000
vt 0.666667 0.500000
vt 0.625000 1.000000
vt 0.625000 0.500000
vt 0.583333 1.000000
vt 0.583333 0.500000
vt 0.541666 1.000000
vt 0.541666 0.500000
vt 0.500000 1.000000
vt 0.500000 0.500000
vt 0.458333 1.000000
vt 0.458333 0.500000
vt 0.416666 1.000000
vt 0.416666 0.500000
vt 0.375000 1.000000
vt 0.375000 0.500000
vt 0.333333 1.000000
vt 0.333333 0.500000
vt 0.291667 1.000000
vt 0.291667 0.500000
vt 0.250000 1.000000
vt 0.250000 0.500000
vt 0.208333 1.000000
vt 0.208333 0.500000
vt 0.166666 1.000000
vt 0.166666 0.500000
vt 0.125000 1.000000
vt 0.125000 0.500000
vt 0.083333 1.000000
vt 0.083333 0.500000
vt 0.041666 1.000000
vt 0.041666 0.500000
vt -0.000000 1.000000
vt -0.000000 0.500000
vt 0.250000 0.304681
vt 0.264152 0.302817
vt 0.312117 0.481822
vt 0.250000 0.490000
vt 0.277340 0.297355
vt 0.370000 0.457846
vt 0.288665 0.288665
vt 0.419706 0.419706
vt 0.297355 0.277340
vt 0.457846 0.370000
vt 0.302817 0.264152
vt 0.481822 0.312117
vt 0.304681 0.250000
vt 0.490000 0.250000
vt 0.302817 0.235848
vt 0.481822 0.187883
vt 0.297355 0.222660
vt 0.457846 0.130000
vt 0.288665 0.211335
vt 0.419706 0.080294
vt 0.277340 0.202645
vt 0.370000 0.042154
vt 0.264152 0.197183
vt 0.312117 0.018178
vt 0.250000 0.195319
vt 0.250000 0.010000
vt 0.235848 0.197183
vt 0.187883 0.018178
vt 0.222660 0.202645
vt 0.130000 0.042154
vt 0.211335 0.211335
vt 0.080294 0.080294
vt 0.202645 0.222660
vt 0.042154 0.130000
vt 0.197183 0.235848
vt 0.018178 0.187883
vt 0.195319 0.250000
vt 0.010000 0.250000
vt 0.197183 0.264152
vt 0.018178 0.312117
vt 0.202645 0.277340
vt 0.042154 0.370000
vt 0.211335 0.288665
vt 0.080294 0.419706
vt 0.222660 0.297355
vt 0.130000 0.457846
vt 0.235848 0.302817
vt 0.187883 0.481822
vt 0.764046 0.302423
vt 0.750000 0.304272
vt 0.750000 0.490000
vt 0.812117 0.481822
vt 0.777136 0.297001
vt 0.870000 0.457846
vt 0.788376 0.288376
vt 0.919706 0.419706
vt 0.797001 0.277136
vt 0.957846 0.370000
vt 0.802423 0.264047
vt 0.981822 0.312117
vt 0.804272 0.250000
vt 0.990000 0.250000
vt 0.802423 0.235953
vt 0.981822 0.187883
vt 0.797001 0.222864
vt 0.957846 0.130000
vt 0.788376 0.211624
vt 0.919706 0.080294
vt 0.777136 0.202999
vt 0.870000 0.042154
vt 0.764047 0.197577
vt 0.812117 0.018178
vt 0.750000 0.195728
vt 0.750000 0.010000
vt 0.735953 0.197577
vt 0.687883 0.018178
vt 0.722864 0.202999
vt 0.630000 0.042154
vt 0.711624 0.211624
vt 0.580294 0.080294
vt 0.702999 0.222864
vt 0.542154 0.130000
vt 0.697577 0.235953
vt 0.518178 0.187883
vt 0.695728 0.250000
vt 0.510000 0.250000
vt 0.697577 0.264047
vt 0.518178 0.312117
vt 0.702999 0.277136
vt 0.542154 0.370000
vt 0.711624 0.288376
vt 0.580294 0.419706
vt 0.722864 0.297001
vt 0.630000 0.457846
vt 0.735953 0.302423
vt 0.687883 0.481822
vt 0.375000 0.000000
vt 0.625000 0.000000
vt 0.625000 0.250000
vt 0.375000 0.250000
vt 0.375000 0.437500
vt 0.625000 0.437500
vt 0.625000 0.500000
vt 0.375000 0.500000
vt 0.625000 0.750000
vt 0.375000 0.750000
vt 0.375000 0.875000
vt 0.625000 0.875000
vt 0.625000 1.000000
vt 0.375000 1.000000
vt 0.312500 0.500000
vt 0.312500 0.750000
vt 0.750000 0.500000
vt 0.875000 0.500000
vt 0.875000 0.750000
vt 0.750000 0.750000
vt 0.687500 0.500000
vt 0.687500 0.750000
vt 0.125000 0.500000
vt 0.250000 0.500000
vt 0.250000 0.750000
vt 0.125000 0.750000
vt 0.375000 0.812500
vt 0.625000 0.812500
vt 0.625000 0.375000
vt 0.375000 0.375000
vt 0.000000 0.000000
s 0
usemtl Material.001
f 242/1/1 173/2/1 170/3/1
f 242/1/1 170/3/1 245/4/1
f 246/4/2 171/3/2 176/5/2
f 246/4/2 176/5/2 249/6/2
f 250/6/3 177/5/3 179/7/3
f 250/6/3 179/7/3 253/8/3
f 254/8/4 180/7/4 182/9/4
f 254/8/4 182/9/4 257/10/4
f 258/10/5 183/9/5 185/11/5
f 258/10/5 185/11/5 261/12/5
f 262/12/6 186/11/6 189/13/6
f 262/12/6 189/13/6 266/14/6
f 265/14/7 188/13/7 192/15/7
f 265/14/7 192/15/7 270/16/7
f 269/16/8 191/15/8 195/17/8
f 269/16/8 195/17/8 274/18/8
f 273/18/9 194/17/9 198/19/9
f 273/18/9 198/19/9 278/20/9
f 277/20/10 197/19/10 201/21/10
f 277/20/10 201/21/10 282/22/10
f 281/22/11 200/21/11 204/23/11
f 281/22/11 204/23/11 286/24/11
f 285/24/12 203/23/12 206/25/12
f 285/24/12 206/25/12 290/26/12
f 292/26/13 207/25/13 209/27/13
f 292/26/13 209/27/13 295/28/13
f 296/28/14 210/27/14 212/29/14
f 296/28/14 212/29/14 299/30/14
f 300/30/15 213/29/15 215/31/15
f 300/30/15 215/31/15 303/32/15
f 304/32/16 216/31/16 218/33/16
f 304/32/16 218/33/16 307/34/16
f 308/34/17 219/33/17 221/35/17
f 308/34/17 221/35/17 311/36/17
f 312/36/18 222/35/18 224/37/18
f 312/36/18 224/37/18 315/38/18
f 316/38/19 225/37/19 228/39/19
f 316/38/19 228/39/19 320/40/19
f 319/40/20 227/39/20 231/41/20
f 319/40/20 231/41/20 324/42/20
f 323/42/21 230/41/21 234/43/21
f 323/42/21 234/43/21 328/44/21
f 327/44/22 233/43/22 237/45/22
f 327/44/22 237/45/22 332/46/22
f 331/46/23 236/45/23 240/47/23
f 331/46/23 240/47/23 336/48/23
f 335/48/24 239/47/24 174/49/24
f 335/48/24 174/49/24 244/50/24
f 5/51/25 12/52/25 169/53/25
f 5/51/25 169/53/25 172/54/25
f 12/52/25 19/55/25 175/56/25
f 12/52/25 175/56/25 169/53/25
f 19/55/25 26/57/25 178/58/25
f 19/55/25 178/58/25 175/56/25
f 26/57/25 33/59/25 181/60/25
f 26/57/25 181/60/25 178/58/25
f 33/59/25 40/61/25 184/62/25
f 33/59/25 184/62/25 181/60/25
f 40/61/25 47/63/25 187/64/25
f 40/61/25 187/64/25 184/62/25
f 47/63/25 54/65/25 190/66/25
f 47/63/25 190/66/25 187/64/25
f 54/65/25 61/67/25 193/68/25
f 54/65/25 193/68/25 190/66/25
f 61/67/25 68/69/25 196/70/25
f 61/67/25 196/70/25 193/68/25
f 68/69/25 75/71/25 199/72/25
f 68/69/25 199/72/25 196/70/25
f 75/71/25 82/73/25 202/74/25
f 75/71/25 202/74/25 199/72/25
f 82/73/25 89/75/25 205/76/25
f 82/73/25 205/76/25 202/74/25
f 89/75/25 96/77/25 208/78/25
f 89/75/25 208/78/25 205/76/25
f 96/77/25 103/79/25 211/80/25
f 96/77/25 211/80/25 208/78/25
f 103/79/25 110/81/25 214/82/25
f 103/79/25 214/82/25 211/80/25
f 110/81/25 117/83/25 217/84/25
f 110/81/25 217/84/25 214/82/25
f 117/83/25 124/85/25 220/86/25
f 117/83/25 220/86/25 217/84/25
f 124/85/25 131/87/25 223/88/25
f 124/85/25 223/88/25 220/86/25
f 131/87/25 138/89/25 226/90/25
f 131/87/25 226/90/25 223/88/25
f 138/89/25 145/91/25 229/92/25
f 138/89/25 229/92/25 226/90/25
f 145/91/25 152/93/25 232/94/25
f 145/91/25 232/94/25 229/92/25
f 152/93/25 159/95/25 235/96/25
f 152/93/25 235/96/25 232/94/25
f 159/95/25 166/97/25 238/98/25
f 159/95/25 238/98/25 235/96/25
f 166/97/25 5/51/25 172/54/25
f 166/97/25 172/54/25 238/98/25
f 8/99/26 3/100/26 243/101/26
f 8/99/26 243/101/26 247/102/26
f 15/103/27 10/99/27 248/102/27
f 15/103/27 248/102/27 251/104/27
f 22/105/28 16/103/28 252/104/28
f 22/105/28 252/104/28 255/106/28
f 29/107/29 23/105/29 256/106/29
f 29/107/29 256/106/29 259/108/29
f 36/109/30 30/107/30 260/108/30
s 1
f 36/109/30 260/108/30 263/110/30
s 0
f 43/111/31 37/109/31 264/110/31
f 43/111/31 264/110/31 267/112/31
f 51/113/32 44/111/32 268/112/32
f 51/113/32 268/112/32 272/114/32
f 58/115/33 50/113/33 271/114/33
f 58/115/33 271/114/33 276/116/33
f 65/117/34 57/115/34 275/116/34
f 65/117/34 275/116/34 280/118/34
f 72/119/35 64/117/35 279/118/35
f 72/119/35 279/118/35 284/120/35
f 80/121/36 71/119/36 283/120/36
f 80/121/36 283/120/36 288/122/36
f 87/123/37 78/121/37 287/122/37
f 87/123/37 287/122/37 291/124/37
f 92/125/38 85/123/38 289/124/38
f 92/125/38 289/124/38 293/126/38
f 99/127/39 94/125/39 294/126/39
f 99/127/39 294/126/39 297/128/39
f 106/129/40 100/127/40 298/128/40
f 106/129/40 298/128/40 301/130/40
f 113/131/41 107/129/41 302/130/41
f 113/131/41 302/130/41 305/132/41
f 120/133/42 114/131/42 306/132/42
s 1
f 120/133/42 306/132/42 309/134/42
s 0
f 128/135/43 121/133/43 310/134/43
f 128/135/43 310/134/43 314/136/43
f 135/137/44 127/135/44 313/136/44
f 135/137/44 313/136/44 318/138/44
f 142/139/45 134/137/45 317/138/45
f 142/139/45 317/138/45 322/140/45
f 149/141/46 141/139/46 321/140/46
f 149/141/46 321/140/46 326/142/46
f 156/143/47 148/141/47 325/142/47
f 156/143/47 325/142/47 330/144/47
f 164/145/48 155/143/48 329/144/48
f 164/145/48 329/144/48 334/146/48
f 1/100/49 162/145/49 333/146/49
f 1/100/49 333/146/49 241/101/49
f 338/147/50 341/148/50 347/149/50
f 338/147/50 347/149/50 344/150/50
f 387/151/51 380/152/51 359/153/51
f 387/151/51 359/153/51 356/154/51
s 1
f 357/154/52 360/153/52 354/155/52
s 0
f 357/154/52 354/155/52 351/156/52
f 372/157/53 376/158/53 342/159/53
f 372/157/53 342/159/53 339/160/53
s 1
f 385/161/54 355/154/54 350/156/54
f 385/161/54 350/156/54 383/162/54
f 365/163/55 346/164/55 340/165/55
f 365/163/55 340/165/55 373/166/55
f 377/167/56 366/163/56 375/166/57
f 377/167/56 375/166/57 389/168/56
f 343/169/58 361/170/58 369/171/58
f 343/169/58 369/171/58 337/172/58
f 381/173/59 388/174/59 374/158/60
f 381/173/59 374/158/60 370/157/60
s 0
f 345/150/61 348/149/61 367/175/61
f 345/150/61 367/175/61 363/176/61
s 1
f 349/156/62 352/155/62 388/174/59
f 349/156/62 388/174/59 381/173/59
f 358/153/63 378/167/63 390/168/63
f 358/153/63 390/168/63 353/155/63
f 362/170/64 384/161/64 382/162/64
f 362/170/64 382/162/64 371/171/64
s 0
f 364/176/65 368/175/65 379/152/65
f 364/176/65 379/152/65 386/151/65
f 392/147/66 395/148/66 400/149/66
f 392/147/66 400/149/66 397/150/66
f 441/151/67 434/152/67 414/153/67
f 441/151/67 414/153/67 411/154/67
f 410/154/68 413/153/68 408/155/68
f 410/154/68 408/155/68 405/156/68
f 424/157/69 428/158/69 394/159/69
f 424/157/69 394/159/69 391/160/69
s 1
f 439/161/70 409/154/70 404/156/70
f 439/161/70 404/156/70 437/162/70
s 0
f 420/163/71 401/164/71 396/165/71
s 1
f 420/163/71 396/165/71 430/166/71
f 431/167/72 419/163/72 427/166/72
f 431/167/72 427/166/72 442/168/72
f 398/169/73 416/170/73 426/171/73
f 398/169/73 426/171/73 393/172/73
f 436/173/74 443/174/74 429/158/75
f 436/173/74 429/158/75 425/157/75
s 0
f 399/150/76 402/149/76 421/175/76
f 399/150/76 421/175/76 417/176/76
s 1
f 403/156/77 406/155/77 443/174/74
f 403/156/77 443/174/74 436/173/74
f 412/153/78 432/167/78 444/168/78
f 412/153/78 444/168/78 407/155/78
f 415/170/79 438/161/79 435/162/79
f 415/170/79 435/162/79 423/171/79
s 0
f 418/176/80 422/175/80 433/152/80
f 418/176/80 433/152/80 440/151/80
f 445/147/81 448/148/81 454/149/81
s 1
f 445/147/81 454/149/81 451/150/81
s 0
f 495/151/82 487/152/82 468/153/82
f 495/151/82 468/153/82 465/154/82
f 464/154/83 467/153/83 462/155/83
f 464/154/83 462/155/83 459/156/83
f 477/157/84 481/158/84 449/159/84
f 477/157/84 449/159/84 446/160/84
s 1
f 494/161/85 463/154/85 458/156/85
f 494/161/85 458/156/85 492/162/85
f 474/163/86 455/164/86 450/165/86
f 474/163/86 450/165/86 484/166/86
f 485/167/87 473/163/88 483/166/87
f 485/167/87 483/166/87 499/168/88
f 452/169/89 470/170/89 480/171/89
f 452/169/89 480/171/89 447/172/89
s 0
f 489/173/90 497/174/90 482/158/90
f 489/173/90 482/158/90 478/157/90
f 453/150/91 456/149/91 475/175/91
f 453/150/91 475/175/91 471/176/91
f 457/156/92 460/155/92 498/174/92
f 457/156/92 498/174/92 490/173/92
s 1
f 466/153/93 486/167/93 500/168/93
f 466/153/93 500/168/93 461/155/93
f 469/170/94 493/161/94 491/162/94
f 469/170/94 491/162/94 479/171/94
s 0
f 472/176/95 476/175/95 488/152/95
f 472/176/95 488/152/95 496/151/95
f 501/147/96 504/148/96 510/149/96
f 501/147/96 510/149/96 507/150/96
f 548/151/97 541/152/97 523/153/97
f 548/151/97 523/153/97 520/154/97
f 519/154/98 522/153/98 516/155/98
f 519/154/98 516/155/98 513/156/98
f 533/157/99 537/158/99 505/159/99
f 533/157/99 505/159/99 502/160/99
s 1
f 549/161/100 521/154/100 515/156/100
f 549/161/100 515/156/100 546/162/100
f 530/163/101 511/164/101 506/165/101
f 530/163/101 506/165/101 540/166/101
f 543/167/102 529/163/102 539/166/102
f 543/167/102 539/166/102 554/168/102
f 508/169/103 526/170/103 536/171/103
f 508/169/103 536/171/103 503/172/103
f 545/173/104 552/174/104 538/158/105
f 545/173/104 538/158/105 534/157/105
s 0
f 509/150/106 512/149/106 532/175/106
f 509/150/106 532/175/106 528/176/106
s 1
f 514/156/107 517/155/107 552/174/104
f 514/156/107 552/174/104 545/173/104
f 524/153/108 542/167/108 553/168/108
f 524/153/108 553/168/108 518/155/108
f 525/170/109 550/161/109 547/162/109
f 525/170/109 547/162/109 535/171/109
s 0
f 527/176/110 531/175/110 544/152/110
f 527/176/110 544/152/110 551/151/110
f 556/147/111 559/148/111 564/149/111
f 556/147/111 564/149/111 561/150/111
f 602/151/112 595/152/112 576/153/112
f 602/151/112 576/153/112 573/154/112
f 574/154/113 577/153/113 570/155/113
f 574/154/113 570/155/113 567/156/113
f 588/157/114 592/158/114 558/159/114
f 588/157/114 558/159/114 555/160/114
s 1
f 603/161/115 575/154/115 569/156/115
f 603/161/115 569/156/115 600/162/115
f 584/163/116 565/164/116 560/165/116
f 584/163/116 560/165/116 593/166/116
f 598/167/117 585/163/117 594/166/117
f 598/167/117 594/166/117 608/168/117
f 562/169/118 580/170/118 589/171/118
f 562/169/118 589/171/118 557/172/118
f 599/173/119 606/174/119 591/158/120
f 599/173/119 591/158/120 587/157/120
s 0
f 563/150/121 566/149/121 586/175/121
f 563/150/121 586/175/121 582/176/121
s 1
f 568/156/122 571/155/122 606/174/119
f 568/156/122 606/174/119 599/173/119
f 578/153/123 596/167/123 607/168/123
f 578/153/123 607/168/123 572/155/123
f 581/170/124 605/161/124 601/162/124
f 581/170/124 601/162/124 590/171/124
s 0
f 579/176/125 583/175/125 597/152/125
f 579/176/125 597/152/125 604/151/125
f 611/147/126 614/148/126 620/149/126
f 611/147/126 620/149/126 617/150/126
f 657/151/127 649/152/127 630/153/127
f 657/151/127 630/153/127 627/154/127
f 628/154/128 631/153/128 625/155/128
f 628/154/129 625/155/129 622/156/129
f 642/157/130 646/158/130 612/159/130
f 642/157/130 612/159/130 609/160/130
s 1
f 659/161/131 629/154/131 623/156/131
f 659/161/131 623/156/131 655/162/131
f 639/163/132 619/164/133 613/165/133
f 639/163/132 613/165/133 647/166/133
f 652/167/134 640/163/135 648/166/134
f 652/167/134 648/166/134 664/168/135
f 616/169/136 635/170/137 643/171/137
f 616/169/136 643/171/137 610/172/137
s 0
f 654/173/138 662/174/138 645/158/138
f 654/173/138 645/158/138 641/157/138
f 615/150/139 618/149/139 638/175/139
f 615/150/139 638/175/139 634/176/139
f 621/156/140 624/155/140 661/174/140
f 621/156/140 661/174/140 653/173/140
s 1
f 632/153/141 651/167/141 663/168/141
f 632/153/141 663/168/141 626/155/141
f 636/170/142 660/161/143 656/162/143
f 636/170/142 656/162/143 644/171/142
s 0
f 633/176/144 637/175/144 650/152/144
f 633/176/144 650/152/144 658/151/144
f 667/147/145 670/148/145 676/149/145
f 667/147/145 676/149/145 673/150/145
f 714/151/146 707/152/146 687/153/146
f 714/151/146 687/153/146 684/154/146
f 685/154/147 688/153/147 681/155/147
f 685/154/147 681/155/147 678/156/147
f 697/157/148 701/158/148 668/159/148
f 697/157/148 668/159/148 665/160/148
s 1
f 712/161/149 683/154/149 677/156/149
f 712/161/149 677/156/149 709/162/149
f 695/163/150 675/164/151 669/165/151
f 695/163/150 669/165/151 702/166/151
f 708/167/152 696/163/152 704/166/152
f 708/167/152 704/166/152 718/168/152
f 672/169/153 691/170/153 698/171/154
f 672/169/153 698/171/154 666/172/153
f 710/173/155 717/174/155 703/158/156
f 710/173/155 703/158/156 699/157/156
s 0
f 671/150/157 674/149/157 693/175/157
f 671/150/157 693/175/157 689/176/157
s 1
f 679/156/158 682/155/158 717/174/155
f 679/156/158 717/174/155 710/173/155
f 686/153/159 705/167/159 716/168/159
f 686/153/159 716/168/159 680/155/159
f 692/170/160 715/161/160 711/162/160
f 692/170/160 711/162/160 700/171/160
s 0
f 690/176/161 694/175/161 706/152/161
f 690/176/161 706/152/161 713/151/161
f 721/147/162 724/148/162 730/149/162
f 721/147/162 730/149/162 727/150/162
f 768/151/163 761/152/163 742/153/163
f 768/151/163 742/153/163 739/154/163
f 738/154/164 741/153/164 735/155/164
f 738/154/164 735/155/164 732/156/164
f 753/157/165 757/158/165 723/159/165
f 753/157/165 723/159/165 720/160/165
s 1
f 766/161/166 737/154/166 731/156/166
f 766/161/166 731/156/166 763/162/166
f 747/163/167 728/164/167 722/165/167
f 747/163/167 722/165/167 755/166/167
f 762/167/168 750/163/168 756/166/168
f 762/167/168 756/166/168 771/168/168
f 725/169/169 743/170/169 751/171/169
f 725/169/169 751/171/169 719/172/170
f 765/173/171 772/174/171 758/158/172
f 765/173/171 758/158/172 754/157/172
s 0
f 726/150/173 729/149/173 748/175/173
f 726/150/173 748/175/173 744/176/173
s 1
f 733/156/174 736/155/174 772/174/171
f 733/156/174 772/174/171 765/173/171
f 740/153/175 759/167/175 770/168/175
f 740/153/175 770/168/175 734/155/175
f 746/170/176 769/161/176 764/162/176
f 746/170/176 764/162/176 752/171/176
s 0
f 745/176/177 749/175/177 760/152/177
f 745/176/177 760/152/177 767/151/177
f 774/147/178 777/148/178 784/149/178
f 774/147/178 784/149/178 781/150/178
f 823/151/179 815/152/179 796/153/179
f 823/151/179 796/153/179 793/154/179
f 792/154/180 795/153/180 789/155/180
f 792/154/180 789/155/180 786/156/180
s 1
f 807/157/181 811/158/181 778/159/181
s 0
f 807/157/181 778/159/181 775/160/181
s 1
f 822/161/182 791/154/182 785/156/182
f 822/161/182 785/156/182 818/162/182
f 802/163/183 782/164/183 776/165/183
f 802/163/183 776/165/183 810/166/183
f 813/167/184 801/163/184 809/166/184
f 813/167/184 809/166/184 825/168/184
f 779/169/185 798/170/185 806/171/185
f 779/169/185 806/171/185 773/172/185
s 0
f 819/173/186 827/174/186 812/158/186
f 819/173/186 812/158/186 808/157/186
f 780/150/187 783/149/187 803/175/187
f 780/150/187 803/175/187 799/176/187
f 787/156/188 790/155/188 828/174/188
f 787/156/188 828/174/188 820/173/188
s 1
f 794/153/189 814/167/189 826/168/189
f 794/153/189 826/168/189 788/155/189
f 797/170/190 821/161/190 817/162/190
f 797/170/190 817/162/190 805/171/190
s 0
f 800/176/191 804/175/191 816/152/191
f 800/176/191 816/152/191 824/151/191
f 830/147/192 833/148/192 840/149/192
f 830/147/192 840/149/192 837/150/192
f 876/151/193 869/152/193 850/153/193
f 876/151/193 850/153/193 847/154/193
f 849/154/194 852/153/194 845/155/194
f 849/154/194 845/155/194 842/156/194
f 863/157/195 867/158/195 834/159/195
f 863/157/195 834/159/195 831/160/195
s 1
f 877/161/196 848/154/196 841/156/196
f 877/161/196 841/156/196 873/162/196
f 858/163/197 838/164/197 832/165/197
f 858/163/197 832/165/197 866/166/197
f 871/167/198 857/163/198 865/166/198
f 871/167/198 865/166/198 881/168/198
f 835/169/199 854/170/199 862/171/199
f 835/169/199 862/171/199 829/172/199
f 875/173/200 882/174/200 868/158/201
f 875/173/200 868/158/201 864/157/201
s 0
f 836/150/202 839/149/202 860/175/202
f 836/150/202 860/175/202 856/176/202
s 1
f 843/156/203 846/155/203 882/174/200
f 843/156/203 882/174/200 875/173/200
f 851/153/204 870/167/204 880/168/204
f 851/153/204 880/168/204 844/155/204
f 853/170/205 878/161/205 874/162/205
f 853/170/205 874/162/205 861/171/205
s 0
f 855/176/206 859/175/206 872/152/206
f 855/176/206 872/152/206 879/151/206
f 883/147/207 886/148/207 892/149/207
f 883/147/207 892/149/207 889/150/207
f 933/151/208 926/152/208 905/153/208
f 933/151/208 905/153/208 902/154/208
f 903/154/209 906/153/209 899/155/209
f 903/154/209 899/155/209 896/156/209
f 918/157/210 922/158/210 888/159/210
f 918/157/210 888/159/210 885/160/210
s 1
f 930/161/211 901/154/211 895/156/211
f 930/161/211 895/156/211 927/162/211
s 0
f 912/163/212 893/164/212 887/165/212
f 912/163/212 887/165/212 919/166/212
s 1
f 925/167/213 913/163/213 920/166/213
f 925/167/213 920/166/213 935/168/213
s 0
f 890/169/214 908/170/214 915/171/214
f 890/169/214 915/171/214 884/172/214
s 1
f 929/173/215 936/174/215 921/158/216
f 929/173/215 921/158/216 917/157/216
s 0
f 891/150/217 894/149/217 914/175/217
f 891/150/217 914/175/217 910/176/217
s 1
f 897/156/218 900/155/218 936/174/215
f 897/156/218 936/174/215 929/173/215
f 904/153/219 923/167/219 934/168/219
f 904/153/219 934/168/219 898/155/219
f 909/170/220 932/161/220 928/162/220
f 909/170/220 928/162/220 916/171/220
s 0
f 907/176/221 911/175/221 924/152/221
f 907/176/221 924/152/221 931/151/221
f 938/147/222 941/148/222 948/149/222
s 1
f 938/147/222 948/149/222 945/150/222
s 0
f 988/151/223 980/152/223 959/153/223
f 988/151/223 959/153/223 956/154/223
f 957/154/224 960/153/224 954/155/224
f 957/154/224 954/155/224 951/156/224
f 972/157/225 976/158/225 942/159/225
f 972/157/225 942/159/225 939/160/225
s 1
f 986/161/226 955/154/226 949/156/226
f 986/161/226 949/156/226 981/162/226
f 967/163/227 947/164/227 940/165/227
f 967/163/227 940/165/227 973/166/227
f 979/167/228 968/163/228 974/166/228
f 979/167/228 974/166/228 990/168/228
f 944/169/229 963/170/229 969/171/229
f 944/169/229 969/171/229 937/172/229
s 0
f 984/173/230 992/174/230 975/158/230
f 984/173/231 975/158/231 971/157/231
f 943/150/232 946/149/232 966/175/232
f 943/150/232 966/175/232 962/176/232
f 950/156/233 953/155/233 991/174/233
f 950/156/233 991/174/233 983/173/233
s 1
f 958/153/234 978/167/234 989/168/234
f 958/153/234 989/168/234 952/155/234
f 964/170/235 987/161/235 982/162/235
f 964/170/235 982/162/235 970/171/235
s 0
f 961/176/236 965/175/236 977/152/236
f 961/176/236 977/152/236 985/151/236
f 13/177/237 7/177/237 4/177/237
f 167/177/238 163/177/238 6/177/238
f 13/177/237 4/177/237 9/177/237
f 157/177/239 165/177/239 168/177/239
f 20/177/240 14/177/240 11/177/240
f 160/177/239 157/177/239 168/177/239
f 20/177/240 11/177/240 17/177/240
f 105/177/241 102/177/241 108/177/241
f 27/177/242 21/177/242 18/177/242
f 158/177/243 161/177/243 153/177/243
f 27/177/242 18/177/242 24/177/242
f 150/177/243 158/177/243 153/177/243
f 34/177/244 28/177/244 25/177/244
f 151/177/245 154/177/245 146/177/245
f 34/177/244 25/177/244 31/177/244
f 143/177/245 151/177/245 146/177/245
f 41/177/246 35/177/246 32/177/246
f 144/177/247 147/177/247 139/177/247
f 41/177/246 32/177/246 38/177/246
f 136/177/247 144/177/247 139/177/247
f 48/177/248 42/177/248 39/177/248
f 137/177/249 140/177/249 132/177/249
f 48/177/250 39/177/250 45/177/250
f 129/177/249 137/177/249 132/177/249
f 56/177/251 49/177/251 46/177/251
f 56/177/251 46/177/251 53/177/251
f 123/177/252 130/177/252 133/177/252
f 123/177/253 133/177/253 126/177/253
f 60/177/254 63/177/254 52/177/254
f 116/177/255 122/177/255 125/177/255
f 163/177/238 2/177/238 6/177/238
f 116/177/255 125/177/255 119/177/255
f 62/177/256 59/177/256 67/177/256
f 109/177/257 115/177/257 118/177/257
f 70/177/256 62/177/256 67/177/256
f 109/177/257 118/177/257 112/177/257
f 69/177/258 66/177/258 74/177/258
f 111/177/241 105/177/241 108/177/241
f 77/177/258 69/177/258 74/177/258
f 76/177/259 73/177/259 81/177/259
f 95/177/260 101/177/260 104/177/260
f 84/177/259 76/177/259 81/177/259
f 95/177/260 104/177/260 98/177/260
f 88/177/261 91/177/261 79/177/261
f 86/177/262 93/177/262 97/177/262
f 63/177/254 55/177/254 52/177/254
f 86/177/262 97/177/262 90/177/262
f 91/177/261 83/177/261 79/177/261
